<ttFont>
<head>
    <!-- Most of this table will be recalculated by the compiler -->
    <tableVersion value="1.0"/>
    <fontRevision value="1.002"/>
    <checkSumAdjustment value="0xf1dcf281"/>
    <magicNumber value="0x5f0f3cf5"/>
    <flags value="00000000 00000011"/>
    <unitsPerEm value="1000"/>
    <created value="Sun Jan 10 02:32:23 2016"/>
    <modified value="Sun Jan 10 02:32:25 2016"/>
    <xMin value="-95"/>
    <yMin value="-315"/>
    <xMax value="1019"/>
    <yMax value="1178"/>
    <macStyle value="00000000 00000000"/>
    <lowestRecPPEM value="6"/>
    <fontDirectionHint value="2"/>
    <indexToLocFormat value="0"/>
    <glyphDataFormat value="0"/>
  </head>
    <TTGlyph name=".notdef" xMin="0" yMin="-200" xMax="500" yMax="800">
      <contour>
        <pt x="0" y="-200" on="1"/>
        <pt x="0" y="800" on="1"/>
        <pt x="500" y="800" on="1"/>
        <pt x="500" y="-200" on="1"/>
      </contour>
      <contour>
        <pt x="71" y="750" on="1"/>
        <pt x="250" y="360" on="1"/>
        <pt x="429" y="750" on="1"/>
      </contour>
      <contour>
        <pt x="450" y="676" on="1"/>
        <pt x="278" y="300" on="1"/>
        <pt x="450" y="-76" on="1"/>
      </contour>
      <contour>
        <pt x="50" y="-76" on="1"/>
        <pt x="222" y="300" on="1"/>
        <pt x="50" y="676" on="1"/>
      </contour>
      <contour>
        <pt x="250" y="240" on="1"/>
        <pt x="71" y="-150" on="1"/>
        <pt x="429" y="-150" on="1"/>
      </contour>
    </TTGlyph>
    <TTGlyph name="A" xMin="9" yMin="-5" xMax="587" yMax="620">
      <contour>
        <pt x="408" y="-5" on="1"/>
        <pt x="401" y="29" on="0"/>
        <pt x="386" y="95" on="0"/>
        <pt x="379" y="129" on="1"/>
        <pt x="211" y="129" on="1"/>
        <pt x="204" y="97" on="0"/>
        <pt x="190" y="32" on="0"/>
        <pt x="183" y="0" on="1"/>
        <pt x="9" y="0" on="1"/>
        <pt x="48" y="154" on="0"/>
        <pt x="133" y="466" on="0"/>
        <pt x="179" y="620" on="1"/>
        <pt x="416" y="620" on="1"/>
        <pt x="462" y="466" on="0"/>
        <pt x="548" y="159" on="0"/>
        <pt x="587" y="5" on="1"/>
      </contour>
      <contour>
        <pt x="289" y="473" on="1"/>
        <pt x="276" y="419" on="0"/>
        <pt x="252" y="309" on="0"/>
        <pt x="239" y="255" on="1"/>
        <pt x="351" y="255" on="1"/>
        <pt x="338" y="309" on="0"/>
        <pt x="313" y="419" on="0"/>
        <pt x="300" y="473" on="1"/>
      </contour>
    </TTGlyph>
    <TTGlyph name="A.sc" xMin="10" yMin="-4" xMax="550" yMax="544">
      <contour>
        <pt x="376" y="-4" on="1"/>
        <pt x="370" y="24" on="0"/>
        <pt x="357" y="79" on="0"/>
        <pt x="350" y="107" on="1"/>
        <pt x="203" y="107" on="1"/>
        <pt x="197" y="80" on="0"/>
        <pt x="185" y="27" on="0"/>
        <pt x="179" y="0" on="1"/>
        <pt x="10" y="0" on="1"/>
        <pt x="47" y="135" on="0"/>
        <pt x="124" y="409" on="0"/>
        <pt x="166" y="544" on="1"/>
        <pt x="392" y="544" on="1"/>
        <pt x="435" y="409" on="0"/>
        <pt x="513" y="139" on="0"/>
        <pt x="550" y="4" on="1"/>
      </contour>
      <contour>
        <pt x="272" y="405" on="1"/>
        <pt x="262" y="360" on="0"/>
        <pt x="240" y="269" on="0"/>
        <pt x="230" y="223" on="1"/>
        <pt x="324" y="223" on="1"/>
        <pt x="313" y="269" on="0"/>
        <pt x="291" y="360" on="0"/>
        <pt x="281" y="405" on="1"/>
      </contour>
    </TTGlyph>
    <TTGlyph name="AE" xMin="-15" yMin="0" xMax="780" yMax="620">
      <contour>
        <pt x="363" y="478" on="1"/>
        <pt x="339" y="422" on="0"/>
        <pt x="291" y="310" on="0"/>
        <pt x="267" y="254" on="1"/>
        <pt x="371" y="254" on="1"/>
        <pt x="371" y="478" on="1"/>
      </contour>
      <contour>
        <pt x="371" y="0" on="1"/>
        <pt x="371" y="128" on="1"/>
        <pt x="215" y="128" on="1"/>
        <pt x="202" y="96" on="0"/>
        <pt x="175" y="32" on="0"/>
        <pt x="162" y="0" on="1"/>
        <pt x="-15" y="0" on="1"/>
        <pt x="51" y="151" on="0"/>
        <pt x="195" y="468" on="0"/>
        <pt x="268" y="620" on="1"/>
        <pt x="772" y="620" on="1"/>
        <pt x="772" y="478" on="1"/>
        <pt x="540" y="478" on="1"/>
        <pt x="540" y="367" on="1"/>
        <pt x="730" y="367" on="1"/>
        <pt x="730" y="255" on="1"/>
        <pt x="540" y="255" on="1"/>
        <pt x="540" y="142" on="1"/>
        <pt x="780" y="142" on="1"/>
        <pt x="769" y="0" on="1"/>
      </contour>
    </TTGlyph>
    <TTGlyph name="AE.sc" xMin="-14" yMin="0" xMax="732" yMax="544">
      <contour>
        <pt x="340" y="415" on="1"/>
        <pt x="318" y="367" on="0"/>
        <pt x="276" y="272" on="0"/>
        <pt x="255" y="224" on="1"/>
        <pt x="349" y="224" on="1"/>
        <pt x="349" y="415" on="1"/>
      </contour>
      <contour>
        <pt x="349" y="0" on="1"/>
        <pt x="349" y="108" on="1"/>
        <pt x="204" y="108" on="1"/>
        <pt x="192" y="81" on="0"/>
        <pt x="169" y="27" on="0"/>
        <pt x="157" y="0" on="1"/>
        <pt x="-14" y="0" on="1"/>
        <pt x="47" y="135" on="0"/>
        <pt x="179" y="410" on="0"/>
        <pt x="246" y="544" on="1"/>
        <pt x="725" y="544" on="1"/>
        <pt x="725" y="414" on="1"/>
        <pt x="513" y="414" on="1"/>
        <pt x="513" y="324" on="1"/>
        <pt x="685" y="324" on="1"/>
        <pt x="685" y="222" on="1"/>
        <pt x="513" y="222" on="1"/>
        <pt x="513" y="131" on="1"/>
        <pt x="732" y="131" on="1"/>
        <pt x="722" y="0" on="1"/>
      </contour>
    </TTGlyph>
    <TTGlyph name="AEacute" xMin="-15" yMin="0" xMax="780" yMax="913">
      <contour>
        <pt x="347" y="737" on="1"/>
        <pt x="398" y="768" on="0"/>
        <pt x="521" y="866" on="0"/>
        <pt x="569" y="913" on="1"/>
        <pt x="672" y="788" on="1"/>
        <pt x="641" y="767" on="0"/>
        <pt x="566" y="728" on="0"/>
        <pt x="489" y="696" on="0"/>
        <pt x="412" y="672" on="0"/>
        <pt x="378" y="665" on="1"/>
      </contour>
      <contour>
        <pt x="363" y="478" on="1"/>
        <pt x="339" y="422" on="0"/>
        <pt x="291" y="310" on="0"/>
        <pt x="267" y="254" on="1"/>
        <pt x="371" y="254" on="1"/>
        <pt x="371" y="478" on="1"/>
      </contour>
      <contour>
        <pt x="371" y="0" on="1"/>
        <pt x="371" y="128" on="1"/>
        <pt x="215" y="128" on="1"/>
        <pt x="202" y="96" on="0"/>
        <pt x="175" y="32" on="0"/>
        <pt x="162" y="0" on="1"/>
        <pt x="-15" y="0" on="1"/>
        <pt x="51" y="151" on="0"/>
        <pt x="195" y="468" on="0"/>
        <pt x="268" y="620" on="1"/>
        <pt x="772" y="620" on="1"/>
        <pt x="772" y="478" on="1"/>
        <pt x="540" y="478" on="1"/>
        <pt x="540" y="367" on="1"/>
        <pt x="730" y="367" on="1"/>
        <pt x="730" y="255" on="1"/>
        <pt x="540" y="255" on="1"/>
        <pt x="540" y="142" on="1"/>
        <pt x="780" y="142" on="1"/>
        <pt x="769" y="0" on="1"/>
      </contour>
    </TTGlyph>
    <TTGlyph name="AEacute.sc" xMin="-14" yMin="0" xMax="732" yMax="837">
      <contour>
        <pt x="309" y="661" on="1"/>
        <pt x="360" y="692" on="0"/>
        <pt x="483" y="790" on="0"/>
        <pt x="531" y="837" on="1"/>
        <pt x="634" y="712" on="1"/>
        <pt x="603" y="691" on="0"/>
        <pt x="528" y="652" on="0"/>
        <pt x="451" y="620" on="0"/>
        <pt x="374" y="596" on="0"/>
        <pt x="340" y="589" on="1"/>
      </contour>
      <contour>
        <pt x="340" y="415" on="1"/>
        <pt x="318" y="367" on="0"/>
        <pt x="276" y="272" on="0"/>
        <pt x="255" y="224" on="1"/>
        <pt x="349" y="224" on="1"/>
        <pt x="349" y="415" on="1"/>
      </contour>
      <contour>
        <pt x="349" y="0" on="1"/>
        <pt x="349" y="108" on="1"/>
        <pt x="204" y="108" on="1"/>
        <pt x="192" y="81" on="0"/>
        <pt x="169" y="27" on="0"/>
        <pt x="157" y="0" on="1"/>
        <pt x="-14" y="0" on="1"/>
        <pt x="47" y="135" on="0"/>
        <pt x="179" y="410" on="0"/>
        <pt x="246" y="544" on="1"/>
        <pt x="725" y="544" on="1"/>
        <pt x="725" y="414" on="1"/>
        <pt x="513" y="414" on="1"/>
        <pt x="513" y="324" on="1"/>
        <pt x="685" y="324" on="1"/>
        <pt x="685" y="222" on="1"/>
        <pt x="513" y="222" on="1"/>
        <pt x="513" y="131" on="1"/>
        <pt x="732" y="131" on="1"/>
        <pt x="722" y="0" on="1"/>
      </contour>
    </TTGlyph>
    <TTGlyph name="Aacute" xMin="9" yMin="-5" xMax="587" yMax="913">
      <contour>
        <pt x="160" y="737" on="1"/>
        <pt x="211" y="768" on="0"/>
        <pt x="334" y="866" on="0"/>
        <pt x="382" y="913" on="1"/>
        <pt x="485" y="788" on="1"/>
        <pt x="454" y="767" on="0"/>
        <pt x="379" y="728" on="0"/>
        <pt x="302" y="696" on="0"/>
        <pt x="225" y="672" on="0"/>
        <pt x="191" y="665" on="1"/>
      </contour>
      <contour>
        <pt x="408" y="-5" on="1"/>
        <pt x="401" y="29" on="0"/>
        <pt x="386" y="95" on="0"/>
        <pt x="379" y="129" on="1"/>
        <pt x="211" y="129" on="1"/>
        <pt x="204" y="97" on="0"/>
        <pt x="190" y="32" on="0"/>
        <pt x="183" y="0" on="1"/>
        <pt x="9" y="0" on="1"/>
        <pt x="48" y="154" on="0"/>
        <pt x="133" y="466" on="0"/>
        <pt x="179" y="620" on="1"/>
        <pt x="416" y="620" on="1"/>
        <pt x="462" y="466" on="0"/>
        <pt x="548" y="159" on="0"/>
        <pt x="587" y="5" on="1"/>
      </contour>
      <contour>
        <pt x="289" y="473" on="1"/>
        <pt x="276" y="419" on="0"/>
        <pt x="252" y="309" on="0"/>
        <pt x="239" y="255" on="1"/>
        <pt x="351" y="255" on="1"/>
        <pt x="338" y="309" on="0"/>
        <pt x="313" y="419" on="0"/>
        <pt x="300" y="473" on="1"/>
      </contour>
    </TTGlyph>
    <TTGlyph name="Aacute.sc" xMin="10" yMin="-4" xMax="550" yMax="837">
      <contour>
        <pt x="142" y="661" on="1"/>
        <pt x="193" y="692" on="0"/>
        <pt x="316" y="790" on="0"/>
        <pt x="364" y="837" on="1"/>
        <pt x="467" y="712" on="1"/>
        <pt x="436" y="691" on="0"/>
        <pt x="361" y="652" on="0"/>
        <pt x="284" y="620" on="0"/>
        <pt x="207" y="596" on="0"/>
        <pt x="173" y="589" on="1"/>
      </contour>
      <contour>
        <pt x="376" y="-4" on="1"/>
        <pt x="370" y="24" on="0"/>
        <pt x="357" y="79" on="0"/>
        <pt x="350" y="107" on="1"/>
        <pt x="203" y="107" on="1"/>
        <pt x="197" y="80" on="0"/>
        <pt x="185" y="27" on="0"/>
        <pt x="179" y="0" on="1"/>
        <pt x="10" y="0" on="1"/>
        <pt x="47" y="135" on="0"/>
        <pt x="124" y="409" on="0"/>
        <pt x="166" y="544" on="1"/>
        <pt x="392" y="544" on="1"/>
        <pt x="435" y="409" on="0"/>
        <pt x="513" y="139" on="0"/>
        <pt x="550" y="4" on="1"/>
      </contour>
      <contour>
        <pt x="272" y="405" on="1"/>
        <pt x="262" y="360" on="0"/>
        <pt x="240" y="269" on="0"/>
        <pt x="230" y="223" on="1"/>
        <pt x="324" y="223" on="1"/>
        <pt x="313" y="269" on="0"/>
        <pt x="291" y="360" on="0"/>
        <pt x="281" y="405" on="1"/>
      </contour>
    </TTGlyph>
    <TTGlyph name="Abreve" xMin="9" yMin="-5" xMax="587" yMax="884">
      <contour>
        <pt x="297" y="670" on="1"/>
        <pt x="234" y="670" on="0"/>
        <pt x="133" y="752" on="0"/>
        <pt x="98" y="824" on="1"/>
        <pt x="202" y="884" on="1"/>
        <pt x="229" y="842" on="0"/>
        <pt x="281" y="802" on="0"/>
        <pt x="309" y="802" on="1"/>
        <pt x="339" y="802" on="0"/>
        <pt x="389" y="843" on="0"/>
        <pt x="414" y="881" on="1"/>
        <pt x="501" y="838" on="1"/>
        <pt x="464" y="763" on="0"/>
        <pt x="361" y="670" on="0"/>
      </contour>
      <contour>
        <pt x="408" y="-5" on="1"/>
        <pt x="401" y="29" on="0"/>
        <pt x="386" y="95" on="0"/>
        <pt x="379" y="129" on="1"/>
        <pt x="211" y="129" on="1"/>
        <pt x="204" y="97" on="0"/>
        <pt x="190" y="32" on="0"/>
        <pt x="183" y="0" on="1"/>
        <pt x="9" y="0" on="1"/>
        <pt x="48" y="154" on="0"/>
        <pt x="133" y="466" on="0"/>
        <pt x="179" y="620" on="1"/>
        <pt x="416" y="620" on="1"/>
        <pt x="462" y="466" on="0"/>
        <pt x="548" y="159" on="0"/>
        <pt x="587" y="5" on="1"/>
      </contour>
      <contour>
        <pt x="289" y="473" on="1"/>
        <pt x="276" y="419" on="0"/>
        <pt x="252" y="309" on="0"/>
        <pt x="239" y="255" on="1"/>
        <pt x="351" y="255" on="1"/>
        <pt x="338" y="309" on="0"/>
        <pt x="313" y="419" on="0"/>
        <pt x="300" y="473" on="1"/>
      </contour>
    </TTGlyph>
    <TTGlyph name="Abreve.sc" xMin="10" yMin="-4" xMax="550" yMax="808">
      <contour>
        <pt x="279" y="594" on="1"/>
        <pt x="216" y="594" on="0"/>
        <pt x="115" y="676" on="0"/>
        <pt x="80" y="748" on="1"/>
        <pt x="184" y="808" on="1"/>
        <pt x="211" y="766" on="0"/>
        <pt x="263" y="726" on="0"/>
        <pt x="291" y="726" on="1"/>
        <pt x="321" y="726" on="0"/>
        <pt x="371" y="767" on="0"/>
        <pt x="396" y="805" on="1"/>
        <pt x="483" y="762" on="1"/>
        <pt x="446" y="687" on="0"/>
        <pt x="343" y="594" on="0"/>
      </contour>
      <contour>
        <pt x="376" y="-4" on="1"/>
        <pt x="370" y="24" on="0"/>
        <pt x="357" y="79" on="0"/>
        <pt x="350" y="107" on="1"/>
        <pt x="203" y="107" on="1"/>
        <pt x="197" y="80" on="0"/>
        <pt x="185" y="27" on="0"/>
        <pt x="179" y="0" on="1"/>
        <pt x="10" y="0" on="1"/>
        <pt x="47" y="135" on="0"/>
        <pt x="124" y="409" on="0"/>
        <pt x="166" y="544" on="1"/>
        <pt x="392" y="544" on="1"/>
        <pt x="435" y="409" on="0"/>
        <pt x="513" y="139" on="0"/>
        <pt x="550" y="4" on="1"/>
      </contour>
      <contour>
        <pt x="272" y="405" on="1"/>
        <pt x="262" y="360" on="0"/>
        <pt x="240" y="269" on="0"/>
        <pt x="230" y="223" on="1"/>
        <pt x="324" y="223" on="1"/>
        <pt x="313" y="269" on="0"/>
        <pt x="291" y="360" on="0"/>
        <pt x="281" y="405" on="1"/>
      </contour>
    </TTGlyph>
    <TTGlyph name="Acircumflex" xMin="9" yMin="-5" xMax="587" yMax="894">
      <contour>
        <pt x="402" y="665" on="1"/>
        <pt x="289" y="754" on="1"/>
        <pt x="180" y="666" on="1"/>
        <pt x="110" y="744" on="1"/>
        <pt x="287" y="894" on="1"/>
        <pt x="313" y="894" on="1"/>
        <pt x="492" y="758" on="1"/>
      </contour>
      <contour>
        <pt x="408" y="-5" on="1"/>
        <pt x="401" y="29" on="0"/>
        <pt x="386" y="95" on="0"/>
        <pt x="379" y="129" on="1"/>
        <pt x="211" y="129" on="1"/>
        <pt x="204" y="97" on="0"/>
        <pt x="190" y="32" on="0"/>
        <pt x="183" y="0" on="1"/>
        <pt x="9" y="0" on="1"/>
        <pt x="48" y="154" on="0"/>
        <pt x="133" y="466" on="0"/>
        <pt x="179" y="620" on="1"/>
        <pt x="416" y="620" on="1"/>
        <pt x="462" y="466" on="0"/>
        <pt x="548" y="159" on="0"/>
        <pt x="587" y="5" on="1"/>
      </contour>
      <contour>
        <pt x="289" y="473" on="1"/>
        <pt x="276" y="419" on="0"/>
        <pt x="252" y="309" on="0"/>
        <pt x="239" y="255" on="1"/>
        <pt x="351" y="255" on="1"/>
        <pt x="338" y="309" on="0"/>
        <pt x="313" y="419" on="0"/>
        <pt x="300" y="473" on="1"/>
      </contour>
    </TTGlyph>
    <TTGlyph name="Acircumflex.sc" xMin="10" yMin="-4" xMax="550" yMax="818">
      <contour>
        <pt x="385" y="589" on="1"/>
        <pt x="272" y="678" on="1"/>
        <pt x="163" y="590" on="1"/>
        <pt x="93" y="668" on="1"/>
        <pt x="270" y="818" on="1"/>
        <pt x="296" y="818" on="1"/>
        <pt x="475" y="682" on="1"/>
      </contour>
      <contour>
        <pt x="376" y="-4" on="1"/>
        <pt x="370" y="24" on="0"/>
        <pt x="357" y="79" on="0"/>
        <pt x="350" y="107" on="1"/>
        <pt x="203" y="107" on="1"/>
        <pt x="197" y="80" on="0"/>
        <pt x="185" y="27" on="0"/>
        <pt x="179" y="0" on="1"/>
        <pt x="10" y="0" on="1"/>
        <pt x="47" y="135" on="0"/>
        <pt x="124" y="409" on="0"/>
        <pt x="166" y="544" on="1"/>
        <pt x="392" y="544" on="1"/>
        <pt x="435" y="409" on="0"/>
        <pt x="513" y="139" on="0"/>
        <pt x="550" y="4" on="1"/>
      </contour>
      <contour>
        <pt x="272" y="405" on="1"/>
        <pt x="262" y="360" on="0"/>
        <pt x="240" y="269" on="0"/>
        <pt x="230" y="223" on="1"/>
        <pt x="324" y="223" on="1"/>
        <pt x="313" y="269" on="0"/>
        <pt x="291" y="360" on="0"/>
        <pt x="281" y="405" on="1"/>
      </contour>
    </TTGlyph>
    <TTGlyph name="Adieresis" xMin="9" yMin="-5" xMax="587" yMax="840">
      <contour>
        <pt x="489" y="682" on="1"/>
        <pt x="327" y="682" on="1"/>
        <pt x="330" y="840" on="1"/>
        <pt x="492" y="840" on="1"/>
      </contour>
      <contour>
        <pt x="264" y="682" on="1"/>
        <pt x="103" y="682" on="1"/>
        <pt x="106" y="840" on="1"/>
        <pt x="267" y="840" on="1"/>
      </contour>
      <contour>
        <pt x="408" y="-5" on="1"/>
        <pt x="401" y="29" on="0"/>
        <pt x="386" y="95" on="0"/>
        <pt x="379" y="129" on="1"/>
        <pt x="211" y="129" on="1"/>
        <pt x="204" y="97" on="0"/>
        <pt x="190" y="32" on="0"/>
        <pt x="183" y="0" on="1"/>
        <pt x="9" y="0" on="1"/>
        <pt x="48" y="154" on="0"/>
        <pt x="133" y="466" on="0"/>
        <pt x="179" y="620" on="1"/>
        <pt x="416" y="620" on="1"/>
        <pt x="462" y="466" on="0"/>
        <pt x="548" y="159" on="0"/>
        <pt x="587" y="5" on="1"/>
      </contour>
      <contour>
        <pt x="289" y="473" on="1"/>
        <pt x="276" y="419" on="0"/>
        <pt x="252" y="309" on="0"/>
        <pt x="239" y="255" on="1"/>
        <pt x="351" y="255" on="1"/>
        <pt x="338" y="309" on="0"/>
        <pt x="313" y="419" on="0"/>
        <pt x="300" y="473" on="1"/>
      </contour>
    </TTGlyph>
    <TTGlyph name="Adieresis.sc" xMin="10" yMin="-4" xMax="550" yMax="764">
      <contour>
        <pt x="471" y="606" on="1"/>
        <pt x="309" y="606" on="1"/>
        <pt x="312" y="764" on="1"/>
        <pt x="474" y="764" on="1"/>
      </contour>
      <contour>
        <pt x="246" y="606" on="1"/>
        <pt x="85" y="606" on="1"/>
        <pt x="88" y="764" on="1"/>
        <pt x="249" y="764" on="1"/>
      </contour>
      <contour>
        <pt x="376" y="-4" on="1"/>
        <pt x="370" y="24" on="0"/>
        <pt x="357" y="79" on="0"/>
        <pt x="350" y="107" on="1"/>
        <pt x="203" y="107" on="1"/>
        <pt x="197" y="80" on="0"/>
        <pt x="185" y="27" on="0"/>
        <pt x="179" y="0" on="1"/>
        <pt x="10" y="0" on="1"/>
        <pt x="47" y="135" on="0"/>
        <pt x="124" y="409" on="0"/>
        <pt x="166" y="544" on="1"/>
        <pt x="392" y="544" on="1"/>
        <pt x="435" y="409" on="0"/>
        <pt x="513" y="139" on="0"/>
        <pt x="550" y="4" on="1"/>
      </contour>
      <contour>
        <pt x="272" y="405" on="1"/>
        <pt x="262" y="360" on="0"/>
        <pt x="240" y="269" on="0"/>
        <pt x="230" y="223" on="1"/>
        <pt x="324" y="223" on="1"/>
        <pt x="313" y="269" on="0"/>
        <pt x="291" y="360" on="0"/>
        <pt x="281" y="405" on="1"/>
      </contour>
    </TTGlyph>
    <TTGlyph name="Agrave" xMin="9" yMin="-5" xMax="587" yMax="914">
      <contour>
        <pt x="428" y="736" on="1"/>
        <pt x="393" y="665" on="1"/>
        <pt x="360" y="673" on="0"/>
        <pt x="285" y="698" on="0"/>
        <pt x="210" y="729" on="0"/>
        <pt x="136" y="766" on="0"/>
        <pt x="105" y="785" on="1"/>
        <pt x="200" y="914" on="1"/>
        <pt x="224" y="893" on="0"/>
        <pt x="283" y="844" on="0"/>
        <pt x="344" y="796" on="0"/>
        <pt x="403" y="752" on="0"/>
      </contour>
      <contour>
        <pt x="408" y="-5" on="1"/>
        <pt x="401" y="29" on="0"/>
        <pt x="386" y="95" on="0"/>
        <pt x="379" y="129" on="1"/>
        <pt x="211" y="129" on="1"/>
        <pt x="204" y="97" on="0"/>
        <pt x="190" y="32" on="0"/>
        <pt x="183" y="0" on="1"/>
        <pt x="9" y="0" on="1"/>
        <pt x="48" y="154" on="0"/>
        <pt x="133" y="466" on="0"/>
        <pt x="179" y="620" on="1"/>
        <pt x="416" y="620" on="1"/>
        <pt x="462" y="466" on="0"/>
        <pt x="548" y="159" on="0"/>
        <pt x="587" y="5" on="1"/>
      </contour>
      <contour>
        <pt x="289" y="473" on="1"/>
        <pt x="276" y="419" on="0"/>
        <pt x="252" y="309" on="0"/>
        <pt x="239" y="255" on="1"/>
        <pt x="351" y="255" on="1"/>
        <pt x="338" y="309" on="0"/>
        <pt x="313" y="419" on="0"/>
        <pt x="300" y="473" on="1"/>
      </contour>
    </TTGlyph>
    <TTGlyph name="Agrave.sc" xMin="10" yMin="-4" xMax="550" yMax="838">
      <contour>
        <pt x="411" y="660" on="1"/>
        <pt x="376" y="589" on="1"/>
        <pt x="343" y="597" on="0"/>
        <pt x="268" y="622" on="0"/>
        <pt x="193" y="653" on="0"/>
        <pt x="119" y="690" on="0"/>
        <pt x="88" y="709" on="1"/>
        <pt x="183" y="838" on="1"/>
        <pt x="207" y="817" on="0"/>
        <pt x="266" y="768" on="0"/>
        <pt x="327" y="720" on="0"/>
        <pt x="386" y="676" on="0"/>
      </contour>
      <contour>
        <pt x="376" y="-4" on="1"/>
        <pt x="370" y="24" on="0"/>
        <pt x="357" y="79" on="0"/>
        <pt x="350" y="107" on="1"/>
        <pt x="203" y="107" on="1"/>
        <pt x="197" y="80" on="0"/>
        <pt x="185" y="27" on="0"/>
        <pt x="179" y="0" on="1"/>
        <pt x="10" y="0" on="1"/>
        <pt x="47" y="135" on="0"/>
        <pt x="124" y="409" on="0"/>
        <pt x="166" y="544" on="1"/>
        <pt x="392" y="544" on="1"/>
        <pt x="435" y="409" on="0"/>
        <pt x="513" y="139" on="0"/>
        <pt x="550" y="4" on="1"/>
      </contour>
      <contour>
        <pt x="272" y="405" on="1"/>
        <pt x="262" y="360" on="0"/>
        <pt x="240" y="269" on="0"/>
        <pt x="230" y="223" on="1"/>
        <pt x="324" y="223" on="1"/>
        <pt x="313" y="269" on="0"/>
        <pt x="291" y="360" on="0"/>
        <pt x="281" y="405" on="1"/>
      </contour>
    </TTGlyph>
    <TTGlyph name="Amacron" xMin="9" yMin="-5" xMax="587" yMax="832">
      <contour>
        <pt x="475" y="832" on="1"/>
        <pt x="475" y="691" on="1"/>
        <pt x="117" y="691" on="1"/>
        <pt x="117" y="832" on="1"/>
      </contour>
      <contour>
        <pt x="408" y="-5" on="1"/>
        <pt x="401" y="29" on="0"/>
        <pt x="386" y="95" on="0"/>
        <pt x="379" y="129" on="1"/>
        <pt x="211" y="129" on="1"/>
        <pt x="204" y="97" on="0"/>
        <pt x="190" y="32" on="0"/>
        <pt x="183" y="0" on="1"/>
        <pt x="9" y="0" on="1"/>
        <pt x="48" y="154" on="0"/>
        <pt x="133" y="466" on="0"/>
        <pt x="179" y="620" on="1"/>
        <pt x="416" y="620" on="1"/>
        <pt x="462" y="466" on="0"/>
        <pt x="548" y="159" on="0"/>
        <pt x="587" y="5" on="1"/>
      </contour>
      <contour>
        <pt x="289" y="473" on="1"/>
        <pt x="276" y="419" on="0"/>
        <pt x="252" y="309" on="0"/>
        <pt x="239" y="255" on="1"/>
        <pt x="351" y="255" on="1"/>
        <pt x="338" y="309" on="0"/>
        <pt x="313" y="419" on="0"/>
        <pt x="300" y="473" on="1"/>
      </contour>
    </TTGlyph>
    <TTGlyph name="Amacron.sc" xMin="10" yMin="-4" xMax="550" yMax="756">
      <contour>
        <pt x="457" y="756" on="1"/>
        <pt x="457" y="615" on="1"/>
        <pt x="99" y="615" on="1"/>
        <pt x="99" y="756" on="1"/>
      </contour>
      <contour>
        <pt x="376" y="-4" on="1"/>
        <pt x="370" y="24" on="0"/>
        <pt x="357" y="79" on="0"/>
        <pt x="350" y="107" on="1"/>
        <pt x="203" y="107" on="1"/>
        <pt x="197" y="80" on="0"/>
        <pt x="185" y="27" on="0"/>
        <pt x="179" y="0" on="1"/>
        <pt x="10" y="0" on="1"/>
        <pt x="47" y="135" on="0"/>
        <pt x="124" y="409" on="0"/>
        <pt x="166" y="544" on="1"/>
        <pt x="392" y="544" on="1"/>
        <pt x="435" y="409" on="0"/>
        <pt x="513" y="139" on="0"/>
        <pt x="550" y="4" on="1"/>
      </contour>
      <contour>
        <pt x="272" y="405" on="1"/>
        <pt x="262" y="360" on="0"/>
        <pt x="240" y="269" on="0"/>
        <pt x="230" y="223" on="1"/>
        <pt x="324" y="223" on="1"/>
        <pt x="313" y="269" on="0"/>
        <pt x="291" y="360" on="0"/>
        <pt x="281" y="405" on="1"/>
      </contour>
    </TTGlyph>
    <TTGlyph name="Aogonek" xMin="9" yMin="-235" xMax="587" yMax="620">
      <contour>
        <pt x="562" y="-235" on="1"/>
        <pt x="425" y="-226" on="0"/>
        <pt x="324" y="-152" on="0"/>
        <pt x="324" y="-109" on="1"/>
        <pt x="324" y="-80" on="0"/>
        <pt x="363" y="-22" on="0"/>
        <pt x="406" y="6" on="1"/>
        <pt x="399" y="37" on="0"/>
        <pt x="386" y="98" on="0"/>
        <pt x="379" y="129" on="1"/>
        <pt x="211" y="129" on="1"/>
        <pt x="204" y="97" on="0"/>
        <pt x="190" y="32" on="0"/>
        <pt x="183" y="0" on="1"/>
        <pt x="9" y="0" on="1"/>
        <pt x="48" y="154" on="0"/>
        <pt x="133" y="466" on="0"/>
        <pt x="179" y="620" on="1"/>
        <pt x="416" y="620" on="1"/>
        <pt x="462" y="466" on="0"/>
        <pt x="548" y="159" on="0"/>
        <pt x="587" y="5" on="1"/>
        <pt x="512" y="-21" on="0"/>
        <pt x="461" y="-56" on="0"/>
        <pt x="461" y="-71" on="1"/>
        <pt x="461" y="-86" on="0"/>
        <pt x="516" y="-104" on="0"/>
        <pt x="575" y="-109" on="1"/>
      </contour>
      <contour>
        <pt x="289" y="473" on="1"/>
        <pt x="276" y="419" on="0"/>
        <pt x="252" y="309" on="0"/>
        <pt x="239" y="255" on="1"/>
        <pt x="351" y="255" on="1"/>
        <pt x="338" y="309" on="0"/>
        <pt x="313" y="419" on="0"/>
        <pt x="300" y="473" on="1"/>
      </contour>
    </TTGlyph>
    <TTGlyph name="Aogonek.sc" xMin="10" yMin="-236" xMax="550" yMax="544">
      <contour>
        <pt x="526" y="-236" on="1"/>
        <pt x="389" y="-227" on="0"/>
        <pt x="288" y="-155" on="0"/>
        <pt x="288" y="-110" on="1"/>
        <pt x="288" y="-79" on="0"/>
        <pt x="329" y="-22" on="0"/>
        <pt x="374" y="5" on="1"/>
        <pt x="368" y="30" on="0"/>
        <pt x="356" y="82" on="0"/>
        <pt x="350" y="107" on="1"/>
        <pt x="203" y="107" on="1"/>
        <pt x="197" y="80" on="0"/>
        <pt x="185" y="27" on="0"/>
        <pt x="179" y="0" on="1"/>
        <pt x="10" y="0" on="1"/>
        <pt x="47" y="135" on="0"/>
        <pt x="124" y="409" on="0"/>
        <pt x="166" y="544" on="1"/>
        <pt x="392" y="544" on="1"/>
        <pt x="435" y="409" on="0"/>
        <pt x="513" y="139" on="0"/>
        <pt x="550" y="4" on="1"/>
        <pt x="475" y="-22" on="0"/>
        <pt x="425" y="-58" on="0"/>
        <pt x="425" y="-72" on="1"/>
        <pt x="425" y="-88" on="0"/>
        <pt x="480" y="-105" on="0"/>
        <pt x="538" y="-110" on="1"/>
      </contour>
      <contour>
        <pt x="272" y="405" on="1"/>
        <pt x="262" y="360" on="0"/>
        <pt x="240" y="269" on="0"/>
        <pt x="230" y="223" on="1"/>
        <pt x="324" y="223" on="1"/>
        <pt x="313" y="269" on="0"/>
        <pt x="291" y="360" on="0"/>
        <pt x="281" y="405" on="1"/>
      </contour>
    </TTGlyph>
    <TTGlyph name="Aring" xMin="9" yMin="-5" xMax="587" yMax="905">
      <contour>
        <pt x="295" y="905" on="1"/>
        <pt x="357" y="905" on="0"/>
        <pt x="436" y="835" on="0"/>
        <pt x="436" y="787" on="1"/>
        <pt x="436" y="734" on="0"/>
        <pt x="359" y="664" on="0"/>
        <pt x="295" y="664" on="1"/>
        <pt x="232" y="664" on="0"/>
        <pt x="155" y="733" on="0"/>
        <pt x="155" y="782" on="1"/>
        <pt x="155" y="835" on="0"/>
        <pt x="231" y="905" on="0"/>
      </contour>
      <contour>
        <pt x="408" y="-5" on="1"/>
        <pt x="401" y="29" on="0"/>
        <pt x="386" y="95" on="0"/>
        <pt x="379" y="129" on="1"/>
        <pt x="211" y="129" on="1"/>
        <pt x="204" y="97" on="0"/>
        <pt x="190" y="32" on="0"/>
        <pt x="183" y="0" on="1"/>
        <pt x="9" y="0" on="1"/>
        <pt x="48" y="154" on="0"/>
        <pt x="133" y="466" on="0"/>
        <pt x="179" y="620" on="1"/>
        <pt x="416" y="620" on="1"/>
        <pt x="462" y="466" on="0"/>
        <pt x="548" y="159" on="0"/>
        <pt x="587" y="5" on="1"/>
      </contour>
      <contour>
        <pt x="289" y="473" on="1"/>
        <pt x="276" y="419" on="0"/>
        <pt x="252" y="309" on="0"/>
        <pt x="239" y="255" on="1"/>
        <pt x="351" y="255" on="1"/>
        <pt x="338" y="309" on="0"/>
        <pt x="313" y="419" on="0"/>
        <pt x="300" y="473" on="1"/>
      </contour>
    </TTGlyph>
    <TTGlyph name="Aring.sc" xMin="10" yMin="-4" xMax="550" yMax="829">
      <contour>
        <pt x="277" y="829" on="1"/>
        <pt x="339" y="829" on="0"/>
        <pt x="418" y="759" on="0"/>
        <pt x="418" y="711" on="1"/>
        <pt x="418" y="658" on="0"/>
        <pt x="341" y="588" on="0"/>
        <pt x="277" y="588" on="1"/>
        <pt x="214" y="588" on="0"/>
        <pt x="137" y="657" on="0"/>
        <pt x="137" y="706" on="1"/>
        <pt x="137" y="759" on="0"/>
        <pt x="213" y="829" on="0"/>
      </contour>
      <contour>
        <pt x="376" y="-4" on="1"/>
        <pt x="370" y="24" on="0"/>
        <pt x="357" y="79" on="0"/>
        <pt x="350" y="107" on="1"/>
        <pt x="203" y="107" on="1"/>
        <pt x="197" y="80" on="0"/>
        <pt x="185" y="27" on="0"/>
        <pt x="179" y="0" on="1"/>
        <pt x="10" y="0" on="1"/>
        <pt x="47" y="135" on="0"/>
        <pt x="124" y="409" on="0"/>
        <pt x="166" y="544" on="1"/>
        <pt x="392" y="544" on="1"/>
        <pt x="435" y="409" on="0"/>
        <pt x="513" y="139" on="0"/>
        <pt x="550" y="4" on="1"/>
      </contour>
      <contour>
        <pt x="272" y="405" on="1"/>
        <pt x="262" y="360" on="0"/>
        <pt x="240" y="269" on="0"/>
        <pt x="230" y="223" on="1"/>
        <pt x="324" y="223" on="1"/>
        <pt x="313" y="269" on="0"/>
        <pt x="291" y="360" on="0"/>
        <pt x="281" y="405" on="1"/>
      </contour>
    </TTGlyph>
    <TTGlyph name="Aringacute" xMin="9" yMin="-5" xMax="587" yMax="1178">
      <contour>
        <pt x="160" y="1002" on="1"/>
        <pt x="211" y="1033" on="0"/>
        <pt x="334" y="1131" on="0"/>
        <pt x="382" y="1178" on="1"/>
        <pt x="485" y="1053" on="1"/>
        <pt x="454" y="1032" on="0"/>
        <pt x="379" y="993" on="0"/>
        <pt x="302" y="961" on="0"/>
        <pt x="225" y="937" on="0"/>
        <pt x="191" y="930" on="1"/>
      </contour>
      <contour>
        <pt x="295" y="905" on="1"/>
        <pt x="357" y="905" on="0"/>
        <pt x="436" y="835" on="0"/>
        <pt x="436" y="787" on="1"/>
        <pt x="436" y="734" on="0"/>
        <pt x="359" y="664" on="0"/>
        <pt x="295" y="664" on="1"/>
        <pt x="232" y="664" on="0"/>
        <pt x="155" y="733" on="0"/>
        <pt x="155" y="782" on="1"/>
        <pt x="155" y="835" on="0"/>
        <pt x="231" y="905" on="0"/>
      </contour>
      <contour>
        <pt x="408" y="-5" on="1"/>
        <pt x="401" y="29" on="0"/>
        <pt x="386" y="95" on="0"/>
        <pt x="379" y="129" on="1"/>
        <pt x="211" y="129" on="1"/>
        <pt x="204" y="97" on="0"/>
        <pt x="190" y="32" on="0"/>
        <pt x="183" y="0" on="1"/>
        <pt x="9" y="0" on="1"/>
        <pt x="48" y="154" on="0"/>
        <pt x="133" y="466" on="0"/>
        <pt x="179" y="620" on="1"/>
        <pt x="416" y="620" on="1"/>
        <pt x="462" y="466" on="0"/>
        <pt x="548" y="159" on="0"/>
        <pt x="587" y="5" on="1"/>
      </contour>
      <contour>
        <pt x="289" y="473" on="1"/>
        <pt x="276" y="419" on="0"/>
        <pt x="252" y="309" on="0"/>
        <pt x="239" y="255" on="1"/>
        <pt x="351" y="255" on="1"/>
        <pt x="338" y="309" on="0"/>
        <pt x="313" y="419" on="0"/>
        <pt x="300" y="473" on="1"/>
      </contour>
    </TTGlyph>
    <TTGlyph name="Aringacute.sc" xMin="10" yMin="-4" xMax="550" yMax="1103">
      <contour>
        <pt x="142" y="927" on="1"/>
        <pt x="193" y="958" on="0"/>
        <pt x="316" y="1056" on="0"/>
        <pt x="364" y="1103" on="1"/>
        <pt x="467" y="978" on="1"/>
        <pt x="436" y="957" on="0"/>
        <pt x="361" y="918" on="0"/>
        <pt x="284" y="886" on="0"/>
        <pt x="207" y="862" on="0"/>
        <pt x="173" y="855" on="1"/>
      </contour>
      <contour>
        <pt x="277" y="829" on="1"/>
        <pt x="339" y="829" on="0"/>
        <pt x="418" y="759" on="0"/>
        <pt x="418" y="711" on="1"/>
        <pt x="418" y="658" on="0"/>
        <pt x="341" y="588" on="0"/>
        <pt x="277" y="588" on="1"/>
        <pt x="214" y="588" on="0"/>
        <pt x="137" y="657" on="0"/>
        <pt x="137" y="706" on="1"/>
        <pt x="137" y="759" on="0"/>
        <pt x="213" y="829" on="0"/>
      </contour>
      <contour>
        <pt x="376" y="-4" on="1"/>
        <pt x="370" y="24" on="0"/>
        <pt x="357" y="79" on="0"/>
        <pt x="350" y="107" on="1"/>
        <pt x="203" y="107" on="1"/>
        <pt x="197" y="80" on="0"/>
        <pt x="185" y="27" on="0"/>
        <pt x="179" y="0" on="1"/>
        <pt x="10" y="0" on="1"/>
        <pt x="47" y="135" on="0"/>
        <pt x="124" y="409" on="0"/>
        <pt x="166" y="544" on="1"/>
        <pt x="392" y="544" on="1"/>
        <pt x="435" y="409" on="0"/>
        <pt x="513" y="139" on="0"/>
        <pt x="550" y="4" on="1"/>
      </contour>
      <contour>
        <pt x="272" y="405" on="1"/>
        <pt x="262" y="360" on="0"/>
        <pt x="240" y="269" on="0"/>
        <pt x="230" y="223" on="1"/>
        <pt x="324" y="223" on="1"/>
        <pt x="313" y="269" on="0"/>
        <pt x="291" y="360" on="0"/>
        <pt x="281" y="405" on="1"/>
      </contour>
    </TTGlyph>
    <TTGlyph name="Atilde" xMin="9" yMin="-5" xMax="587" yMax="870">
      <contour>
        <pt x="374" y="674" on="1"/>
        <pt x="350" y="674" on="0"/>
        <pt x="307" y="695" on="0"/>
        <pt x="270" y="719" on="0"/>
        <pt x="238" y="740" on="0"/>
        <pt x="226" y="740" on="1"/>
        <pt x="215" y="740" on="0"/>
        <pt x="190" y="714" on="0"/>
        <pt x="173" y="680" on="1"/>
        <pt x="91" y="715" on="1"/>
        <pt x="114" y="781" on="0"/>
        <pt x="187" y="870" on="0"/>
        <pt x="234" y="870" on="1"/>
        <pt x="258" y="870" on="0"/>
        <pt x="300" y="849" on="0"/>
        <pt x="337" y="825" on="0"/>
        <pt x="369" y="804" on="0"/>
        <pt x="381" y="804" on="1"/>
        <pt x="391" y="804" on="0"/>
        <pt x="418" y="832" on="0"/>
        <pt x="436" y="868" on="1"/>
        <pt x="518" y="833" on="1"/>
        <pt x="494" y="765" on="0"/>
        <pt x="421" y="674" on="0"/>
      </contour>
      <contour>
        <pt x="408" y="-5" on="1"/>
        <pt x="401" y="29" on="0"/>
        <pt x="386" y="95" on="0"/>
        <pt x="379" y="129" on="1"/>
        <pt x="211" y="129" on="1"/>
        <pt x="204" y="97" on="0"/>
        <pt x="190" y="32" on="0"/>
        <pt x="183" y="0" on="1"/>
        <pt x="9" y="0" on="1"/>
        <pt x="48" y="154" on="0"/>
        <pt x="133" y="466" on="0"/>
        <pt x="179" y="620" on="1"/>
        <pt x="416" y="620" on="1"/>
        <pt x="462" y="466" on="0"/>
        <pt x="548" y="159" on="0"/>
        <pt x="587" y="5" on="1"/>
      </contour>
      <contour>
        <pt x="289" y="473" on="1"/>
        <pt x="276" y="419" on="0"/>
        <pt x="252" y="309" on="0"/>
        <pt x="239" y="255" on="1"/>
        <pt x="351" y="255" on="1"/>
        <pt x="338" y="309" on="0"/>
        <pt x="313" y="419" on="0"/>
        <pt x="300" y="473" on="1"/>
      </contour>
    </TTGlyph>
    <TTGlyph name="Atilde.sc" xMin="10" yMin="-4" xMax="550" yMax="794">
      <contour>
        <pt x="357" y="598" on="1"/>
        <pt x="333" y="598" on="0"/>
        <pt x="290" y="619" on="0"/>
        <pt x="253" y="643" on="0"/>
        <pt x="221" y="664" on="0"/>
        <pt x="209" y="664" on="1"/>
        <pt x="198" y="664" on="0"/>
        <pt x="173" y="638" on="0"/>
        <pt x="156" y="604" on="1"/>
        <pt x="74" y="639" on="1"/>
        <pt x="97" y="705" on="0"/>
        <pt x="170" y="794" on="0"/>
        <pt x="217" y="794" on="1"/>
        <pt x="241" y="794" on="0"/>
        <pt x="283" y="773" on="0"/>
        <pt x="320" y="749" on="0"/>
        <pt x="352" y="728" on="0"/>
        <pt x="364" y="728" on="1"/>
        <pt x="374" y="728" on="0"/>
        <pt x="401" y="756" on="0"/>
        <pt x="419" y="792" on="1"/>
        <pt x="501" y="757" on="1"/>
        <pt x="477" y="689" on="0"/>
        <pt x="404" y="598" on="0"/>
      </contour>
      <contour>
        <pt x="376" y="-4" on="1"/>
        <pt x="370" y="24" on="0"/>
        <pt x="357" y="79" on="0"/>
        <pt x="350" y="107" on="1"/>
        <pt x="203" y="107" on="1"/>
        <pt x="197" y="80" on="0"/>
        <pt x="185" y="27" on="0"/>
        <pt x="179" y="0" on="1"/>
        <pt x="10" y="0" on="1"/>
        <pt x="47" y="135" on="0"/>
        <pt x="124" y="409" on="0"/>
        <pt x="166" y="544" on="1"/>
        <pt x="392" y="544" on="1"/>
        <pt x="435" y="409" on="0"/>
        <pt x="513" y="139" on="0"/>
        <pt x="550" y="4" on="1"/>
      </contour>
      <contour>
        <pt x="272" y="405" on="1"/>
        <pt x="262" y="360" on="0"/>
        <pt x="240" y="269" on="0"/>
        <pt x="230" y="223" on="1"/>
        <pt x="324" y="223" on="1"/>
        <pt x="313" y="269" on="0"/>
        <pt x="291" y="360" on="0"/>
        <pt x="281" y="405" on="1"/>
      </contour>
    </TTGlyph>
    <TTGlyph name="B" xMin="68" yMin="-9" xMax="552" yMax="629">
      <contour>
        <pt x="215" y="-9" on="1"/>
        <pt x="181" y="-9" on="0"/>
        <pt x="107" y="-4" on="0"/>
        <pt x="68" y="0" on="1"/>
        <pt x="68" y="620" on="1"/>
        <pt x="114" y="624" on="0"/>
        <pt x="199" y="629" on="0"/>
        <pt x="237" y="629" on="1"/>
        <pt x="377" y="629" on="0"/>
        <pt x="533" y="556" on="0"/>
        <pt x="533" y="469" on="1"/>
        <pt x="533" y="423" on="0"/>
        <pt x="485" y="352" on="0"/>
        <pt x="442" y="328" on="1"/>
        <pt x="498" y="309" on="0"/>
        <pt x="552" y="242" on="0"/>
        <pt x="552" y="188" on="1"/>
        <pt x="552" y="137" on="0"/>
        <pt x="504" y="62" on="0"/>
        <pt x="417" y="14" on="0"/>
        <pt x="291" y="-9" on="0"/>
      </contour>
      <contour>
        <pt x="256" y="359" on="1"/>
        <pt x="319" y="359" on="0"/>
        <pt x="367" y="392" on="0"/>
        <pt x="367" y="428" on="1"/>
        <pt x="367" y="461" on="0"/>
        <pt x="318" y="494" on="0"/>
        <pt x="271" y="494" on="1"/>
        <pt x="264" y="494" on="0"/>
        <pt x="247" y="493" on="0"/>
        <pt x="239" y="492" on="1"/>
        <pt x="239" y="359" on="1"/>
        <pt x="243" y="359" on="0"/>
        <pt x="252" y="359" on="0"/>
      </contour>
      <contour>
        <pt x="289" y="125" on="1"/>
        <pt x="338" y="125" on="0"/>
        <pt x="381" y="159" on="0"/>
        <pt x="381" y="193" on="1"/>
        <pt x="381" y="229" on="0"/>
        <pt x="331" y="256" on="0"/>
        <pt x="283" y="256" on="1"/>
        <pt x="273" y="256" on="0"/>
        <pt x="251" y="255" on="0"/>
        <pt x="239" y="254" on="1"/>
        <pt x="239" y="128" on="1"/>
        <pt x="253" y="127" on="0"/>
        <pt x="279" y="125" on="0"/>
      </contour>
    </TTGlyph>
    <TTGlyph name="B.sc" xMin="62" yMin="-8" xMax="520" yMax="553">
      <contour>
        <pt x="204" y="-8" on="1"/>
        <pt x="171" y="-8" on="0"/>
        <pt x="100" y="-4" on="0"/>
        <pt x="62" y="0" on="1"/>
        <pt x="62" y="544" on="1"/>
        <pt x="107" y="548" on="0"/>
        <pt x="189" y="553" on="0"/>
        <pt x="226" y="553" on="1"/>
        <pt x="356" y="553" on="0"/>
        <pt x="502" y="487" on="0"/>
        <pt x="502" y="412" on="1"/>
        <pt x="502" y="372" on="0"/>
        <pt x="458" y="308" on="0"/>
        <pt x="419" y="286" on="1"/>
        <pt x="468" y="271" on="0"/>
        <pt x="520" y="215" on="0"/>
        <pt x="520" y="164" on="1"/>
        <pt x="520" y="120" on="0"/>
        <pt x="475" y="54" on="0"/>
        <pt x="393" y="12" on="0"/>
        <pt x="276" y="-8" on="0"/>
      </contour>
      <contour>
        <pt x="241" y="313" on="1"/>
        <pt x="296" y="313" on="0"/>
        <pt x="338" y="340" on="0"/>
        <pt x="338" y="370" on="1"/>
        <pt x="338" y="397" on="0"/>
        <pt x="297" y="424" on="0"/>
        <pt x="258" y="424" on="1"/>
        <pt x="251" y="424" on="0"/>
        <pt x="237" y="423" on="0"/>
        <pt x="230" y="422" on="1"/>
        <pt x="230" y="313" on="1"/>
        <pt x="233" y="313" on="0"/>
        <pt x="238" y="313" on="0"/>
      </contour>
      <contour>
        <pt x="276" y="120" on="1"/>
        <pt x="317" y="120" on="0"/>
        <pt x="352" y="148" on="0"/>
        <pt x="352" y="176" on="1"/>
        <pt x="352" y="204" on="0"/>
        <pt x="309" y="227" on="0"/>
        <pt x="268" y="227" on="1"/>
        <pt x="259" y="227" on="0"/>
        <pt x="240" y="227" on="0"/>
        <pt x="230" y="226" on="1"/>
        <pt x="230" y="123" on="1"/>
        <pt x="243" y="122" on="0"/>
        <pt x="266" y="120" on="0"/>
      </contour>
    </TTGlyph>
    <TTGlyph name="C" xMin="37" yMin="-8" xMax="484" yMax="630">
      <contour>
        <pt x="484" y="141" on="1"/>
        <pt x="472" y="-6" on="1"/>
        <pt x="455" y="-7" on="0"/>
        <pt x="421" y="-8" on="0"/>
        <pt x="405" y="-8" on="1"/>
        <pt x="300" y="-8" on="0"/>
        <pt x="158" y="39" on="0"/>
        <pt x="73" y="121" on="0"/>
        <pt x="37" y="233" on="0"/>
        <pt x="37" y="297" on="1"/>
        <pt x="37" y="363" on="0"/>
        <pt x="81" y="482" on="0"/>
        <pt x="183" y="572" on="0"/>
        <pt x="349" y="627" on="0"/>
        <pt x="470" y="630" on="1"/>
        <pt x="478" y="468" on="1"/>
        <pt x="449" y="468" on="1"/>
        <pt x="374" y="468" on="0"/>
        <pt x="284" y="452" on="0"/>
        <pt x="235" y="416" on="0"/>
        <pt x="220" y="359" on="0"/>
        <pt x="220" y="319" on="1"/>
        <pt x="220" y="218" on="0"/>
        <pt x="338" y="141" on="0"/>
      </contour>
    </TTGlyph>
    <TTGlyph name="C.sc" xMin="34" yMin="-8" xMax="453" yMax="554">
      <contour>
        <pt x="453" y="129" on="1"/>
        <pt x="442" y="-5" on="1"/>
        <pt x="422" y="-6" on="0"/>
        <pt x="384" y="-8" on="0"/>
        <pt x="366" y="-8" on="1"/>
        <pt x="270" y="-8" on="0"/>
        <pt x="141" y="34" on="0"/>
        <pt x="65" y="107" on="0"/>
        <pt x="34" y="205" on="0"/>
        <pt x="34" y="260" on="1"/>
        <pt x="34" y="318" on="0"/>
        <pt x="75" y="424" on="0"/>
        <pt x="170" y="503" on="0"/>
        <pt x="326" y="552" on="0"/>
        <pt x="440" y="554" on="1"/>
        <pt x="448" y="405" on="1"/>
        <pt x="416" y="405" on="1"/>
        <pt x="350" y="405" on="0"/>
        <pt x="269" y="392" on="0"/>
        <pt x="226" y="362" on="0"/>
        <pt x="212" y="314" on="0"/>
        <pt x="212" y="280" on="1"/>
        <pt x="212" y="196" on="0"/>
        <pt x="319" y="129" on="0"/>
      </contour>
    </TTGlyph>
    <TTGlyph name="Cacute" xMin="37" yMin="-8" xMax="488" yMax="914">
      <contour>
        <pt x="163" y="738" on="1"/>
        <pt x="214" y="769" on="0"/>
        <pt x="337" y="867" on="0"/>
        <pt x="385" y="914" on="1"/>
        <pt x="488" y="789" on="1"/>
        <pt x="457" y="768" on="0"/>
        <pt x="382" y="729" on="0"/>
        <pt x="305" y="697" on="0"/>
        <pt x="228" y="673" on="0"/>
        <pt x="194" y="666" on="1"/>
      </contour>
      <contour>
        <pt x="484" y="141" on="1"/>
        <pt x="472" y="-6" on="1"/>
        <pt x="455" y="-7" on="0"/>
        <pt x="421" y="-8" on="0"/>
        <pt x="405" y="-8" on="1"/>
        <pt x="300" y="-8" on="0"/>
        <pt x="158" y="39" on="0"/>
        <pt x="73" y="121" on="0"/>
        <pt x="37" y="233" on="0"/>
        <pt x="37" y="297" on="1"/>
        <pt x="37" y="363" on="0"/>
        <pt x="81" y="482" on="0"/>
        <pt x="183" y="572" on="0"/>
        <pt x="349" y="627" on="0"/>
        <pt x="470" y="630" on="1"/>
        <pt x="478" y="468" on="1"/>
        <pt x="449" y="468" on="1"/>
        <pt x="374" y="468" on="0"/>
        <pt x="284" y="452" on="0"/>
        <pt x="235" y="416" on="0"/>
        <pt x="220" y="359" on="0"/>
        <pt x="220" y="319" on="1"/>
        <pt x="220" y="218" on="0"/>
        <pt x="338" y="141" on="0"/>
      </contour>
    </TTGlyph>
    <TTGlyph name="Cacute.sc" xMin="34" yMin="-8" xMax="461" yMax="839">
      <contour>
        <pt x="136" y="663" on="1"/>
        <pt x="187" y="694" on="0"/>
        <pt x="310" y="792" on="0"/>
        <pt x="358" y="839" on="1"/>
        <pt x="461" y="714" on="1"/>
        <pt x="430" y="693" on="0"/>
        <pt x="355" y="654" on="0"/>
        <pt x="278" y="622" on="0"/>
        <pt x="201" y="598" on="0"/>
        <pt x="167" y="591" on="1"/>
      </contour>
      <contour>
        <pt x="453" y="129" on="1"/>
        <pt x="442" y="-5" on="1"/>
        <pt x="422" y="-6" on="0"/>
        <pt x="384" y="-8" on="0"/>
        <pt x="366" y="-8" on="1"/>
        <pt x="270" y="-8" on="0"/>
        <pt x="141" y="34" on="0"/>
        <pt x="65" y="107" on="0"/>
        <pt x="34" y="205" on="0"/>
        <pt x="34" y="260" on="1"/>
        <pt x="34" y="318" on="0"/>
        <pt x="75" y="424" on="0"/>
        <pt x="170" y="503" on="0"/>
        <pt x="326" y="552" on="0"/>
        <pt x="440" y="554" on="1"/>
        <pt x="448" y="405" on="1"/>
        <pt x="416" y="405" on="1"/>
        <pt x="350" y="405" on="0"/>
        <pt x="269" y="392" on="0"/>
        <pt x="226" y="362" on="0"/>
        <pt x="212" y="314" on="0"/>
        <pt x="212" y="280" on="1"/>
        <pt x="212" y="196" on="0"/>
        <pt x="319" y="129" on="0"/>
      </contour>
    </TTGlyph>
    <TTGlyph name="Ccaron" xMin="37" yMin="-8" xMax="493" yMax="896">
      <contour>
        <pt x="315" y="667" on="1"/>
        <pt x="290" y="667" on="1"/>
        <pt x="111" y="803" on="1"/>
        <pt x="201" y="896" on="1"/>
        <pt x="314" y="807" on="1"/>
        <pt x="422" y="895" on="1"/>
        <pt x="493" y="817" on="1"/>
      </contour>
      <contour>
        <pt x="484" y="141" on="1"/>
        <pt x="472" y="-6" on="1"/>
        <pt x="455" y="-7" on="0"/>
        <pt x="421" y="-8" on="0"/>
        <pt x="405" y="-8" on="1"/>
        <pt x="300" y="-8" on="0"/>
        <pt x="158" y="39" on="0"/>
        <pt x="73" y="121" on="0"/>
        <pt x="37" y="233" on="0"/>
        <pt x="37" y="297" on="1"/>
        <pt x="37" y="363" on="0"/>
        <pt x="81" y="482" on="0"/>
        <pt x="183" y="572" on="0"/>
        <pt x="349" y="627" on="0"/>
        <pt x="470" y="630" on="1"/>
        <pt x="478" y="468" on="1"/>
        <pt x="449" y="468" on="1"/>
        <pt x="374" y="468" on="0"/>
        <pt x="284" y="452" on="0"/>
        <pt x="235" y="416" on="0"/>
        <pt x="220" y="359" on="0"/>
        <pt x="220" y="319" on="1"/>
        <pt x="220" y="218" on="0"/>
        <pt x="338" y="141" on="0"/>
      </contour>
    </TTGlyph>
    <TTGlyph name="Ccaron.sc" xMin="34" yMin="-8" xMax="466" yMax="821">
      <contour>
        <pt x="288" y="592" on="1"/>
        <pt x="263" y="592" on="1"/>
        <pt x="84" y="728" on="1"/>
        <pt x="174" y="821" on="1"/>
        <pt x="287" y="732" on="1"/>
        <pt x="395" y="820" on="1"/>
        <pt x="466" y="742" on="1"/>
      </contour>
      <contour>
        <pt x="453" y="129" on="1"/>
        <pt x="442" y="-5" on="1"/>
        <pt x="422" y="-6" on="0"/>
        <pt x="384" y="-8" on="0"/>
        <pt x="366" y="-8" on="1"/>
        <pt x="270" y="-8" on="0"/>
        <pt x="141" y="34" on="0"/>
        <pt x="65" y="107" on="0"/>
        <pt x="34" y="205" on="0"/>
        <pt x="34" y="260" on="1"/>
        <pt x="34" y="318" on="0"/>
        <pt x="75" y="424" on="0"/>
        <pt x="170" y="503" on="0"/>
        <pt x="326" y="552" on="0"/>
        <pt x="440" y="554" on="1"/>
        <pt x="448" y="405" on="1"/>
        <pt x="416" y="405" on="1"/>
        <pt x="350" y="405" on="0"/>
        <pt x="269" y="392" on="0"/>
        <pt x="226" y="362" on="0"/>
        <pt x="212" y="314" on="0"/>
        <pt x="212" y="280" on="1"/>
        <pt x="212" y="196" on="0"/>
        <pt x="319" y="129" on="0"/>
      </contour>
    </TTGlyph>
    <TTGlyph name="Ccedilla" xMin="37" yMin="-267" xMax="484" yMax="630">
      <contour>
        <pt x="484" y="141" on="1"/>
        <pt x="472" y="-6" on="1"/>
        <pt x="455" y="-7" on="0"/>
        <pt x="421" y="-8" on="0"/>
        <pt x="405" y="-8" on="1"/>
        <pt x="300" y="-8" on="0"/>
        <pt x="158" y="39" on="0"/>
        <pt x="73" y="121" on="0"/>
        <pt x="37" y="233" on="0"/>
        <pt x="37" y="297" on="1"/>
        <pt x="37" y="363" on="0"/>
        <pt x="81" y="482" on="0"/>
        <pt x="183" y="572" on="0"/>
        <pt x="349" y="627" on="0"/>
        <pt x="470" y="630" on="1"/>
        <pt x="478" y="468" on="1"/>
        <pt x="449" y="468" on="1"/>
        <pt x="374" y="468" on="0"/>
        <pt x="284" y="452" on="0"/>
        <pt x="235" y="416" on="0"/>
        <pt x="220" y="359" on="0"/>
        <pt x="220" y="319" on="1"/>
        <pt x="220" y="218" on="0"/>
        <pt x="338" y="141" on="0"/>
      </contour>
      <contour>
        <pt x="210" y="-95" on="1"/>
        <pt x="235" y="-23" on="1"/>
        <pt x="331" y="-46" on="0"/>
        <pt x="411" y="-114" on="0"/>
        <pt x="411" y="-156" on="1"/>
        <pt x="411" y="-202" on="0"/>
        <pt x="314" y="-267" on="0"/>
        <pt x="217" y="-267" on="1"/>
        <pt x="210" y="-267" on="0"/>
        <pt x="197" y="-266" on="0"/>
        <pt x="190" y="-266" on="1"/>
        <pt x="188" y="-152" on="1"/>
        <pt x="201" y="-153" on="0"/>
        <pt x="224" y="-153" on="0"/>
        <pt x="234" y="-153" on="1"/>
        <pt x="269" y="-153" on="0"/>
        <pt x="298" y="-145" on="0"/>
        <pt x="298" y="-136" on="1"/>
        <pt x="298" y="-126" on="0"/>
        <pt x="256" y="-107" on="0"/>
      </contour>
    </TTGlyph>
    <TTGlyph name="Ccedilla.sc" xMin="34" yMin="-266" xMax="453" yMax="554">
      <contour>
        <pt x="453" y="129" on="1"/>
        <pt x="442" y="-5" on="1"/>
        <pt x="422" y="-6" on="0"/>
        <pt x="384" y="-8" on="0"/>
        <pt x="366" y="-8" on="1"/>
        <pt x="270" y="-8" on="0"/>
        <pt x="141" y="34" on="0"/>
        <pt x="65" y="107" on="0"/>
        <pt x="34" y="205" on="0"/>
        <pt x="34" y="260" on="1"/>
        <pt x="34" y="318" on="0"/>
        <pt x="75" y="424" on="0"/>
        <pt x="170" y="503" on="0"/>
        <pt x="326" y="552" on="0"/>
        <pt x="440" y="554" on="1"/>
        <pt x="448" y="405" on="1"/>
        <pt x="416" y="405" on="1"/>
        <pt x="350" y="405" on="0"/>
        <pt x="269" y="392" on="0"/>
        <pt x="226" y="362" on="0"/>
        <pt x="212" y="314" on="0"/>
        <pt x="212" y="280" on="1"/>
        <pt x="212" y="196" on="0"/>
        <pt x="319" y="129" on="0"/>
      </contour>
      <contour>
        <pt x="180" y="-94" on="1"/>
        <pt x="205" y="-22" on="1"/>
        <pt x="301" y="-45" on="0"/>
        <pt x="381" y="-113" on="0"/>
        <pt x="381" y="-155" on="1"/>
        <pt x="381" y="-201" on="0"/>
        <pt x="284" y="-266" on="0"/>
        <pt x="187" y="-266" on="1"/>
        <pt x="180" y="-266" on="0"/>
        <pt x="167" y="-265" on="0"/>
        <pt x="160" y="-265" on="1"/>
        <pt x="158" y="-151" on="1"/>
        <pt x="171" y="-152" on="0"/>
        <pt x="194" y="-152" on="0"/>
        <pt x="204" y="-152" on="1"/>
        <pt x="239" y="-152" on="0"/>
        <pt x="268" y="-144" on="0"/>
        <pt x="268" y="-135" on="1"/>
        <pt x="268" y="-125" on="0"/>
        <pt x="226" y="-106" on="0"/>
      </contour>
    </TTGlyph>
    <TTGlyph name="Cdotaccent" xMin="37" yMin="-8" xMax="484" yMax="845">
      <contour>
        <pt x="388" y="687" on="1"/>
        <pt x="213" y="687" on="1"/>
        <pt x="218" y="845" on="1"/>
        <pt x="393" y="845" on="1"/>
      </contour>
      <contour>
        <pt x="484" y="141" on="1"/>
        <pt x="472" y="-6" on="1"/>
        <pt x="455" y="-7" on="0"/>
        <pt x="421" y="-8" on="0"/>
        <pt x="405" y="-8" on="1"/>
        <pt x="300" y="-8" on="0"/>
        <pt x="158" y="39" on="0"/>
        <pt x="73" y="121" on="0"/>
        <pt x="37" y="233" on="0"/>
        <pt x="37" y="297" on="1"/>
        <pt x="37" y="363" on="0"/>
        <pt x="81" y="482" on="0"/>
        <pt x="183" y="572" on="0"/>
        <pt x="349" y="627" on="0"/>
        <pt x="470" y="630" on="1"/>
        <pt x="478" y="468" on="1"/>
        <pt x="449" y="468" on="1"/>
        <pt x="374" y="468" on="0"/>
        <pt x="284" y="452" on="0"/>
        <pt x="235" y="416" on="0"/>
        <pt x="220" y="359" on="0"/>
        <pt x="220" y="319" on="1"/>
        <pt x="220" y="218" on="0"/>
        <pt x="338" y="141" on="0"/>
      </contour>
    </TTGlyph>
    <TTGlyph name="Cdotaccent.sc" xMin="34" yMin="-8" xMax="453" yMax="770">
      <contour>
        <pt x="361" y="612" on="1"/>
        <pt x="186" y="612" on="1"/>
        <pt x="191" y="770" on="1"/>
        <pt x="366" y="770" on="1"/>
      </contour>
      <contour>
        <pt x="453" y="129" on="1"/>
        <pt x="442" y="-5" on="1"/>
        <pt x="422" y="-6" on="0"/>
        <pt x="384" y="-8" on="0"/>
        <pt x="366" y="-8" on="1"/>
        <pt x="270" y="-8" on="0"/>
        <pt x="141" y="34" on="0"/>
        <pt x="65" y="107" on="0"/>
        <pt x="34" y="205" on="0"/>
        <pt x="34" y="260" on="1"/>
        <pt x="34" y="318" on="0"/>
        <pt x="75" y="424" on="0"/>
        <pt x="170" y="503" on="0"/>
        <pt x="326" y="552" on="0"/>
        <pt x="440" y="554" on="1"/>
        <pt x="448" y="405" on="1"/>
        <pt x="416" y="405" on="1"/>
        <pt x="350" y="405" on="0"/>
        <pt x="269" y="392" on="0"/>
        <pt x="226" y="362" on="0"/>
        <pt x="212" y="314" on="0"/>
        <pt x="212" y="280" on="1"/>
        <pt x="212" y="196" on="0"/>
        <pt x="319" y="129" on="0"/>
      </contour>
    </TTGlyph>
    <TTGlyph name="D" xMin="68" yMin="-8" xMax="591" yMax="628">
      <contour>
        <pt x="591" y="323" on="1"/>
        <pt x="591" y="170" on="0"/>
        <pt x="388" y="-8" on="0"/>
        <pt x="192" y="-8" on="1"/>
        <pt x="164" y="-8" on="0"/>
        <pt x="101" y="-4" on="0"/>
        <pt x="68" y="0" on="1"/>
        <pt x="68" y="620" on="1"/>
        <pt x="108" y="624" on="0"/>
        <pt x="181" y="628" on="0"/>
        <pt x="215" y="628" on="1"/>
        <pt x="412" y="628" on="0"/>
        <pt x="591" y="477" on="0"/>
      </contour>
      <contour>
        <pt x="417" y="304" on="1"/>
        <pt x="417" y="392" on="0"/>
        <pt x="346" y="486" on="0"/>
        <pt x="265" y="486" on="1"/>
        <pt x="259" y="486" on="0"/>
        <pt x="247" y="486" on="0"/>
        <pt x="240" y="485" on="1"/>
        <pt x="240" y="138" on="1"/>
        <pt x="251" y="137" on="0"/>
        <pt x="271" y="135" on="0"/>
        <pt x="281" y="135" on="1"/>
        <pt x="354" y="135" on="0"/>
        <pt x="417" y="217" on="0"/>
      </contour>
    </TTGlyph>
    <TTGlyph name="D.sc" xMin="62" yMin="-8" xMax="553" yMax="552">
      <contour>
        <pt x="553" y="284" on="1"/>
        <pt x="553" y="150" on="0"/>
        <pt x="366" y="-8" on="0"/>
        <pt x="183" y="-8" on="1"/>
        <pt x="155" y="-8" on="0"/>
        <pt x="94" y="-4" on="0"/>
        <pt x="62" y="0" on="1"/>
        <pt x="62" y="544" on="1"/>
        <pt x="101" y="548" on="0"/>
        <pt x="173" y="552" on="0"/>
        <pt x="205" y="552" on="1"/>
        <pt x="386" y="552" on="0"/>
        <pt x="553" y="418" on="0"/>
      </contour>
      <contour>
        <pt x="382" y="268" on="1"/>
        <pt x="382" y="343" on="0"/>
        <pt x="320" y="422" on="0"/>
        <pt x="249" y="422" on="1"/>
        <pt x="245" y="422" on="0"/>
        <pt x="235" y="421" on="0"/>
        <pt x="231" y="421" on="1"/>
        <pt x="231" y="127" on="1"/>
        <pt x="241" y="126" on="0"/>
        <pt x="259" y="125" on="0"/>
        <pt x="267" y="125" on="1"/>
        <pt x="328" y="125" on="0"/>
        <pt x="382" y="193" on="0"/>
      </contour>
    </TTGlyph>
    <TTGlyph name="Dcaron" xMin="68" yMin="-8" xMax="591" yMax="899">
      <contour>
        <pt x="313" y="670" on="1"/>
        <pt x="288" y="670" on="1"/>
        <pt x="109" y="806" on="1"/>
        <pt x="199" y="899" on="1"/>
        <pt x="312" y="810" on="1"/>
        <pt x="420" y="898" on="1"/>
        <pt x="491" y="820" on="1"/>
      </contour>
      <contour>
        <pt x="591" y="323" on="1"/>
        <pt x="591" y="170" on="0"/>
        <pt x="388" y="-8" on="0"/>
        <pt x="192" y="-8" on="1"/>
        <pt x="164" y="-8" on="0"/>
        <pt x="101" y="-4" on="0"/>
        <pt x="68" y="0" on="1"/>
        <pt x="68" y="620" on="1"/>
        <pt x="108" y="624" on="0"/>
        <pt x="181" y="628" on="0"/>
        <pt x="215" y="628" on="1"/>
        <pt x="412" y="628" on="0"/>
        <pt x="591" y="477" on="0"/>
      </contour>
      <contour>
        <pt x="417" y="304" on="1"/>
        <pt x="417" y="392" on="0"/>
        <pt x="346" y="486" on="0"/>
        <pt x="265" y="486" on="1"/>
        <pt x="259" y="486" on="0"/>
        <pt x="247" y="486" on="0"/>
        <pt x="240" y="485" on="1"/>
        <pt x="240" y="138" on="1"/>
        <pt x="251" y="137" on="0"/>
        <pt x="271" y="135" on="0"/>
        <pt x="281" y="135" on="1"/>
        <pt x="354" y="135" on="0"/>
        <pt x="417" y="217" on="0"/>
      </contour>
    </TTGlyph>
    <TTGlyph name="Dcaron.sc" xMin="62" yMin="-8" xMax="553" yMax="823">
      <contour>
        <pt x="292" y="594" on="1"/>
        <pt x="267" y="594" on="1"/>
        <pt x="88" y="730" on="1"/>
        <pt x="178" y="823" on="1"/>
        <pt x="291" y="734" on="1"/>
        <pt x="399" y="822" on="1"/>
        <pt x="470" y="744" on="1"/>
      </contour>
      <contour>
        <pt x="553" y="284" on="1"/>
        <pt x="553" y="150" on="0"/>
        <pt x="366" y="-8" on="0"/>
        <pt x="183" y="-8" on="1"/>
        <pt x="155" y="-8" on="0"/>
        <pt x="94" y="-4" on="0"/>
        <pt x="62" y="0" on="1"/>
        <pt x="62" y="544" on="1"/>
        <pt x="101" y="548" on="0"/>
        <pt x="173" y="552" on="0"/>
        <pt x="205" y="552" on="1"/>
        <pt x="386" y="552" on="0"/>
        <pt x="553" y="418" on="0"/>
      </contour>
      <contour>
        <pt x="382" y="268" on="1"/>
        <pt x="382" y="343" on="0"/>
        <pt x="320" y="422" on="0"/>
        <pt x="249" y="422" on="1"/>
        <pt x="245" y="422" on="0"/>
        <pt x="235" y="421" on="0"/>
        <pt x="231" y="421" on="1"/>
        <pt x="231" y="127" on="1"/>
        <pt x="241" y="126" on="0"/>
        <pt x="259" y="125" on="0"/>
        <pt x="267" y="125" on="1"/>
        <pt x="328" y="125" on="0"/>
        <pt x="382" y="193" on="0"/>
      </contour>
    </TTGlyph>
    <TTGlyph name="Dcroat" xMin="11" yMin="-8" xMax="591" yMax="628">
      <contour>
        <pt x="192" y="-8" on="1"/>
        <pt x="164" y="-8" on="0"/>
        <pt x="101" y="-4" on="0"/>
        <pt x="68" y="0" on="1"/>
        <pt x="68" y="260" on="1"/>
        <pt x="11" y="260" on="1"/>
        <pt x="11" y="364" on="1"/>
        <pt x="68" y="364" on="1"/>
        <pt x="68" y="620" on="1"/>
        <pt x="108" y="624" on="0"/>
        <pt x="181" y="628" on="0"/>
        <pt x="215" y="628" on="1"/>
        <pt x="412" y="628" on="0"/>
        <pt x="591" y="477" on="0"/>
        <pt x="591" y="323" on="1"/>
        <pt x="591" y="170" on="0"/>
        <pt x="388" y="-8" on="0"/>
      </contour>
      <contour>
        <pt x="281" y="132" on="1"/>
        <pt x="355" y="132" on="0"/>
        <pt x="421" y="214" on="0"/>
        <pt x="421" y="304" on="1"/>
        <pt x="421" y="394" on="0"/>
        <pt x="346" y="489" on="0"/>
        <pt x="264" y="489" on="1"/>
        <pt x="258" y="489" on="0"/>
        <pt x="244" y="489" on="0"/>
        <pt x="237" y="488" on="1"/>
        <pt x="237" y="364" on="1"/>
        <pt x="336" y="364" on="1"/>
        <pt x="330" y="260" on="1"/>
        <pt x="237" y="260" on="1"/>
        <pt x="237" y="135" on="1"/>
        <pt x="249" y="134" on="0"/>
        <pt x="271" y="132" on="0"/>
      </contour>
    </TTGlyph>
    <TTGlyph name="Dcroat.sc" xMin="9" yMin="-9" xMax="553" yMax="553">
      <contour>
        <pt x="186" y="-9" on="1"/>
        <pt x="158" y="-9" on="0"/>
        <pt x="95" y="-4" on="0"/>
        <pt x="62" y="0" on="1"/>
        <pt x="62" y="226" on="1"/>
        <pt x="9" y="226" on="1"/>
        <pt x="9" y="322" on="1"/>
        <pt x="62" y="322" on="1"/>
        <pt x="62" y="544" on="1"/>
        <pt x="102" y="548" on="0"/>
        <pt x="175" y="553" on="0"/>
        <pt x="208" y="553" on="1"/>
        <pt x="387" y="553" on="0"/>
        <pt x="553" y="418" on="0"/>
        <pt x="553" y="284" on="1"/>
        <pt x="553" y="150" on="0"/>
        <pt x="367" y="-9" on="0"/>
      </contour>
      <contour>
        <pt x="266" y="121" on="1"/>
        <pt x="328" y="121" on="0"/>
        <pt x="384" y="192" on="0"/>
        <pt x="384" y="268" on="1"/>
        <pt x="384" y="346" on="0"/>
        <pt x="320" y="425" on="0"/>
        <pt x="249" y="425" on="1"/>
        <pt x="244" y="425" on="0"/>
        <pt x="233" y="425" on="0"/>
        <pt x="228" y="424" on="1"/>
        <pt x="228" y="322" on="1"/>
        <pt x="308" y="322" on="1"/>
        <pt x="303" y="226" on="1"/>
        <pt x="228" y="226" on="1"/>
        <pt x="228" y="124" on="1"/>
        <pt x="238" y="123" on="0"/>
        <pt x="257" y="121" on="0"/>
      </contour>
    </TTGlyph>
    <TTGlyph name="E" xMin="68" yMin="0" xMax="483" yMax="620">
      <contour>
        <pt x="483" y="142" on="1"/>
        <pt x="472" y="0" on="1"/>
        <pt x="68" y="0" on="1"/>
        <pt x="68" y="620" on="1"/>
        <pt x="476" y="620" on="1"/>
        <pt x="476" y="478" on="1"/>
        <pt x="243" y="478" on="1"/>
        <pt x="243" y="367" on="1"/>
        <pt x="433" y="367" on="1"/>
        <pt x="433" y="255" on="1"/>
        <pt x="243" y="255" on="1"/>
        <pt x="243" y="142" on="1"/>
      </contour>
    </TTGlyph>
    <TTGlyph name="E.sc" xMin="62" yMin="0" xMax="453" yMax="544">
      <contour>
        <pt x="453" y="131" on="1"/>
        <pt x="442" y="0" on="1"/>
        <pt x="62" y="0" on="1"/>
        <pt x="62" y="544" on="1"/>
        <pt x="446" y="544" on="1"/>
        <pt x="446" y="414" on="1"/>
        <pt x="234" y="414" on="1"/>
        <pt x="234" y="324" on="1"/>
        <pt x="406" y="324" on="1"/>
        <pt x="406" y="222" on="1"/>
        <pt x="234" y="222" on="1"/>
        <pt x="234" y="131" on="1"/>
      </contour>
    </TTGlyph>
    <TTGlyph name="Eacute" xMin="68" yMin="0" xMax="483" yMax="913">
      <contour>
        <pt x="134" y="737" on="1"/>
        <pt x="185" y="768" on="0"/>
        <pt x="308" y="866" on="0"/>
        <pt x="356" y="913" on="1"/>
        <pt x="459" y="788" on="1"/>
        <pt x="428" y="767" on="0"/>
        <pt x="353" y="728" on="0"/>
        <pt x="276" y="696" on="0"/>
        <pt x="199" y="672" on="0"/>
        <pt x="165" y="665" on="1"/>
      </contour>
      <contour>
        <pt x="483" y="142" on="1"/>
        <pt x="472" y="0" on="1"/>
        <pt x="68" y="0" on="1"/>
        <pt x="68" y="620" on="1"/>
        <pt x="476" y="620" on="1"/>
        <pt x="476" y="478" on="1"/>
        <pt x="243" y="478" on="1"/>
        <pt x="243" y="367" on="1"/>
        <pt x="433" y="367" on="1"/>
        <pt x="433" y="255" on="1"/>
        <pt x="243" y="255" on="1"/>
        <pt x="243" y="142" on="1"/>
      </contour>
    </TTGlyph>
    <TTGlyph name="Eacute.sc" xMin="62" yMin="0" xMax="453" yMax="837">
      <contour>
        <pt x="115" y="661" on="1"/>
        <pt x="166" y="692" on="0"/>
        <pt x="289" y="790" on="0"/>
        <pt x="337" y="837" on="1"/>
        <pt x="440" y="712" on="1"/>
        <pt x="409" y="691" on="0"/>
        <pt x="334" y="652" on="0"/>
        <pt x="257" y="620" on="0"/>
        <pt x="180" y="596" on="0"/>
        <pt x="146" y="589" on="1"/>
      </contour>
      <contour>
        <pt x="453" y="131" on="1"/>
        <pt x="442" y="0" on="1"/>
        <pt x="62" y="0" on="1"/>
        <pt x="62" y="544" on="1"/>
        <pt x="446" y="544" on="1"/>
        <pt x="446" y="414" on="1"/>
        <pt x="234" y="414" on="1"/>
        <pt x="234" y="324" on="1"/>
        <pt x="406" y="324" on="1"/>
        <pt x="406" y="222" on="1"/>
        <pt x="234" y="222" on="1"/>
        <pt x="234" y="131" on="1"/>
      </contour>
    </TTGlyph>
    <TTGlyph name="Ebreve" xMin="68" yMin="0" xMax="483" yMax="884">
      <contour>
        <pt x="271" y="670" on="1"/>
        <pt x="208" y="670" on="0"/>
        <pt x="107" y="752" on="0"/>
        <pt x="72" y="824" on="1"/>
        <pt x="176" y="884" on="1"/>
        <pt x="203" y="842" on="0"/>
        <pt x="255" y="802" on="0"/>
        <pt x="283" y="802" on="1"/>
        <pt x="313" y="802" on="0"/>
        <pt x="363" y="843" on="0"/>
        <pt x="388" y="881" on="1"/>
        <pt x="475" y="838" on="1"/>
        <pt x="438" y="763" on="0"/>
        <pt x="335" y="670" on="0"/>
      </contour>
      <contour>
        <pt x="483" y="142" on="1"/>
        <pt x="472" y="0" on="1"/>
        <pt x="68" y="0" on="1"/>
        <pt x="68" y="620" on="1"/>
        <pt x="476" y="620" on="1"/>
        <pt x="476" y="478" on="1"/>
        <pt x="243" y="478" on="1"/>
        <pt x="243" y="367" on="1"/>
        <pt x="433" y="367" on="1"/>
        <pt x="433" y="255" on="1"/>
        <pt x="243" y="255" on="1"/>
        <pt x="243" y="142" on="1"/>
      </contour>
    </TTGlyph>
    <TTGlyph name="Ebreve.sc" xMin="53" yMin="0" xMax="456" yMax="808">
      <contour>
        <pt x="252" y="594" on="1"/>
        <pt x="189" y="594" on="0"/>
        <pt x="88" y="676" on="0"/>
        <pt x="53" y="748" on="1"/>
        <pt x="157" y="808" on="1"/>
        <pt x="184" y="766" on="0"/>
        <pt x="236" y="726" on="0"/>
        <pt x="264" y="726" on="1"/>
        <pt x="294" y="726" on="0"/>
        <pt x="344" y="767" on="0"/>
        <pt x="369" y="805" on="1"/>
        <pt x="456" y="762" on="1"/>
        <pt x="419" y="687" on="0"/>
        <pt x="316" y="594" on="0"/>
      </contour>
      <contour>
        <pt x="453" y="131" on="1"/>
        <pt x="442" y="0" on="1"/>
        <pt x="62" y="0" on="1"/>
        <pt x="62" y="544" on="1"/>
        <pt x="446" y="544" on="1"/>
        <pt x="446" y="414" on="1"/>
        <pt x="234" y="414" on="1"/>
        <pt x="234" y="324" on="1"/>
        <pt x="406" y="324" on="1"/>
        <pt x="406" y="222" on="1"/>
        <pt x="234" y="222" on="1"/>
        <pt x="234" y="131" on="1"/>
      </contour>
    </TTGlyph>
    <TTGlyph name="Ecaron" xMin="68" yMin="0" xMax="483" yMax="891">
      <contour>
        <pt x="286" y="662" on="1"/>
        <pt x="261" y="662" on="1"/>
        <pt x="82" y="798" on="1"/>
        <pt x="172" y="891" on="1"/>
        <pt x="285" y="802" on="1"/>
        <pt x="393" y="890" on="1"/>
        <pt x="464" y="812" on="1"/>
      </contour>
      <contour>
        <pt x="483" y="142" on="1"/>
        <pt x="472" y="0" on="1"/>
        <pt x="68" y="0" on="1"/>
        <pt x="68" y="620" on="1"/>
        <pt x="476" y="620" on="1"/>
        <pt x="476" y="478" on="1"/>
        <pt x="243" y="478" on="1"/>
        <pt x="243" y="367" on="1"/>
        <pt x="433" y="367" on="1"/>
        <pt x="433" y="255" on="1"/>
        <pt x="243" y="255" on="1"/>
        <pt x="243" y="142" on="1"/>
      </contour>
    </TTGlyph>
    <TTGlyph name="Ecaron.sc" xMin="62" yMin="0" xMax="453" yMax="815">
      <contour>
        <pt x="267" y="586" on="1"/>
        <pt x="242" y="586" on="1"/>
        <pt x="63" y="722" on="1"/>
        <pt x="153" y="815" on="1"/>
        <pt x="266" y="726" on="1"/>
        <pt x="374" y="814" on="1"/>
        <pt x="445" y="736" on="1"/>
      </contour>
      <contour>
        <pt x="453" y="131" on="1"/>
        <pt x="442" y="0" on="1"/>
        <pt x="62" y="0" on="1"/>
        <pt x="62" y="544" on="1"/>
        <pt x="446" y="544" on="1"/>
        <pt x="446" y="414" on="1"/>
        <pt x="234" y="414" on="1"/>
        <pt x="234" y="324" on="1"/>
        <pt x="406" y="324" on="1"/>
        <pt x="406" y="222" on="1"/>
        <pt x="234" y="222" on="1"/>
        <pt x="234" y="131" on="1"/>
      </contour>
    </TTGlyph>
    <TTGlyph name="Ecircumflex" xMin="68" yMin="0" xMax="483" yMax="894">
      <contour>
        <pt x="376" y="665" on="1"/>
        <pt x="263" y="754" on="1"/>
        <pt x="154" y="666" on="1"/>
        <pt x="84" y="744" on="1"/>
        <pt x="261" y="894" on="1"/>
        <pt x="287" y="894" on="1"/>
        <pt x="466" y="758" on="1"/>
      </contour>
      <contour>
        <pt x="483" y="142" on="1"/>
        <pt x="472" y="0" on="1"/>
        <pt x="68" y="0" on="1"/>
        <pt x="68" y="620" on="1"/>
        <pt x="476" y="620" on="1"/>
        <pt x="476" y="478" on="1"/>
        <pt x="243" y="478" on="1"/>
        <pt x="243" y="367" on="1"/>
        <pt x="433" y="367" on="1"/>
        <pt x="433" y="255" on="1"/>
        <pt x="243" y="255" on="1"/>
        <pt x="243" y="142" on="1"/>
      </contour>
    </TTGlyph>
    <TTGlyph name="Ecircumflex.sc" xMin="62" yMin="0" xMax="453" yMax="818">
      <contour>
        <pt x="358" y="589" on="1"/>
        <pt x="245" y="678" on="1"/>
        <pt x="136" y="590" on="1"/>
        <pt x="66" y="668" on="1"/>
        <pt x="243" y="818" on="1"/>
        <pt x="269" y="818" on="1"/>
        <pt x="448" y="682" on="1"/>
      </contour>
      <contour>
        <pt x="453" y="131" on="1"/>
        <pt x="442" y="0" on="1"/>
        <pt x="62" y="0" on="1"/>
        <pt x="62" y="544" on="1"/>
        <pt x="446" y="544" on="1"/>
        <pt x="446" y="414" on="1"/>
        <pt x="234" y="414" on="1"/>
        <pt x="234" y="324" on="1"/>
        <pt x="406" y="324" on="1"/>
        <pt x="406" y="222" on="1"/>
        <pt x="234" y="222" on="1"/>
        <pt x="234" y="131" on="1"/>
      </contour>
    </TTGlyph>
    <TTGlyph name="Edieresis" xMin="68" yMin="0" xMax="483" yMax="840">
      <contour>
        <pt x="463" y="682" on="1"/>
        <pt x="301" y="682" on="1"/>
        <pt x="304" y="840" on="1"/>
        <pt x="466" y="840" on="1"/>
      </contour>
      <contour>
        <pt x="238" y="682" on="1"/>
        <pt x="77" y="682" on="1"/>
        <pt x="80" y="840" on="1"/>
        <pt x="241" y="840" on="1"/>
      </contour>
      <contour>
        <pt x="483" y="142" on="1"/>
        <pt x="472" y="0" on="1"/>
        <pt x="68" y="0" on="1"/>
        <pt x="68" y="620" on="1"/>
        <pt x="476" y="620" on="1"/>
        <pt x="476" y="478" on="1"/>
        <pt x="243" y="478" on="1"/>
        <pt x="243" y="367" on="1"/>
        <pt x="433" y="367" on="1"/>
        <pt x="433" y="255" on="1"/>
        <pt x="243" y="255" on="1"/>
        <pt x="243" y="142" on="1"/>
      </contour>
    </TTGlyph>
    <TTGlyph name="Edieresis.sc" xMin="58" yMin="0" xMax="453" yMax="764">
      <contour>
        <pt x="444" y="606" on="1"/>
        <pt x="282" y="606" on="1"/>
        <pt x="285" y="764" on="1"/>
        <pt x="447" y="764" on="1"/>
      </contour>
      <contour>
        <pt x="219" y="606" on="1"/>
        <pt x="58" y="606" on="1"/>
        <pt x="61" y="764" on="1"/>
        <pt x="222" y="764" on="1"/>
      </contour>
      <contour>
        <pt x="453" y="131" on="1"/>
        <pt x="442" y="0" on="1"/>
        <pt x="62" y="0" on="1"/>
        <pt x="62" y="544" on="1"/>
        <pt x="446" y="544" on="1"/>
        <pt x="446" y="414" on="1"/>
        <pt x="234" y="414" on="1"/>
        <pt x="234" y="324" on="1"/>
        <pt x="406" y="324" on="1"/>
        <pt x="406" y="222" on="1"/>
        <pt x="234" y="222" on="1"/>
        <pt x="234" y="131" on="1"/>
      </contour>
    </TTGlyph>
    <TTGlyph name="Edotaccent" xMin="68" yMin="0" xMax="483" yMax="840">
      <contour>
        <pt x="358" y="682" on="1"/>
        <pt x="183" y="682" on="1"/>
        <pt x="188" y="840" on="1"/>
        <pt x="363" y="840" on="1"/>
      </contour>
      <contour>
        <pt x="483" y="142" on="1"/>
        <pt x="472" y="0" on="1"/>
        <pt x="68" y="0" on="1"/>
        <pt x="68" y="620" on="1"/>
        <pt x="476" y="620" on="1"/>
        <pt x="476" y="478" on="1"/>
        <pt x="243" y="478" on="1"/>
        <pt x="243" y="367" on="1"/>
        <pt x="433" y="367" on="1"/>
        <pt x="433" y="255" on="1"/>
        <pt x="243" y="255" on="1"/>
        <pt x="243" y="142" on="1"/>
      </contour>
    </TTGlyph>
    <TTGlyph name="Edotaccent.sc" xMin="62" yMin="0" xMax="453" yMax="764">
      <contour>
        <pt x="340" y="606" on="1"/>
        <pt x="165" y="606" on="1"/>
        <pt x="170" y="764" on="1"/>
        <pt x="345" y="764" on="1"/>
      </contour>
      <contour>
        <pt x="453" y="131" on="1"/>
        <pt x="442" y="0" on="1"/>
        <pt x="62" y="0" on="1"/>
        <pt x="62" y="544" on="1"/>
        <pt x="446" y="544" on="1"/>
        <pt x="446" y="414" on="1"/>
        <pt x="234" y="414" on="1"/>
        <pt x="234" y="324" on="1"/>
        <pt x="406" y="324" on="1"/>
        <pt x="406" y="222" on="1"/>
        <pt x="234" y="222" on="1"/>
        <pt x="234" y="131" on="1"/>
      </contour>
    </TTGlyph>
    <TTGlyph name="Egrave" xMin="68" yMin="0" xMax="483" yMax="914">
      <contour>
        <pt x="402" y="736" on="1"/>
        <pt x="367" y="665" on="1"/>
        <pt x="334" y="673" on="0"/>
        <pt x="259" y="698" on="0"/>
        <pt x="184" y="729" on="0"/>
        <pt x="110" y="766" on="0"/>
        <pt x="79" y="785" on="1"/>
        <pt x="174" y="914" on="1"/>
        <pt x="198" y="893" on="0"/>
        <pt x="257" y="844" on="0"/>
        <pt x="318" y="796" on="0"/>
        <pt x="377" y="752" on="0"/>
      </contour>
      <contour>
        <pt x="483" y="142" on="1"/>
        <pt x="472" y="0" on="1"/>
        <pt x="68" y="0" on="1"/>
        <pt x="68" y="620" on="1"/>
        <pt x="476" y="620" on="1"/>
        <pt x="476" y="478" on="1"/>
        <pt x="243" y="478" on="1"/>
        <pt x="243" y="367" on="1"/>
        <pt x="433" y="367" on="1"/>
        <pt x="433" y="255" on="1"/>
        <pt x="243" y="255" on="1"/>
        <pt x="243" y="142" on="1"/>
      </contour>
    </TTGlyph>
    <TTGlyph name="Egrave.sc" xMin="61" yMin="0" xMax="453" yMax="838">
      <contour>
        <pt x="384" y="660" on="1"/>
        <pt x="349" y="589" on="1"/>
        <pt x="316" y="597" on="0"/>
        <pt x="241" y="622" on="0"/>
        <pt x="166" y="653" on="0"/>
        <pt x="92" y="690" on="0"/>
        <pt x="61" y="709" on="1"/>
        <pt x="156" y="838" on="1"/>
        <pt x="180" y="817" on="0"/>
        <pt x="239" y="768" on="0"/>
        <pt x="300" y="720" on="0"/>
        <pt x="359" y="676" on="0"/>
      </contour>
      <contour>
        <pt x="453" y="131" on="1"/>
        <pt x="442" y="0" on="1"/>
        <pt x="62" y="0" on="1"/>
        <pt x="62" y="544" on="1"/>
        <pt x="446" y="544" on="1"/>
        <pt x="446" y="414" on="1"/>
        <pt x="234" y="414" on="1"/>
        <pt x="234" y="324" on="1"/>
        <pt x="406" y="324" on="1"/>
        <pt x="406" y="222" on="1"/>
        <pt x="234" y="222" on="1"/>
        <pt x="234" y="131" on="1"/>
      </contour>
    </TTGlyph>
    <TTGlyph name="Emacron" xMin="68" yMin="0" xMax="483" yMax="832">
      <contour>
        <pt x="449" y="832" on="1"/>
        <pt x="449" y="691" on="1"/>
        <pt x="91" y="691" on="1"/>
        <pt x="91" y="832" on="1"/>
      </contour>
      <contour>
        <pt x="483" y="142" on="1"/>
        <pt x="472" y="0" on="1"/>
        <pt x="68" y="0" on="1"/>
        <pt x="68" y="620" on="1"/>
        <pt x="476" y="620" on="1"/>
        <pt x="476" y="478" on="1"/>
        <pt x="243" y="478" on="1"/>
        <pt x="243" y="367" on="1"/>
        <pt x="433" y="367" on="1"/>
        <pt x="433" y="255" on="1"/>
        <pt x="243" y="255" on="1"/>
        <pt x="243" y="142" on="1"/>
      </contour>
    </TTGlyph>
    <TTGlyph name="Emacron.sc" xMin="62" yMin="0" xMax="453" yMax="756">
      <contour>
        <pt x="430" y="756" on="1"/>
        <pt x="430" y="615" on="1"/>
        <pt x="72" y="615" on="1"/>
        <pt x="72" y="756" on="1"/>
      </contour>
      <contour>
        <pt x="453" y="131" on="1"/>
        <pt x="442" y="0" on="1"/>
        <pt x="62" y="0" on="1"/>
        <pt x="62" y="544" on="1"/>
        <pt x="446" y="544" on="1"/>
        <pt x="446" y="414" on="1"/>
        <pt x="234" y="414" on="1"/>
        <pt x="234" y="324" on="1"/>
        <pt x="406" y="324" on="1"/>
        <pt x="406" y="222" on="1"/>
        <pt x="234" y="222" on="1"/>
        <pt x="234" y="131" on="1"/>
      </contour>
    </TTGlyph>
    <TTGlyph name="Eogonek" xMin="68" yMin="-240" xMax="483" yMax="620">
      <contour>
        <pt x="460" y="-114" on="1"/>
        <pt x="448" y="-240" on="1"/>
        <pt x="311" y="-231" on="0"/>
        <pt x="210" y="-162" on="0"/>
        <pt x="210" y="-119" on="1"/>
        <pt x="210" y="-87" on="0"/>
        <pt x="256" y="-28" on="0"/>
        <pt x="307" y="0" on="1"/>
        <pt x="68" y="0" on="1"/>
        <pt x="68" y="620" on="1"/>
        <pt x="476" y="620" on="1"/>
        <pt x="476" y="478" on="1"/>
        <pt x="243" y="478" on="1"/>
        <pt x="243" y="367" on="1"/>
        <pt x="433" y="367" on="1"/>
        <pt x="433" y="255" on="1"/>
        <pt x="243" y="255" on="1"/>
        <pt x="243" y="142" on="1"/>
        <pt x="483" y="142" on="1"/>
        <pt x="472" y="0" on="1"/>
        <pt x="397" y="-27" on="0"/>
        <pt x="347" y="-63" on="0"/>
        <pt x="347" y="-77" on="1"/>
        <pt x="347" y="-93" on="0"/>
        <pt x="402" y="-109" on="0"/>
      </contour>
    </TTGlyph>
    <TTGlyph name="Eogonek.sc" xMin="62" yMin="-240" xMax="453" yMax="544">
      <contour>
        <pt x="430" y="-114" on="1"/>
        <pt x="418" y="-240" on="1"/>
        <pt x="281" y="-231" on="0"/>
        <pt x="180" y="-162" on="0"/>
        <pt x="180" y="-119" on="1"/>
        <pt x="180" y="-87" on="0"/>
        <pt x="226" y="-28" on="0"/>
        <pt x="277" y="0" on="1"/>
        <pt x="62" y="0" on="1"/>
        <pt x="62" y="544" on="1"/>
        <pt x="446" y="544" on="1"/>
        <pt x="446" y="414" on="1"/>
        <pt x="234" y="414" on="1"/>
        <pt x="234" y="324" on="1"/>
        <pt x="406" y="324" on="1"/>
        <pt x="406" y="222" on="1"/>
        <pt x="234" y="222" on="1"/>
        <pt x="234" y="131" on="1"/>
        <pt x="453" y="131" on="1"/>
        <pt x="442" y="0" on="1"/>
        <pt x="367" y="-27" on="0"/>
        <pt x="317" y="-63" on="0"/>
        <pt x="317" y="-77" on="1"/>
        <pt x="317" y="-93" on="0"/>
        <pt x="372" y="-109" on="0"/>
      </contour>
    </TTGlyph>
    <TTGlyph name="Eth" xMin="11" yMin="-8" xMax="591" yMax="628">
      <contour>
        <pt x="192" y="-8" on="1"/>
        <pt x="164" y="-8" on="0"/>
        <pt x="101" y="-4" on="0"/>
        <pt x="68" y="0" on="1"/>
        <pt x="68" y="260" on="1"/>
        <pt x="11" y="260" on="1"/>
        <pt x="11" y="364" on="1"/>
        <pt x="68" y="364" on="1"/>
        <pt x="68" y="620" on="1"/>
        <pt x="108" y="624" on="0"/>
        <pt x="181" y="628" on="0"/>
        <pt x="215" y="628" on="1"/>
        <pt x="412" y="628" on="0"/>
        <pt x="591" y="477" on="0"/>
        <pt x="591" y="323" on="1"/>
        <pt x="591" y="170" on="0"/>
        <pt x="388" y="-8" on="0"/>
      </contour>
      <contour>
        <pt x="281" y="132" on="1"/>
        <pt x="355" y="132" on="0"/>
        <pt x="421" y="214" on="0"/>
        <pt x="421" y="304" on="1"/>
        <pt x="421" y="394" on="0"/>
        <pt x="346" y="489" on="0"/>
        <pt x="264" y="489" on="1"/>
        <pt x="258" y="489" on="0"/>
        <pt x="244" y="489" on="0"/>
        <pt x="237" y="488" on="1"/>
        <pt x="237" y="364" on="1"/>
        <pt x="336" y="364" on="1"/>
        <pt x="330" y="260" on="1"/>
        <pt x="237" y="260" on="1"/>
        <pt x="237" y="135" on="1"/>
        <pt x="249" y="134" on="0"/>
        <pt x="271" y="132" on="0"/>
      </contour>
    </TTGlyph>
    <TTGlyph name="Eth.sc" xMin="9" yMin="-9" xMax="553" yMax="553">
      <contour>
        <pt x="186" y="-9" on="1"/>
        <pt x="158" y="-9" on="0"/>
        <pt x="95" y="-4" on="0"/>
        <pt x="62" y="0" on="1"/>
        <pt x="62" y="226" on="1"/>
        <pt x="9" y="226" on="1"/>
        <pt x="9" y="322" on="1"/>
        <pt x="62" y="322" on="1"/>
        <pt x="62" y="544" on="1"/>
        <pt x="102" y="548" on="0"/>
        <pt x="175" y="553" on="0"/>
        <pt x="208" y="553" on="1"/>
        <pt x="387" y="553" on="0"/>
        <pt x="553" y="418" on="0"/>
        <pt x="553" y="284" on="1"/>
        <pt x="553" y="150" on="0"/>
        <pt x="367" y="-9" on="0"/>
      </contour>
      <contour>
        <pt x="266" y="121" on="1"/>
        <pt x="328" y="121" on="0"/>
        <pt x="384" y="192" on="0"/>
        <pt x="384" y="268" on="1"/>
        <pt x="384" y="346" on="0"/>
        <pt x="320" y="425" on="0"/>
        <pt x="249" y="425" on="1"/>
        <pt x="244" y="425" on="0"/>
        <pt x="233" y="425" on="0"/>
        <pt x="228" y="424" on="1"/>
        <pt x="228" y="322" on="1"/>
        <pt x="308" y="322" on="1"/>
        <pt x="303" y="226" on="1"/>
        <pt x="228" y="226" on="1"/>
        <pt x="228" y="124" on="1"/>
        <pt x="238" y="123" on="0"/>
        <pt x="257" y="121" on="0"/>
      </contour>
    </TTGlyph>
    <TTGlyph name="Euro" xMin="41" yMin="-20" xMax="497" yMax="644">
      <contour>
        <pt x="497" y="116" on="1"/>
        <pt x="480" y="-20" on="1"/>
        <pt x="390" y="-15" on="0"/>
        <pt x="262" y="16" on="0"/>
        <pt x="175" y="66" on="0"/>
        <pt x="125" y="135" on="0"/>
        <pt x="113" y="179" on="1"/>
        <pt x="42" y="179" on="1"/>
        <pt x="42" y="274" on="1"/>
        <pt x="99" y="274" on="1"/>
        <pt x="98" y="283" on="0"/>
        <pt x="98" y="302" on="0"/>
        <pt x="98" y="312" on="1"/>
        <pt x="98" y="316" on="0"/>
        <pt x="98" y="324" on="0"/>
        <pt x="98" y="328" on="1"/>
        <pt x="41" y="328" on="1"/>
        <pt x="41" y="424" on="1"/>
        <pt x="111" y="424" on="1"/>
        <pt x="122" y="464" on="0"/>
        <pt x="170" y="533" on="0"/>
        <pt x="253" y="589" on="0"/>
        <pt x="379" y="631" on="0"/>
        <pt x="468" y="644" on="1"/>
        <pt x="489" y="490" on="1"/>
        <pt x="379" y="477" on="0"/>
        <pt x="278" y="445" on="0"/>
        <pt x="262" y="411" on="1"/>
        <pt x="452" y="411" on="1"/>
        <pt x="448" y="328" on="1"/>
        <pt x="249" y="328" on="1"/>
        <pt x="249" y="325" on="0"/>
        <pt x="249" y="319" on="0"/>
        <pt x="249" y="315" on="1"/>
        <pt x="249" y="305" on="0"/>
        <pt x="249" y="285" on="0"/>
        <pt x="250" y="276" on="1"/>
        <pt x="443" y="276" on="1"/>
        <pt x="439" y="193" on="1"/>
        <pt x="272" y="193" on="1"/>
        <pt x="293" y="163" on="0"/>
        <pt x="396" y="127" on="0"/>
      </contour>
    </TTGlyph>
    <TTGlyph name="F" xMin="68" yMin="0" xMax="473" yMax="620">
      <contour>
        <pt x="431" y="224" on="1"/>
        <pt x="247" y="224" on="1"/>
        <pt x="247" y="0" on="1"/>
        <pt x="68" y="0" on="1"/>
        <pt x="68" y="620" on="1"/>
        <pt x="473" y="620" on="1"/>
        <pt x="473" y="475" on="1"/>
        <pt x="247" y="475" on="1"/>
        <pt x="247" y="356" on="1"/>
        <pt x="431" y="356" on="1"/>
      </contour>
    </TTGlyph>
    <TTGlyph name="F.sc" xMin="62" yMin="0" xMax="443" yMax="544">
      <contour>
        <pt x="403" y="191" on="1"/>
        <pt x="237" y="191" on="1"/>
        <pt x="237" y="0" on="1"/>
        <pt x="62" y="0" on="1"/>
        <pt x="62" y="544" on="1"/>
        <pt x="443" y="544" on="1"/>
        <pt x="443" y="410" on="1"/>
        <pt x="237" y="410" on="1"/>
        <pt x="237" y="314" on="1"/>
        <pt x="403" y="314" on="1"/>
      </contour>
    </TTGlyph>
    <TTGlyph name="G" xMin="37" yMin="-8" xMax="541" yMax="630">
      <contour>
        <pt x="541" y="9" on="1"/>
        <pt x="496" y="1" on="0"/>
        <pt x="415" y="-8" on="0"/>
        <pt x="378" y="-8" on="1"/>
        <pt x="291" y="-8" on="0"/>
        <pt x="162" y="36" on="0"/>
        <pt x="79" y="115" on="0"/>
        <pt x="37" y="227" on="0"/>
        <pt x="37" y="293" on="1"/>
        <pt x="37" y="360" on="0"/>
        <pt x="83" y="483" on="0"/>
        <pt x="189" y="575" on="0"/>
        <pt x="366" y="630" on="0"/>
        <pt x="496" y="630" on="1"/>
        <pt x="499" y="630" on="1"/>
        <pt x="510" y="467" on="1"/>
        <pt x="490" y="468" on="0"/>
        <pt x="453" y="469" on="0"/>
        <pt x="437" y="469" on="1"/>
        <pt x="366" y="469" on="0"/>
        <pt x="278" y="451" on="0"/>
        <pt x="231" y="412" on="0"/>
        <pt x="216" y="353" on="0"/>
        <pt x="216" y="313" on="1"/>
        <pt x="216" y="229" on="0"/>
        <pt x="298" y="133" on="0"/>
        <pt x="391" y="124" on="1"/>
        <pt x="389" y="167" on="0"/>
        <pt x="386" y="268" on="0"/>
        <pt x="385" y="310" on="1"/>
        <pt x="540" y="310" on="1"/>
        <pt x="540" y="217" on="0"/>
        <pt x="541" y="69" on="0"/>
      </contour>
    </TTGlyph>
    <TTGlyph name="G.sc" xMin="34" yMin="-8" xMax="503" yMax="553">
      <contour>
        <pt x="503" y="6" on="1"/>
        <pt x="462" y="-1" on="0"/>
        <pt x="387" y="-8" on="0"/>
        <pt x="354" y="-8" on="1"/>
        <pt x="271" y="-8" on="0"/>
        <pt x="149" y="31" on="0"/>
        <pt x="71" y="101" on="0"/>
        <pt x="34" y="199" on="0"/>
        <pt x="34" y="257" on="1"/>
        <pt x="34" y="316" on="0"/>
        <pt x="76" y="424" on="0"/>
        <pt x="175" y="505" on="0"/>
        <pt x="340" y="553" on="0"/>
        <pt x="461" y="553" on="1"/>
        <pt x="465" y="553" on="1"/>
        <pt x="474" y="405" on="1"/>
        <pt x="457" y="406" on="0"/>
        <pt x="425" y="406" on="0"/>
        <pt x="411" y="406" on="1"/>
        <pt x="346" y="406" on="0"/>
        <pt x="265" y="391" on="0"/>
        <pt x="222" y="360" on="0"/>
        <pt x="208" y="309" on="0"/>
        <pt x="208" y="274" on="1"/>
        <pt x="208" y="205" on="0"/>
        <pt x="279" y="124" on="0"/>
        <pt x="358" y="115" on="1"/>
        <pt x="357" y="152" on="0"/>
        <pt x="353" y="237" on="0"/>
        <pt x="352" y="271" on="1"/>
        <pt x="502" y="271" on="1"/>
        <pt x="502" y="190" on="0"/>
        <pt x="503" y="59" on="0"/>
      </contour>
    </TTGlyph>
    <TTGlyph name="Gbreve" xMin="37" yMin="-8" xMax="541" yMax="889">
      <contour>
        <pt x="319" y="675" on="1"/>
        <pt x="256" y="675" on="0"/>
        <pt x="155" y="757" on="0"/>
        <pt x="120" y="829" on="1"/>
        <pt x="224" y="889" on="1"/>
        <pt x="251" y="847" on="0"/>
        <pt x="303" y="807" on="0"/>
        <pt x="331" y="807" on="1"/>
        <pt x="361" y="807" on="0"/>
        <pt x="411" y="848" on="0"/>
        <pt x="436" y="886" on="1"/>
        <pt x="523" y="843" on="1"/>
        <pt x="486" y="768" on="0"/>
        <pt x="383" y="675" on="0"/>
      </contour>
      <contour>
        <pt x="541" y="9" on="1"/>
        <pt x="496" y="1" on="0"/>
        <pt x="415" y="-8" on="0"/>
        <pt x="378" y="-8" on="1"/>
        <pt x="291" y="-8" on="0"/>
        <pt x="162" y="36" on="0"/>
        <pt x="79" y="115" on="0"/>
        <pt x="37" y="227" on="0"/>
        <pt x="37" y="293" on="1"/>
        <pt x="37" y="360" on="0"/>
        <pt x="83" y="483" on="0"/>
        <pt x="189" y="575" on="0"/>
        <pt x="366" y="630" on="0"/>
        <pt x="496" y="630" on="1"/>
        <pt x="499" y="630" on="1"/>
        <pt x="510" y="467" on="1"/>
        <pt x="490" y="468" on="0"/>
        <pt x="453" y="469" on="0"/>
        <pt x="437" y="469" on="1"/>
        <pt x="366" y="469" on="0"/>
        <pt x="278" y="451" on="0"/>
        <pt x="231" y="412" on="0"/>
        <pt x="216" y="353" on="0"/>
        <pt x="216" y="313" on="1"/>
        <pt x="216" y="229" on="0"/>
        <pt x="298" y="133" on="0"/>
        <pt x="391" y="124" on="1"/>
        <pt x="389" y="167" on="0"/>
        <pt x="386" y="268" on="0"/>
        <pt x="385" y="310" on="1"/>
        <pt x="540" y="310" on="1"/>
        <pt x="540" y="217" on="0"/>
        <pt x="541" y="69" on="0"/>
      </contour>
    </TTGlyph>
    <TTGlyph name="Gbreve.sc" xMin="34" yMin="-8" xMax="503" yMax="814">
      <contour>
        <pt x="293" y="600" on="1"/>
        <pt x="230" y="600" on="0"/>
        <pt x="129" y="682" on="0"/>
        <pt x="94" y="754" on="1"/>
        <pt x="198" y="814" on="1"/>
        <pt x="225" y="772" on="0"/>
        <pt x="277" y="732" on="0"/>
        <pt x="305" y="732" on="1"/>
        <pt x="335" y="732" on="0"/>
        <pt x="385" y="773" on="0"/>
        <pt x="410" y="811" on="1"/>
        <pt x="497" y="768" on="1"/>
        <pt x="460" y="693" on="0"/>
        <pt x="357" y="600" on="0"/>
      </contour>
      <contour>
        <pt x="503" y="6" on="1"/>
        <pt x="462" y="-1" on="0"/>
        <pt x="387" y="-8" on="0"/>
        <pt x="354" y="-8" on="1"/>
        <pt x="271" y="-8" on="0"/>
        <pt x="149" y="31" on="0"/>
        <pt x="71" y="101" on="0"/>
        <pt x="34" y="199" on="0"/>
        <pt x="34" y="257" on="1"/>
        <pt x="34" y="316" on="0"/>
        <pt x="76" y="424" on="0"/>
        <pt x="175" y="505" on="0"/>
        <pt x="340" y="553" on="0"/>
        <pt x="461" y="553" on="1"/>
        <pt x="465" y="553" on="1"/>
        <pt x="474" y="405" on="1"/>
        <pt x="457" y="406" on="0"/>
        <pt x="425" y="406" on="0"/>
        <pt x="411" y="406" on="1"/>
        <pt x="346" y="406" on="0"/>
        <pt x="265" y="391" on="0"/>
        <pt x="222" y="360" on="0"/>
        <pt x="208" y="309" on="0"/>
        <pt x="208" y="274" on="1"/>
        <pt x="208" y="205" on="0"/>
        <pt x="279" y="124" on="0"/>
        <pt x="358" y="115" on="1"/>
        <pt x="357" y="152" on="0"/>
        <pt x="353" y="237" on="0"/>
        <pt x="352" y="271" on="1"/>
        <pt x="502" y="271" on="1"/>
        <pt x="502" y="190" on="0"/>
        <pt x="503" y="59" on="0"/>
      </contour>
    </TTGlyph>
    <TTGlyph name="Gcommaaccent" xMin="37" yMin="-312" xMax="541" yMax="630">
      <contour>
        <pt x="541" y="9" on="1"/>
        <pt x="496" y="1" on="0"/>
        <pt x="415" y="-8" on="0"/>
        <pt x="378" y="-8" on="1"/>
        <pt x="291" y="-8" on="0"/>
        <pt x="162" y="36" on="0"/>
        <pt x="79" y="115" on="0"/>
        <pt x="37" y="227" on="0"/>
        <pt x="37" y="293" on="1"/>
        <pt x="37" y="360" on="0"/>
        <pt x="83" y="483" on="0"/>
        <pt x="189" y="575" on="0"/>
        <pt x="366" y="630" on="0"/>
        <pt x="496" y="630" on="1"/>
        <pt x="499" y="630" on="1"/>
        <pt x="510" y="467" on="1"/>
        <pt x="490" y="468" on="0"/>
        <pt x="453" y="469" on="0"/>
        <pt x="437" y="469" on="1"/>
        <pt x="366" y="469" on="0"/>
        <pt x="278" y="451" on="0"/>
        <pt x="231" y="412" on="0"/>
        <pt x="216" y="353" on="0"/>
        <pt x="216" y="313" on="1"/>
        <pt x="216" y="229" on="0"/>
        <pt x="298" y="133" on="0"/>
        <pt x="391" y="124" on="1"/>
        <pt x="389" y="167" on="0"/>
        <pt x="386" y="268" on="0"/>
        <pt x="385" y="310" on="1"/>
        <pt x="540" y="310" on="1"/>
        <pt x="540" y="217" on="0"/>
        <pt x="541" y="69" on="0"/>
      </contour>
      <contour>
        <pt x="224" y="-284" on="1"/>
        <pt x="230" y="-258" on="0"/>
        <pt x="236" y="-203" on="0"/>
        <pt x="236" y="-175" on="1"/>
        <pt x="236" y="-150" on="0"/>
        <pt x="231" y="-97" on="0"/>
        <pt x="225" y="-72" on="1"/>
        <pt x="410" y="-65" on="1"/>
        <pt x="410" y="-136" on="0"/>
        <pt x="359" y="-266" on="0"/>
        <pt x="303" y="-312" on="1"/>
      </contour>
    </TTGlyph>
    <TTGlyph name="Gcommaaccent.sc" xMin="34" yMin="-312" xMax="503" yMax="553">
      <contour>
        <pt x="503" y="6" on="1"/>
        <pt x="462" y="-1" on="0"/>
        <pt x="387" y="-8" on="0"/>
        <pt x="354" y="-8" on="1"/>
        <pt x="271" y="-8" on="0"/>
        <pt x="149" y="31" on="0"/>
        <pt x="71" y="101" on="0"/>
        <pt x="34" y="199" on="0"/>
        <pt x="34" y="257" on="1"/>
        <pt x="34" y="316" on="0"/>
        <pt x="76" y="424" on="0"/>
        <pt x="175" y="505" on="0"/>
        <pt x="340" y="553" on="0"/>
        <pt x="461" y="553" on="1"/>
        <pt x="465" y="553" on="1"/>
        <pt x="474" y="405" on="1"/>
        <pt x="457" y="406" on="0"/>
        <pt x="425" y="406" on="0"/>
        <pt x="411" y="406" on="1"/>
        <pt x="346" y="406" on="0"/>
        <pt x="265" y="391" on="0"/>
        <pt x="222" y="360" on="0"/>
        <pt x="208" y="309" on="0"/>
        <pt x="208" y="274" on="1"/>
        <pt x="208" y="205" on="0"/>
        <pt x="279" y="124" on="0"/>
        <pt x="358" y="115" on="1"/>
        <pt x="357" y="152" on="0"/>
        <pt x="353" y="237" on="0"/>
        <pt x="352" y="271" on="1"/>
        <pt x="502" y="271" on="1"/>
        <pt x="502" y="190" on="0"/>
        <pt x="503" y="59" on="0"/>
      </contour>
      <contour>
        <pt x="199" y="-284" on="1"/>
        <pt x="205" y="-258" on="0"/>
        <pt x="211" y="-203" on="0"/>
        <pt x="211" y="-175" on="1"/>
        <pt x="211" y="-150" on="0"/>
        <pt x="206" y="-97" on="0"/>
        <pt x="200" y="-72" on="1"/>
        <pt x="385" y="-65" on="1"/>
        <pt x="385" y="-136" on="0"/>
        <pt x="334" y="-266" on="0"/>
        <pt x="278" y="-312" on="1"/>
      </contour>
    </TTGlyph>
    <TTGlyph name="Gdotaccent" xMin="37" yMin="-8" xMax="541" yMax="845">
      <contour>
        <pt x="406" y="687" on="1"/>
        <pt x="231" y="687" on="1"/>
        <pt x="236" y="845" on="1"/>
        <pt x="411" y="845" on="1"/>
      </contour>
      <contour>
        <pt x="541" y="9" on="1"/>
        <pt x="496" y="1" on="0"/>
        <pt x="415" y="-8" on="0"/>
        <pt x="378" y="-8" on="1"/>
        <pt x="291" y="-8" on="0"/>
        <pt x="162" y="36" on="0"/>
        <pt x="79" y="115" on="0"/>
        <pt x="37" y="227" on="0"/>
        <pt x="37" y="293" on="1"/>
        <pt x="37" y="360" on="0"/>
        <pt x="83" y="483" on="0"/>
        <pt x="189" y="575" on="0"/>
        <pt x="366" y="630" on="0"/>
        <pt x="496" y="630" on="1"/>
        <pt x="499" y="630" on="1"/>
        <pt x="510" y="467" on="1"/>
        <pt x="490" y="468" on="0"/>
        <pt x="453" y="469" on="0"/>
        <pt x="437" y="469" on="1"/>
        <pt x="366" y="469" on="0"/>
        <pt x="278" y="451" on="0"/>
        <pt x="231" y="412" on="0"/>
        <pt x="216" y="353" on="0"/>
        <pt x="216" y="313" on="1"/>
        <pt x="216" y="229" on="0"/>
        <pt x="298" y="133" on="0"/>
        <pt x="391" y="124" on="1"/>
        <pt x="389" y="167" on="0"/>
        <pt x="386" y="268" on="0"/>
        <pt x="385" y="310" on="1"/>
        <pt x="540" y="310" on="1"/>
        <pt x="540" y="217" on="0"/>
        <pt x="541" y="69" on="0"/>
      </contour>
    </TTGlyph>
    <TTGlyph name="Gdotaccent.sc" xMin="34" yMin="-8" xMax="503" yMax="770">
      <contour>
        <pt x="381" y="612" on="1"/>
        <pt x="206" y="612" on="1"/>
        <pt x="211" y="770" on="1"/>
        <pt x="386" y="770" on="1"/>
      </contour>
      <contour>
        <pt x="503" y="6" on="1"/>
        <pt x="462" y="-1" on="0"/>
        <pt x="387" y="-8" on="0"/>
        <pt x="354" y="-8" on="1"/>
        <pt x="271" y="-8" on="0"/>
        <pt x="149" y="31" on="0"/>
        <pt x="71" y="101" on="0"/>
        <pt x="34" y="199" on="0"/>
        <pt x="34" y="257" on="1"/>
        <pt x="34" y="316" on="0"/>
        <pt x="76" y="424" on="0"/>
        <pt x="175" y="505" on="0"/>
        <pt x="340" y="553" on="0"/>
        <pt x="461" y="553" on="1"/>
        <pt x="465" y="553" on="1"/>
        <pt x="474" y="405" on="1"/>
        <pt x="457" y="406" on="0"/>
        <pt x="425" y="406" on="0"/>
        <pt x="411" y="406" on="1"/>
        <pt x="346" y="406" on="0"/>
        <pt x="265" y="391" on="0"/>
        <pt x="222" y="360" on="0"/>
        <pt x="208" y="309" on="0"/>
        <pt x="208" y="274" on="1"/>
        <pt x="208" y="205" on="0"/>
        <pt x="279" y="124" on="0"/>
        <pt x="358" y="115" on="1"/>
        <pt x="357" y="152" on="0"/>
        <pt x="353" y="237" on="0"/>
        <pt x="352" y="271" on="1"/>
        <pt x="502" y="271" on="1"/>
        <pt x="502" y="190" on="0"/>
        <pt x="503" y="59" on="0"/>
      </contour>
    </TTGlyph>
    <TTGlyph name="H" xMin="68" yMin="0" xMax="593" yMax="620">
      <contour>
        <pt x="412" y="0" on="1"/>
        <pt x="412" y="243" on="1"/>
        <pt x="247" y="243" on="1"/>
        <pt x="247" y="0" on="1"/>
        <pt x="68" y="0" on="1"/>
        <pt x="68" y="620" on="1"/>
        <pt x="247" y="620" on="1"/>
        <pt x="247" y="381" on="1"/>
        <pt x="412" y="381" on="1"/>
        <pt x="412" y="620" on="1"/>
        <pt x="593" y="620" on="1"/>
        <pt x="593" y="0" on="1"/>
      </contour>
    </TTGlyph>
    <TTGlyph name="H.sc" xMin="62" yMin="0" xMax="556" yMax="544">
      <contour>
        <pt x="379" y="0" on="1"/>
        <pt x="379" y="210" on="1"/>
        <pt x="237" y="210" on="1"/>
        <pt x="237" y="0" on="1"/>
        <pt x="62" y="0" on="1"/>
        <pt x="62" y="544" on="1"/>
        <pt x="237" y="544" on="1"/>
        <pt x="237" y="339" on="1"/>
        <pt x="379" y="339" on="1"/>
        <pt x="379" y="544" on="1"/>
        <pt x="556" y="544" on="1"/>
        <pt x="556" y="0" on="1"/>
      </contour>
    </TTGlyph>
    <TTGlyph name="Hbar" xMin="11" yMin="0" xMax="650" yMax="620">
      <contour>
        <pt x="412" y="348" on="1"/>
        <pt x="412" y="434" on="1"/>
        <pt x="247" y="434" on="1"/>
        <pt x="247" y="348" on="1"/>
      </contour>
      <contour>
        <pt x="412" y="0" on="1"/>
        <pt x="412" y="212" on="1"/>
        <pt x="247" y="212" on="1"/>
        <pt x="247" y="0" on="1"/>
        <pt x="68" y="0" on="1"/>
        <pt x="68" y="429" on="1"/>
        <pt x="11" y="429" on="1"/>
        <pt x="11" y="534" on="1"/>
        <pt x="68" y="534" on="1"/>
        <pt x="68" y="620" on="1"/>
        <pt x="247" y="620" on="1"/>
        <pt x="247" y="529" on="1"/>
        <pt x="412" y="529" on="1"/>
        <pt x="412" y="620" on="1"/>
        <pt x="593" y="620" on="1"/>
        <pt x="593" y="534" on="1"/>
        <pt x="650" y="534" on="1"/>
        <pt x="650" y="429" on="1"/>
        <pt x="593" y="429" on="1"/>
        <pt x="593" y="0" on="1"/>
      </contour>
    </TTGlyph>
    <TTGlyph name="Hbar.sc" xMin="10" yMin="0" xMax="608" yMax="544">
      <contour>
        <pt x="379" y="311" on="1"/>
        <pt x="379" y="379" on="1"/>
        <pt x="237" y="379" on="1"/>
        <pt x="237" y="311" on="1"/>
      </contour>
      <contour>
        <pt x="379" y="0" on="1"/>
        <pt x="379" y="184" on="1"/>
        <pt x="237" y="184" on="1"/>
        <pt x="237" y="0" on="1"/>
        <pt x="62" y="0" on="1"/>
        <pt x="62" y="375" on="1"/>
        <pt x="10" y="375" on="1"/>
        <pt x="10" y="467" on="1"/>
        <pt x="62" y="467" on="1"/>
        <pt x="62" y="544" on="1"/>
        <pt x="237" y="544" on="1"/>
        <pt x="237" y="463" on="1"/>
        <pt x="379" y="463" on="1"/>
        <pt x="379" y="544" on="1"/>
        <pt x="556" y="544" on="1"/>
        <pt x="556" y="467" on="1"/>
        <pt x="608" y="467" on="1"/>
        <pt x="608" y="375" on="1"/>
        <pt x="556" y="375" on="1"/>
        <pt x="556" y="0" on="1"/>
      </contour>
    </TTGlyph>
    <TTGlyph name="I" xMin="52" yMin="0" xMax="477" yMax="620">
      <contour>
        <pt x="350" y="488" on="1"/>
        <pt x="350" y="132" on="1"/>
        <pt x="477" y="132" on="1"/>
        <pt x="468" y="0" on="1"/>
        <pt x="52" y="0" on="1"/>
        <pt x="52" y="132" on="1"/>
        <pt x="174" y="132" on="1"/>
        <pt x="174" y="488" on="1"/>
        <pt x="52" y="488" on="1"/>
        <pt x="52" y="620" on="1"/>
        <pt x="472" y="620" on="1"/>
        <pt x="472" y="488" on="1"/>
      </contour>
    </TTGlyph>
    <TTGlyph name="I.sc" xMin="45" yMin="0" xMax="445" yMax="544">
      <contour>
        <pt x="329" y="424" on="1"/>
        <pt x="329" y="121" on="1"/>
        <pt x="445" y="121" on="1"/>
        <pt x="437" y="0" on="1"/>
        <pt x="45" y="0" on="1"/>
        <pt x="45" y="121" on="1"/>
        <pt x="157" y="121" on="1"/>
        <pt x="157" y="424" on="1"/>
        <pt x="45" y="424" on="1"/>
        <pt x="45" y="544" on="1"/>
        <pt x="441" y="544" on="1"/>
        <pt x="441" y="424" on="1"/>
      </contour>
    </TTGlyph>
    <TTGlyph name="Iacute" xMin="52" yMin="0" xMax="477" yMax="913">
      <contour>
        <pt x="127" y="737" on="1"/>
        <pt x="178" y="768" on="0"/>
        <pt x="301" y="866" on="0"/>
        <pt x="349" y="913" on="1"/>
        <pt x="452" y="788" on="1"/>
        <pt x="421" y="767" on="0"/>
        <pt x="346" y="728" on="0"/>
        <pt x="269" y="696" on="0"/>
        <pt x="192" y="672" on="0"/>
        <pt x="158" y="665" on="1"/>
      </contour>
      <contour>
        <pt x="350" y="488" on="1"/>
        <pt x="350" y="132" on="1"/>
        <pt x="477" y="132" on="1"/>
        <pt x="468" y="0" on="1"/>
        <pt x="52" y="0" on="1"/>
        <pt x="52" y="132" on="1"/>
        <pt x="174" y="132" on="1"/>
        <pt x="174" y="488" on="1"/>
        <pt x="52" y="488" on="1"/>
        <pt x="52" y="620" on="1"/>
        <pt x="472" y="620" on="1"/>
        <pt x="472" y="488" on="1"/>
      </contour>
    </TTGlyph>
    <TTGlyph name="Iacute.sc" xMin="45" yMin="0" xMax="445" yMax="837">
      <contour>
        <pt x="108" y="661" on="1"/>
        <pt x="159" y="692" on="0"/>
        <pt x="282" y="790" on="0"/>
        <pt x="330" y="837" on="1"/>
        <pt x="433" y="712" on="1"/>
        <pt x="402" y="691" on="0"/>
        <pt x="327" y="652" on="0"/>
        <pt x="250" y="620" on="0"/>
        <pt x="173" y="596" on="0"/>
        <pt x="139" y="589" on="1"/>
      </contour>
      <contour>
        <pt x="329" y="424" on="1"/>
        <pt x="329" y="121" on="1"/>
        <pt x="445" y="121" on="1"/>
        <pt x="437" y="0" on="1"/>
        <pt x="45" y="0" on="1"/>
        <pt x="45" y="121" on="1"/>
        <pt x="157" y="121" on="1"/>
        <pt x="157" y="424" on="1"/>
        <pt x="45" y="424" on="1"/>
        <pt x="45" y="544" on="1"/>
        <pt x="441" y="544" on="1"/>
        <pt x="441" y="424" on="1"/>
      </contour>
    </TTGlyph>
    <TTGlyph name="Ibreve" xMin="52" yMin="0" xMax="477" yMax="884">
      <contour>
        <pt x="264" y="670" on="1"/>
        <pt x="201" y="670" on="0"/>
        <pt x="100" y="752" on="0"/>
        <pt x="65" y="824" on="1"/>
        <pt x="169" y="884" on="1"/>
        <pt x="196" y="842" on="0"/>
        <pt x="248" y="802" on="0"/>
        <pt x="276" y="802" on="1"/>
        <pt x="306" y="802" on="0"/>
        <pt x="356" y="843" on="0"/>
        <pt x="381" y="881" on="1"/>
        <pt x="468" y="838" on="1"/>
        <pt x="431" y="763" on="0"/>
        <pt x="328" y="670" on="0"/>
      </contour>
      <contour>
        <pt x="350" y="488" on="1"/>
        <pt x="350" y="132" on="1"/>
        <pt x="477" y="132" on="1"/>
        <pt x="468" y="0" on="1"/>
        <pt x="52" y="0" on="1"/>
        <pt x="52" y="132" on="1"/>
        <pt x="174" y="132" on="1"/>
        <pt x="174" y="488" on="1"/>
        <pt x="52" y="488" on="1"/>
        <pt x="52" y="620" on="1"/>
        <pt x="472" y="620" on="1"/>
        <pt x="472" y="488" on="1"/>
      </contour>
    </TTGlyph>
    <TTGlyph name="Ibreve.sc" xMin="45" yMin="0" xMax="449" yMax="808">
      <contour>
        <pt x="245" y="594" on="1"/>
        <pt x="182" y="594" on="0"/>
        <pt x="81" y="676" on="0"/>
        <pt x="46" y="748" on="1"/>
        <pt x="150" y="808" on="1"/>
        <pt x="177" y="766" on="0"/>
        <pt x="229" y="726" on="0"/>
        <pt x="257" y="726" on="1"/>
        <pt x="287" y="726" on="0"/>
        <pt x="337" y="767" on="0"/>
        <pt x="362" y="805" on="1"/>
        <pt x="449" y="762" on="1"/>
        <pt x="412" y="687" on="0"/>
        <pt x="309" y="594" on="0"/>
      </contour>
      <contour>
        <pt x="329" y="424" on="1"/>
        <pt x="329" y="121" on="1"/>
        <pt x="445" y="121" on="1"/>
        <pt x="437" y="0" on="1"/>
        <pt x="45" y="0" on="1"/>
        <pt x="45" y="121" on="1"/>
        <pt x="157" y="121" on="1"/>
        <pt x="157" y="424" on="1"/>
        <pt x="45" y="424" on="1"/>
        <pt x="45" y="544" on="1"/>
        <pt x="441" y="544" on="1"/>
        <pt x="441" y="424" on="1"/>
      </contour>
    </TTGlyph>
    <TTGlyph name="Icircumflex" xMin="52" yMin="0" xMax="477" yMax="894">
      <contour>
        <pt x="370" y="665" on="1"/>
        <pt x="257" y="754" on="1"/>
        <pt x="148" y="666" on="1"/>
        <pt x="78" y="744" on="1"/>
        <pt x="255" y="894" on="1"/>
        <pt x="281" y="894" on="1"/>
        <pt x="460" y="758" on="1"/>
      </contour>
      <contour>
        <pt x="350" y="488" on="1"/>
        <pt x="350" y="132" on="1"/>
        <pt x="477" y="132" on="1"/>
        <pt x="468" y="0" on="1"/>
        <pt x="52" y="0" on="1"/>
        <pt x="52" y="132" on="1"/>
        <pt x="174" y="132" on="1"/>
        <pt x="174" y="488" on="1"/>
        <pt x="52" y="488" on="1"/>
        <pt x="52" y="620" on="1"/>
        <pt x="472" y="620" on="1"/>
        <pt x="472" y="488" on="1"/>
      </contour>
    </TTGlyph>
    <TTGlyph name="Icircumflex.sc" xMin="45" yMin="0" xMax="445" yMax="818">
      <contour>
        <pt x="351" y="589" on="1"/>
        <pt x="238" y="678" on="1"/>
        <pt x="129" y="590" on="1"/>
        <pt x="59" y="668" on="1"/>
        <pt x="236" y="818" on="1"/>
        <pt x="262" y="818" on="1"/>
        <pt x="441" y="682" on="1"/>
      </contour>
      <contour>
        <pt x="329" y="424" on="1"/>
        <pt x="329" y="121" on="1"/>
        <pt x="445" y="121" on="1"/>
        <pt x="437" y="0" on="1"/>
        <pt x="45" y="0" on="1"/>
        <pt x="45" y="121" on="1"/>
        <pt x="157" y="121" on="1"/>
        <pt x="157" y="424" on="1"/>
        <pt x="45" y="424" on="1"/>
        <pt x="45" y="544" on="1"/>
        <pt x="441" y="544" on="1"/>
        <pt x="441" y="424" on="1"/>
      </contour>
    </TTGlyph>
    <TTGlyph name="Idieresis" xMin="52" yMin="0" xMax="477" yMax="840">
      <contour>
        <pt x="456" y="682" on="1"/>
        <pt x="294" y="682" on="1"/>
        <pt x="297" y="840" on="1"/>
        <pt x="459" y="840" on="1"/>
      </contour>
      <contour>
        <pt x="231" y="682" on="1"/>
        <pt x="70" y="682" on="1"/>
        <pt x="73" y="840" on="1"/>
        <pt x="234" y="840" on="1"/>
      </contour>
      <contour>
        <pt x="350" y="488" on="1"/>
        <pt x="350" y="132" on="1"/>
        <pt x="477" y="132" on="1"/>
        <pt x="468" y="0" on="1"/>
        <pt x="52" y="0" on="1"/>
        <pt x="52" y="132" on="1"/>
        <pt x="174" y="132" on="1"/>
        <pt x="174" y="488" on="1"/>
        <pt x="52" y="488" on="1"/>
        <pt x="52" y="620" on="1"/>
        <pt x="472" y="620" on="1"/>
        <pt x="472" y="488" on="1"/>
      </contour>
    </TTGlyph>
    <TTGlyph name="Idieresis.sc" xMin="45" yMin="0" xMax="445" yMax="764">
      <contour>
        <pt x="437" y="606" on="1"/>
        <pt x="275" y="606" on="1"/>
        <pt x="278" y="764" on="1"/>
        <pt x="440" y="764" on="1"/>
      </contour>
      <contour>
        <pt x="212" y="606" on="1"/>
        <pt x="51" y="606" on="1"/>
        <pt x="54" y="764" on="1"/>
        <pt x="215" y="764" on="1"/>
      </contour>
      <contour>
        <pt x="329" y="424" on="1"/>
        <pt x="329" y="121" on="1"/>
        <pt x="445" y="121" on="1"/>
        <pt x="437" y="0" on="1"/>
        <pt x="45" y="0" on="1"/>
        <pt x="45" y="121" on="1"/>
        <pt x="157" y="121" on="1"/>
        <pt x="157" y="424" on="1"/>
        <pt x="45" y="424" on="1"/>
        <pt x="45" y="544" on="1"/>
        <pt x="441" y="544" on="1"/>
        <pt x="441" y="424" on="1"/>
      </contour>
    </TTGlyph>
    <TTGlyph name="Idotaccent" xMin="52" yMin="0" xMax="477" yMax="840">
      <contour>
        <pt x="352" y="682" on="1"/>
        <pt x="177" y="682" on="1"/>
        <pt x="182" y="840" on="1"/>
        <pt x="357" y="840" on="1"/>
      </contour>
      <contour>
        <pt x="350" y="488" on="1"/>
        <pt x="350" y="132" on="1"/>
        <pt x="477" y="132" on="1"/>
        <pt x="468" y="0" on="1"/>
        <pt x="52" y="0" on="1"/>
        <pt x="52" y="132" on="1"/>
        <pt x="174" y="132" on="1"/>
        <pt x="174" y="488" on="1"/>
        <pt x="52" y="488" on="1"/>
        <pt x="52" y="620" on="1"/>
        <pt x="472" y="620" on="1"/>
        <pt x="472" y="488" on="1"/>
      </contour>
    </TTGlyph>
    <TTGlyph name="Idotaccent.sc" xMin="45" yMin="0" xMax="445" yMax="764">
      <contour>
        <pt x="333" y="606" on="1"/>
        <pt x="158" y="606" on="1"/>
        <pt x="163" y="764" on="1"/>
        <pt x="338" y="764" on="1"/>
      </contour>
      <contour>
        <pt x="329" y="424" on="1"/>
        <pt x="329" y="121" on="1"/>
        <pt x="445" y="121" on="1"/>
        <pt x="437" y="0" on="1"/>
        <pt x="45" y="0" on="1"/>
        <pt x="45" y="121" on="1"/>
        <pt x="157" y="121" on="1"/>
        <pt x="157" y="424" on="1"/>
        <pt x="45" y="424" on="1"/>
        <pt x="45" y="544" on="1"/>
        <pt x="441" y="544" on="1"/>
        <pt x="441" y="424" on="1"/>
      </contour>
    </TTGlyph>
    <TTGlyph name="Igrave" xMin="52" yMin="0" xMax="477" yMax="914">
      <contour>
        <pt x="396" y="736" on="1"/>
        <pt x="361" y="665" on="1"/>
        <pt x="328" y="673" on="0"/>
        <pt x="253" y="698" on="0"/>
        <pt x="178" y="729" on="0"/>
        <pt x="104" y="766" on="0"/>
        <pt x="73" y="785" on="1"/>
        <pt x="168" y="914" on="1"/>
        <pt x="192" y="893" on="0"/>
        <pt x="251" y="844" on="0"/>
        <pt x="312" y="796" on="0"/>
        <pt x="371" y="752" on="0"/>
      </contour>
      <contour>
        <pt x="350" y="488" on="1"/>
        <pt x="350" y="132" on="1"/>
        <pt x="477" y="132" on="1"/>
        <pt x="468" y="0" on="1"/>
        <pt x="52" y="0" on="1"/>
        <pt x="52" y="132" on="1"/>
        <pt x="174" y="132" on="1"/>
        <pt x="174" y="488" on="1"/>
        <pt x="52" y="488" on="1"/>
        <pt x="52" y="620" on="1"/>
        <pt x="472" y="620" on="1"/>
        <pt x="472" y="488" on="1"/>
      </contour>
    </TTGlyph>
    <TTGlyph name="Igrave.sc" xMin="45" yMin="0" xMax="445" yMax="838">
      <contour>
        <pt x="377" y="660" on="1"/>
        <pt x="342" y="589" on="1"/>
        <pt x="309" y="597" on="0"/>
        <pt x="234" y="622" on="0"/>
        <pt x="159" y="653" on="0"/>
        <pt x="85" y="690" on="0"/>
        <pt x="54" y="709" on="1"/>
        <pt x="149" y="838" on="1"/>
        <pt x="173" y="817" on="0"/>
        <pt x="232" y="768" on="0"/>
        <pt x="293" y="720" on="0"/>
        <pt x="352" y="676" on="0"/>
      </contour>
      <contour>
        <pt x="329" y="424" on="1"/>
        <pt x="329" y="121" on="1"/>
        <pt x="445" y="121" on="1"/>
        <pt x="437" y="0" on="1"/>
        <pt x="45" y="0" on="1"/>
        <pt x="45" y="121" on="1"/>
        <pt x="157" y="121" on="1"/>
        <pt x="157" y="424" on="1"/>
        <pt x="45" y="424" on="1"/>
        <pt x="45" y="544" on="1"/>
        <pt x="441" y="544" on="1"/>
        <pt x="441" y="424" on="1"/>
      </contour>
    </TTGlyph>
    <TTGlyph name="Imacron" xMin="52" yMin="0" xMax="477" yMax="832">
      <contour>
        <pt x="442" y="832" on="1"/>
        <pt x="442" y="691" on="1"/>
        <pt x="84" y="691" on="1"/>
        <pt x="84" y="832" on="1"/>
      </contour>
      <contour>
        <pt x="350" y="488" on="1"/>
        <pt x="350" y="132" on="1"/>
        <pt x="477" y="132" on="1"/>
        <pt x="468" y="0" on="1"/>
        <pt x="52" y="0" on="1"/>
        <pt x="52" y="132" on="1"/>
        <pt x="174" y="132" on="1"/>
        <pt x="174" y="488" on="1"/>
        <pt x="52" y="488" on="1"/>
        <pt x="52" y="620" on="1"/>
        <pt x="472" y="620" on="1"/>
        <pt x="472" y="488" on="1"/>
      </contour>
    </TTGlyph>
    <TTGlyph name="Imacron.sc" xMin="45" yMin="0" xMax="445" yMax="756">
      <contour>
        <pt x="423" y="756" on="1"/>
        <pt x="423" y="615" on="1"/>
        <pt x="65" y="615" on="1"/>
        <pt x="65" y="756" on="1"/>
      </contour>
      <contour>
        <pt x="329" y="424" on="1"/>
        <pt x="329" y="121" on="1"/>
        <pt x="445" y="121" on="1"/>
        <pt x="437" y="0" on="1"/>
        <pt x="45" y="0" on="1"/>
        <pt x="45" y="121" on="1"/>
        <pt x="157" y="121" on="1"/>
        <pt x="157" y="424" on="1"/>
        <pt x="45" y="424" on="1"/>
        <pt x="45" y="544" on="1"/>
        <pt x="441" y="544" on="1"/>
        <pt x="441" y="424" on="1"/>
      </contour>
    </TTGlyph>
    <TTGlyph name="Iogonek" xMin="52" yMin="-240" xMax="477" yMax="620">
      <contour>
        <pt x="375" y="-114" on="1"/>
        <pt x="362" y="-240" on="1"/>
        <pt x="224" y="-230" on="0"/>
        <pt x="121" y="-157" on="0"/>
        <pt x="121" y="-111" on="1"/>
        <pt x="121" y="-81" on="0"/>
        <pt x="159" y="-26" on="0"/>
        <pt x="201" y="0" on="1"/>
        <pt x="52" y="0" on="1"/>
        <pt x="52" y="132" on="1"/>
        <pt x="174" y="132" on="1"/>
        <pt x="174" y="488" on="1"/>
        <pt x="52" y="488" on="1"/>
        <pt x="52" y="620" on="1"/>
        <pt x="472" y="620" on="1"/>
        <pt x="472" y="488" on="1"/>
        <pt x="350" y="488" on="1"/>
        <pt x="350" y="132" on="1"/>
        <pt x="477" y="132" on="1"/>
        <pt x="468" y="0" on="1"/>
        <pt x="348" y="0" on="1"/>
        <pt x="296" y="-23" on="0"/>
        <pt x="259" y="-56" on="0"/>
        <pt x="259" y="-69" on="1"/>
        <pt x="259" y="-88" on="0"/>
        <pt x="315" y="-107" on="0"/>
      </contour>
    </TTGlyph>
    <TTGlyph name="Iogonek.sc" xMin="45" yMin="-240" xMax="445" yMax="544">
      <contour>
        <pt x="351" y="-114" on="1"/>
        <pt x="339" y="-240" on="1"/>
        <pt x="201" y="-230" on="0"/>
        <pt x="98" y="-157" on="0"/>
        <pt x="98" y="-111" on="1"/>
        <pt x="98" y="-82" on="0"/>
        <pt x="134" y="-26" on="0"/>
        <pt x="174" y="0" on="1"/>
        <pt x="45" y="0" on="1"/>
        <pt x="45" y="121" on="1"/>
        <pt x="157" y="121" on="1"/>
        <pt x="157" y="424" on="1"/>
        <pt x="45" y="424" on="1"/>
        <pt x="45" y="544" on="1"/>
        <pt x="441" y="544" on="1"/>
        <pt x="441" y="424" on="1"/>
        <pt x="329" y="424" on="1"/>
        <pt x="329" y="121" on="1"/>
        <pt x="445" y="121" on="1"/>
        <pt x="437" y="0" on="1"/>
        <pt x="325" y="0" on="1"/>
        <pt x="272" y="-23" on="0"/>
        <pt x="235" y="-56" on="0"/>
        <pt x="235" y="-69" on="1"/>
        <pt x="235" y="-88" on="0"/>
        <pt x="291" y="-107" on="0"/>
      </contour>
    </TTGlyph>
    <TTGlyph name="J" xMin="42" yMin="-9" xMax="415" yMax="620">
      <contour>
        <pt x="68" y="620" on="1"/>
        <pt x="415" y="620" on="1"/>
        <pt x="415" y="224" on="1"/>
        <pt x="415" y="170" on="0"/>
        <pt x="380" y="83" on="0"/>
        <pt x="300" y="23" on="0"/>
        <pt x="168" y="-9" on="0"/>
        <pt x="72" y="-9" on="1"/>
        <pt x="42" y="-9" on="1"/>
        <pt x="42" y="137" on="1"/>
        <pt x="65" y="136" on="0"/>
        <pt x="105" y="135" on="0"/>
        <pt x="121" y="135" on="1"/>
        <pt x="162" y="135" on="0"/>
        <pt x="208" y="143" on="0"/>
        <pt x="230" y="163" on="0"/>
        <pt x="235" y="196" on="0"/>
        <pt x="235" y="221" on="1"/>
        <pt x="235" y="481" on="1"/>
        <pt x="68" y="481" on="1"/>
      </contour>
    </TTGlyph>
    <TTGlyph name="J.sc" xMin="41" yMin="-8" xMax="395" yMax="544">
      <contour>
        <pt x="64" y="544" on="1"/>
        <pt x="395" y="544" on="1"/>
        <pt x="395" y="196" on="1"/>
        <pt x="395" y="148" on="0"/>
        <pt x="362" y="72" on="0"/>
        <pt x="286" y="20" on="0"/>
        <pt x="161" y="-8" on="0"/>
        <pt x="70" y="-8" on="1"/>
        <pt x="41" y="-8" on="1"/>
        <pt x="41" y="124" on="1"/>
        <pt x="61" y="123" on="0"/>
        <pt x="96" y="123" on="0"/>
        <pt x="110" y="123" on="1"/>
        <pt x="149" y="123" on="0"/>
        <pt x="193" y="129" on="0"/>
        <pt x="214" y="145" on="0"/>
        <pt x="219" y="172" on="0"/>
        <pt x="219" y="193" on="1"/>
        <pt x="219" y="416" on="1"/>
        <pt x="64" y="416" on="1"/>
      </contour>
    </TTGlyph>
    <TTGlyph name="K" xMin="68" yMin="-7" xMax="611" yMax="620">
      <contour>
        <pt x="422" y="-7" on="1"/>
        <pt x="283" y="241" on="1"/>
        <pt x="243" y="241" on="1"/>
        <pt x="243" y="0" on="1"/>
        <pt x="68" y="0" on="1"/>
        <pt x="68" y="620" on="1"/>
        <pt x="243" y="620" on="1"/>
        <pt x="243" y="385" on="1"/>
        <pt x="288" y="385" on="1"/>
        <pt x="411" y="620" on="1"/>
        <pt x="595" y="620" on="1"/>
        <pt x="426" y="319" on="1"/>
        <pt x="611" y="7" on="1"/>
      </contour>
    </TTGlyph>
    <TTGlyph name="K.sc" xMin="62" yMin="-6" xMax="574" yMax="544">
      <contour>
        <pt x="389" y="-6" on="1"/>
        <pt x="265" y="209" on="1"/>
        <pt x="234" y="209" on="1"/>
        <pt x="234" y="0" on="1"/>
        <pt x="62" y="0" on="1"/>
        <pt x="62" y="544" on="1"/>
        <pt x="234" y="544" on="1"/>
        <pt x="234" y="340" on="1"/>
        <pt x="270" y="340" on="1"/>
        <pt x="378" y="544" on="1"/>
        <pt x="558" y="544" on="1"/>
        <pt x="405" y="280" on="1"/>
        <pt x="574" y="6" on="1"/>
      </contour>
    </TTGlyph>
    <TTGlyph name="Kcommaaccent" xMin="68" yMin="-311" xMax="611" yMax="620">
      <contour>
        <pt x="422" y="-7" on="1"/>
        <pt x="283" y="241" on="1"/>
        <pt x="243" y="241" on="1"/>
        <pt x="243" y="0" on="1"/>
        <pt x="68" y="0" on="1"/>
        <pt x="68" y="620" on="1"/>
        <pt x="243" y="620" on="1"/>
        <pt x="243" y="385" on="1"/>
        <pt x="288" y="385" on="1"/>
        <pt x="411" y="620" on="1"/>
        <pt x="595" y="620" on="1"/>
        <pt x="426" y="319" on="1"/>
        <pt x="611" y="7" on="1"/>
      </contour>
      <contour>
        <pt x="219" y="-283" on="1"/>
        <pt x="225" y="-257" on="0"/>
        <pt x="231" y="-202" on="0"/>
        <pt x="231" y="-174" on="1"/>
        <pt x="231" y="-149" on="0"/>
        <pt x="226" y="-96" on="0"/>
        <pt x="220" y="-71" on="1"/>
        <pt x="405" y="-64" on="1"/>
        <pt x="405" y="-135" on="0"/>
        <pt x="354" y="-265" on="0"/>
        <pt x="298" y="-311" on="1"/>
      </contour>
    </TTGlyph>
    <TTGlyph name="Kcommaaccent.sc" xMin="62" yMin="-310" xMax="574" yMax="544">
      <contour>
        <pt x="389" y="-6" on="1"/>
        <pt x="265" y="209" on="1"/>
        <pt x="234" y="209" on="1"/>
        <pt x="234" y="0" on="1"/>
        <pt x="62" y="0" on="1"/>
        <pt x="62" y="544" on="1"/>
        <pt x="234" y="544" on="1"/>
        <pt x="234" y="340" on="1"/>
        <pt x="270" y="340" on="1"/>
        <pt x="378" y="544" on="1"/>
        <pt x="558" y="544" on="1"/>
        <pt x="405" y="280" on="1"/>
        <pt x="574" y="6" on="1"/>
      </contour>
      <contour>
        <pt x="195" y="-282" on="1"/>
        <pt x="201" y="-256" on="0"/>
        <pt x="207" y="-201" on="0"/>
        <pt x="207" y="-173" on="1"/>
        <pt x="207" y="-148" on="0"/>
        <pt x="202" y="-95" on="0"/>
        <pt x="196" y="-70" on="1"/>
        <pt x="381" y="-63" on="1"/>
        <pt x="381" y="-134" on="0"/>
        <pt x="330" y="-264" on="0"/>
        <pt x="274" y="-310" on="1"/>
      </contour>
    </TTGlyph>
    <TTGlyph name="L" xMin="68" yMin="0" xMax="480" yMax="620">
      <contour>
        <pt x="469" y="0" on="1"/>
        <pt x="68" y="0" on="1"/>
        <pt x="68" y="620" on="1"/>
        <pt x="247" y="620" on="1"/>
        <pt x="247" y="145" on="1"/>
        <pt x="480" y="145" on="1"/>
      </contour>
    </TTGlyph>
    <TTGlyph name="L.sc" xMin="62" yMin="0" xMax="450" yMax="544">
      <contour>
        <pt x="440" y="0" on="1"/>
        <pt x="62" y="0" on="1"/>
        <pt x="62" y="544" on="1"/>
        <pt x="237" y="544" on="1"/>
        <pt x="237" y="133" on="1"/>
        <pt x="450" y="133" on="1"/>
      </contour>
    </TTGlyph>
    <TTGlyph name="Lacute" xMin="68" yMin="0" xMax="480" yMax="913">
      <contour>
        <pt x="126" y="737" on="1"/>
        <pt x="177" y="768" on="0"/>
        <pt x="300" y="866" on="0"/>
        <pt x="348" y="913" on="1"/>
        <pt x="451" y="788" on="1"/>
        <pt x="420" y="767" on="0"/>
        <pt x="345" y="728" on="0"/>
        <pt x="268" y="696" on="0"/>
        <pt x="191" y="672" on="0"/>
        <pt x="157" y="665" on="1"/>
      </contour>
      <contour>
        <pt x="469" y="0" on="1"/>
        <pt x="68" y="0" on="1"/>
        <pt x="68" y="620" on="1"/>
        <pt x="247" y="620" on="1"/>
        <pt x="247" y="145" on="1"/>
        <pt x="480" y="145" on="1"/>
      </contour>
    </TTGlyph>
    <TTGlyph name="Lacute.sc" xMin="62" yMin="0" xMax="450" yMax="837">
      <contour>
        <pt x="104" y="661" on="1"/>
        <pt x="155" y="692" on="0"/>
        <pt x="278" y="790" on="0"/>
        <pt x="326" y="837" on="1"/>
        <pt x="429" y="712" on="1"/>
        <pt x="398" y="691" on="0"/>
        <pt x="323" y="652" on="0"/>
        <pt x="246" y="620" on="0"/>
        <pt x="169" y="596" on="0"/>
        <pt x="135" y="589" on="1"/>
      </contour>
      <contour>
        <pt x="440" y="0" on="1"/>
        <pt x="62" y="0" on="1"/>
        <pt x="62" y="544" on="1"/>
        <pt x="237" y="544" on="1"/>
        <pt x="237" y="133" on="1"/>
        <pt x="450" y="133" on="1"/>
      </contour>
    </TTGlyph>
    <TTGlyph name="Lcaron" xMin="68" yMin="0" xMax="490" yMax="678">
      <contour>
        <pt x="330" y="442" on="1"/>
        <pt x="334" y="473" on="0"/>
        <pt x="338" y="534" on="0"/>
        <pt x="338" y="565" on="1"/>
        <pt x="338" y="593" on="0"/>
        <pt x="335" y="648" on="0"/>
        <pt x="331" y="676" on="1"/>
        <pt x="490" y="678" on="1"/>
        <pt x="486" y="610" on="0"/>
        <pt x="443" y="485" on="0"/>
        <pt x="408" y="427" on="1"/>
      </contour>
      <contour>
        <pt x="469" y="0" on="1"/>
        <pt x="68" y="0" on="1"/>
        <pt x="68" y="620" on="1"/>
        <pt x="247" y="620" on="1"/>
        <pt x="247" y="145" on="1"/>
        <pt x="480" y="145" on="1"/>
      </contour>
    </TTGlyph>
    <TTGlyph name="Lcaron.sc" xMin="62" yMin="0" xMax="465" yMax="628">
      <contour>
        <pt x="305" y="392" on="1"/>
        <pt x="309" y="423" on="0"/>
        <pt x="313" y="484" on="0"/>
        <pt x="313" y="515" on="1"/>
        <pt x="313" y="543" on="0"/>
        <pt x="310" y="598" on="0"/>
        <pt x="306" y="626" on="1"/>
        <pt x="465" y="628" on="1"/>
        <pt x="461" y="560" on="0"/>
        <pt x="418" y="435" on="0"/>
        <pt x="383" y="377" on="1"/>
      </contour>
      <contour>
        <pt x="440" y="0" on="1"/>
        <pt x="62" y="0" on="1"/>
        <pt x="62" y="544" on="1"/>
        <pt x="237" y="544" on="1"/>
        <pt x="237" y="133" on="1"/>
        <pt x="450" y="133" on="1"/>
      </contour>
    </TTGlyph>
    <TTGlyph name="Lcommaaccent" xMin="68" yMin="-304" xMax="480" yMax="620">
      <contour>
        <pt x="469" y="0" on="1"/>
        <pt x="68" y="0" on="1"/>
        <pt x="68" y="620" on="1"/>
        <pt x="247" y="620" on="1"/>
        <pt x="247" y="145" on="1"/>
        <pt x="480" y="145" on="1"/>
      </contour>
      <contour>
        <pt x="169" y="-276" on="1"/>
        <pt x="175" y="-250" on="0"/>
        <pt x="181" y="-195" on="0"/>
        <pt x="181" y="-167" on="1"/>
        <pt x="181" y="-142" on="0"/>
        <pt x="176" y="-89" on="0"/>
        <pt x="170" y="-64" on="1"/>
        <pt x="355" y="-57" on="1"/>
        <pt x="355" y="-128" on="0"/>
        <pt x="304" y="-258" on="0"/>
        <pt x="248" y="-304" on="1"/>
      </contour>
    </TTGlyph>
    <TTGlyph name="Lcommaaccent.sc" xMin="62" yMin="-304" xMax="450" yMax="544">
      <contour>
        <pt x="440" y="0" on="1"/>
        <pt x="62" y="0" on="1"/>
        <pt x="62" y="544" on="1"/>
        <pt x="237" y="544" on="1"/>
        <pt x="237" y="133" on="1"/>
        <pt x="450" y="133" on="1"/>
      </contour>
      <contour>
        <pt x="147" y="-276" on="1"/>
        <pt x="153" y="-250" on="0"/>
        <pt x="159" y="-195" on="0"/>
        <pt x="159" y="-167" on="1"/>
        <pt x="159" y="-142" on="0"/>
        <pt x="154" y="-89" on="0"/>
        <pt x="148" y="-64" on="1"/>
        <pt x="333" y="-57" on="1"/>
        <pt x="333" y="-128" on="0"/>
        <pt x="282" y="-258" on="0"/>
        <pt x="226" y="-304" on="1"/>
      </contour>
    </TTGlyph>
    <TTGlyph name="Ldot" xMin="68" yMin="0" xMax="484" yMax="620">
      <contour>
        <pt x="469" y="0" on="1"/>
        <pt x="68" y="0" on="1"/>
        <pt x="68" y="620" on="1"/>
        <pt x="247" y="620" on="1"/>
        <pt x="247" y="145" on="1"/>
        <pt x="480" y="145" on="1"/>
      </contour>
      <contour>
        <pt x="476" y="259" on="1"/>
        <pt x="331" y="259" on="1"/>
        <pt x="340" y="421" on="1"/>
        <pt x="484" y="421" on="1"/>
      </contour>
    </TTGlyph>
    <TTGlyph name="Ldot.sc" xMin="62" yMin="0" xMax="459" yMax="544">
      <contour>
        <pt x="440" y="0" on="1"/>
        <pt x="62" y="0" on="1"/>
        <pt x="62" y="544" on="1"/>
        <pt x="237" y="544" on="1"/>
        <pt x="237" y="133" on="1"/>
        <pt x="450" y="133" on="1"/>
      </contour>
      <contour>
        <pt x="451" y="255" on="1"/>
        <pt x="313" y="255" on="1"/>
        <pt x="322" y="412" on="1"/>
        <pt x="459" y="412" on="1"/>
      </contour>
    </TTGlyph>
    <TTGlyph name="Lslash" xMin="-5" yMin="0" xMax="480" yMax="620">
      <contour>
        <pt x="469" y="0" on="1"/>
        <pt x="68" y="0" on="1"/>
        <pt x="68" y="251" on="1"/>
        <pt x="18" y="228" on="1"/>
        <pt x="-5" y="329" on="1"/>
        <pt x="68" y="363" on="1"/>
        <pt x="68" y="620" on="1"/>
        <pt x="247" y="620" on="1"/>
        <pt x="247" y="447" on="1"/>
        <pt x="335" y="488" on="1"/>
        <pt x="358" y="386" on="1"/>
        <pt x="247" y="334" on="1"/>
        <pt x="247" y="145" on="1"/>
        <pt x="480" y="145" on="1"/>
      </contour>
    </TTGlyph>
    <TTGlyph name="Lslash.sc" xMin="-9" yMin="0" xMax="450" yMax="544">
      <contour>
        <pt x="440" y="0" on="1"/>
        <pt x="62" y="0" on="1"/>
        <pt x="62" y="217" on="1"/>
        <pt x="14" y="195" on="1"/>
        <pt x="-9" y="290" on="1"/>
        <pt x="62" y="323" on="1"/>
        <pt x="62" y="544" on="1"/>
        <pt x="237" y="544" on="1"/>
        <pt x="237" y="404" on="1"/>
        <pt x="315" y="440" on="1"/>
        <pt x="339" y="345" on="1"/>
        <pt x="237" y="298" on="1"/>
        <pt x="237" y="133" on="1"/>
        <pt x="450" y="133" on="1"/>
      </contour>
    </TTGlyph>
    <TTGlyph name="M" xMin="67" yMin="0" xMax="699" yMax="620">
      <contour>
        <pt x="499" y="620" on="1"/>
        <pt x="698" y="620" on="1"/>
        <pt x="699" y="0" on="1"/>
        <pt x="534" y="0" on="1"/>
        <pt x="542" y="362" on="1"/>
        <pt x="535" y="362" on="1"/>
        <pt x="425" y="47" on="1"/>
        <pt x="338" y="47" on="1"/>
        <pt x="228" y="362" on="1"/>
        <pt x="222" y="362" on="1"/>
        <pt x="230" y="0" on="1"/>
        <pt x="67" y="0" on="1"/>
        <pt x="67" y="620" on="1"/>
        <pt x="278" y="620" on="1"/>
        <pt x="385" y="308" on="1"/>
        <pt x="391" y="308" on="1"/>
      </contour>
    </TTGlyph>
    <TTGlyph name="M.sc" xMin="62" yMin="0" xMax="647" yMax="544">
      <contour>
        <pt x="314" y="41" on="1"/>
        <pt x="218" y="302" on="1"/>
        <pt x="213" y="302" on="1"/>
        <pt x="221" y="0" on="1"/>
        <pt x="62" y="0" on="1"/>
        <pt x="62" y="544" on="1"/>
        <pt x="263" y="544" on="1"/>
        <pt x="358" y="283" on="1"/>
        <pt x="363" y="283" on="1"/>
        <pt x="458" y="544" on="1"/>
        <pt x="647" y="544" on="1"/>
        <pt x="647" y="0" on="1"/>
        <pt x="488" y="0" on="1"/>
        <pt x="495" y="303" on="1"/>
        <pt x="490" y="303" on="1"/>
        <pt x="394" y="41" on="1"/>
      </contour>
    </TTGlyph>
    <TTGlyph name="N" xMin="68" yMin="0" xMax="593" yMax="620">
      <contour>
        <pt x="412" y="0" on="1"/>
        <pt x="236" y="341" on="1"/>
        <pt x="230" y="341" on="1"/>
        <pt x="232" y="0" on="1"/>
        <pt x="68" y="0" on="1"/>
        <pt x="68" y="620" on="1"/>
        <pt x="253" y="620" on="1"/>
        <pt x="424" y="289" on="1"/>
        <pt x="430" y="289" on="1"/>
        <pt x="428" y="620" on="1"/>
        <pt x="593" y="620" on="1"/>
        <pt x="593" y="0" on="1"/>
      </contour>
    </TTGlyph>
    <TTGlyph name="N.sc" xMin="62" yMin="0" xMax="545" yMax="544">
      <contour>
        <pt x="374" y="0" on="1"/>
        <pt x="221" y="283" on="1"/>
        <pt x="216" y="283" on="1"/>
        <pt x="217" y="0" on="1"/>
        <pt x="62" y="0" on="1"/>
        <pt x="62" y="544" on="1"/>
        <pt x="232" y="544" on="1"/>
        <pt x="385" y="266" on="1"/>
        <pt x="390" y="266" on="1"/>
        <pt x="389" y="544" on="1"/>
        <pt x="545" y="544" on="1"/>
        <pt x="545" y="0" on="1"/>
      </contour>
    </TTGlyph>
    <TTGlyph name="Nacute" xMin="68" yMin="0" xMax="593" yMax="913">
      <contour>
        <pt x="197" y="737" on="1"/>
        <pt x="248" y="768" on="0"/>
        <pt x="371" y="866" on="0"/>
        <pt x="419" y="913" on="1"/>
        <pt x="522" y="788" on="1"/>
        <pt x="491" y="767" on="0"/>
        <pt x="416" y="728" on="0"/>
        <pt x="339" y="696" on="0"/>
        <pt x="262" y="672" on="0"/>
        <pt x="228" y="665" on="1"/>
      </contour>
      <contour>
        <pt x="412" y="0" on="1"/>
        <pt x="236" y="341" on="1"/>
        <pt x="230" y="341" on="1"/>
        <pt x="232" y="0" on="1"/>
        <pt x="68" y="0" on="1"/>
        <pt x="68" y="620" on="1"/>
        <pt x="253" y="620" on="1"/>
        <pt x="424" y="289" on="1"/>
        <pt x="430" y="289" on="1"/>
        <pt x="428" y="620" on="1"/>
        <pt x="593" y="620" on="1"/>
        <pt x="593" y="0" on="1"/>
      </contour>
    </TTGlyph>
    <TTGlyph name="Nacute.sc" xMin="62" yMin="0" xMax="545" yMax="837">
      <contour>
        <pt x="169" y="661" on="1"/>
        <pt x="220" y="692" on="0"/>
        <pt x="343" y="790" on="0"/>
        <pt x="391" y="837" on="1"/>
        <pt x="494" y="712" on="1"/>
        <pt x="463" y="691" on="0"/>
        <pt x="388" y="652" on="0"/>
        <pt x="311" y="620" on="0"/>
        <pt x="234" y="596" on="0"/>
        <pt x="200" y="589" on="1"/>
      </contour>
      <contour>
        <pt x="374" y="0" on="1"/>
        <pt x="221" y="283" on="1"/>
        <pt x="216" y="283" on="1"/>
        <pt x="217" y="0" on="1"/>
        <pt x="62" y="0" on="1"/>
        <pt x="62" y="544" on="1"/>
        <pt x="232" y="544" on="1"/>
        <pt x="385" y="266" on="1"/>
        <pt x="390" y="266" on="1"/>
        <pt x="389" y="544" on="1"/>
        <pt x="545" y="544" on="1"/>
        <pt x="545" y="0" on="1"/>
      </contour>
    </TTGlyph>
    <TTGlyph name="Ncaron" xMin="68" yMin="0" xMax="593" yMax="891">
      <contour>
        <pt x="349" y="662" on="1"/>
        <pt x="324" y="662" on="1"/>
        <pt x="145" y="798" on="1"/>
        <pt x="235" y="891" on="1"/>
        <pt x="348" y="802" on="1"/>
        <pt x="456" y="890" on="1"/>
        <pt x="527" y="812" on="1"/>
      </contour>
      <contour>
        <pt x="412" y="0" on="1"/>
        <pt x="236" y="341" on="1"/>
        <pt x="230" y="341" on="1"/>
        <pt x="232" y="0" on="1"/>
        <pt x="68" y="0" on="1"/>
        <pt x="68" y="620" on="1"/>
        <pt x="253" y="620" on="1"/>
        <pt x="424" y="289" on="1"/>
        <pt x="430" y="289" on="1"/>
        <pt x="428" y="620" on="1"/>
        <pt x="593" y="620" on="1"/>
        <pt x="593" y="0" on="1"/>
      </contour>
    </TTGlyph>
    <TTGlyph name="Ncaron.sc" xMin="62" yMin="0" xMax="545" yMax="815">
      <contour>
        <pt x="321" y="586" on="1"/>
        <pt x="296" y="586" on="1"/>
        <pt x="117" y="722" on="1"/>
        <pt x="207" y="815" on="1"/>
        <pt x="320" y="726" on="1"/>
        <pt x="428" y="814" on="1"/>
        <pt x="499" y="736" on="1"/>
      </contour>
      <contour>
        <pt x="374" y="0" on="1"/>
        <pt x="221" y="283" on="1"/>
        <pt x="216" y="283" on="1"/>
        <pt x="217" y="0" on="1"/>
        <pt x="62" y="0" on="1"/>
        <pt x="62" y="544" on="1"/>
        <pt x="232" y="544" on="1"/>
        <pt x="385" y="266" on="1"/>
        <pt x="390" y="266" on="1"/>
        <pt x="389" y="544" on="1"/>
        <pt x="545" y="544" on="1"/>
        <pt x="545" y="0" on="1"/>
      </contour>
    </TTGlyph>
    <TTGlyph name="Ncommaaccent" xMin="68" yMin="-304" xMax="593" yMax="620">
      <contour>
        <pt x="412" y="0" on="1"/>
        <pt x="236" y="341" on="1"/>
        <pt x="230" y="341" on="1"/>
        <pt x="232" y="0" on="1"/>
        <pt x="68" y="0" on="1"/>
        <pt x="68" y="620" on="1"/>
        <pt x="253" y="620" on="1"/>
        <pt x="424" y="289" on="1"/>
        <pt x="430" y="289" on="1"/>
        <pt x="428" y="620" on="1"/>
        <pt x="593" y="620" on="1"/>
        <pt x="593" y="0" on="1"/>
      </contour>
      <contour>
        <pt x="240" y="-276" on="1"/>
        <pt x="246" y="-250" on="0"/>
        <pt x="252" y="-195" on="0"/>
        <pt x="252" y="-167" on="1"/>
        <pt x="252" y="-142" on="0"/>
        <pt x="247" y="-89" on="0"/>
        <pt x="241" y="-64" on="1"/>
        <pt x="426" y="-57" on="1"/>
        <pt x="426" y="-128" on="0"/>
        <pt x="375" y="-258" on="0"/>
        <pt x="319" y="-304" on="1"/>
      </contour>
    </TTGlyph>
    <TTGlyph name="Ncommaaccent.sc" xMin="62" yMin="-304" xMax="545" yMax="544">
      <contour>
        <pt x="374" y="0" on="1"/>
        <pt x="221" y="283" on="1"/>
        <pt x="216" y="283" on="1"/>
        <pt x="217" y="0" on="1"/>
        <pt x="62" y="0" on="1"/>
        <pt x="62" y="544" on="1"/>
        <pt x="232" y="544" on="1"/>
        <pt x="385" y="266" on="1"/>
        <pt x="390" y="266" on="1"/>
        <pt x="389" y="544" on="1"/>
        <pt x="545" y="544" on="1"/>
        <pt x="545" y="0" on="1"/>
      </contour>
      <contour>
        <pt x="212" y="-276" on="1"/>
        <pt x="218" y="-250" on="0"/>
        <pt x="224" y="-195" on="0"/>
        <pt x="224" y="-167" on="1"/>
        <pt x="224" y="-142" on="0"/>
        <pt x="219" y="-89" on="0"/>
        <pt x="213" y="-64" on="1"/>
        <pt x="398" y="-57" on="1"/>
        <pt x="398" y="-128" on="0"/>
        <pt x="347" y="-258" on="0"/>
        <pt x="291" y="-304" on="1"/>
      </contour>
    </TTGlyph>
    <TTGlyph name="Ntilde" xMin="68" yMin="0" xMax="593" yMax="870">
      <contour>
        <pt x="412" y="674" on="1"/>
        <pt x="388" y="674" on="0"/>
        <pt x="345" y="695" on="0"/>
        <pt x="308" y="719" on="0"/>
        <pt x="276" y="740" on="0"/>
        <pt x="264" y="740" on="1"/>
        <pt x="253" y="740" on="0"/>
        <pt x="228" y="714" on="0"/>
        <pt x="211" y="680" on="1"/>
        <pt x="129" y="715" on="1"/>
        <pt x="152" y="781" on="0"/>
        <pt x="225" y="870" on="0"/>
        <pt x="272" y="870" on="1"/>
        <pt x="296" y="870" on="0"/>
        <pt x="338" y="849" on="0"/>
        <pt x="375" y="825" on="0"/>
        <pt x="407" y="804" on="0"/>
        <pt x="419" y="804" on="1"/>
        <pt x="429" y="804" on="0"/>
        <pt x="456" y="832" on="0"/>
        <pt x="474" y="868" on="1"/>
        <pt x="556" y="833" on="1"/>
        <pt x="532" y="765" on="0"/>
        <pt x="459" y="674" on="0"/>
      </contour>
      <contour>
        <pt x="412" y="0" on="1"/>
        <pt x="236" y="341" on="1"/>
        <pt x="230" y="341" on="1"/>
        <pt x="232" y="0" on="1"/>
        <pt x="68" y="0" on="1"/>
        <pt x="68" y="620" on="1"/>
        <pt x="253" y="620" on="1"/>
        <pt x="424" y="289" on="1"/>
        <pt x="430" y="289" on="1"/>
        <pt x="428" y="620" on="1"/>
        <pt x="593" y="620" on="1"/>
        <pt x="593" y="0" on="1"/>
      </contour>
    </TTGlyph>
    <TTGlyph name="Ntilde.sc" xMin="62" yMin="0" xMax="545" yMax="794">
      <contour>
        <pt x="384" y="598" on="1"/>
        <pt x="360" y="598" on="0"/>
        <pt x="317" y="619" on="0"/>
        <pt x="280" y="643" on="0"/>
        <pt x="248" y="664" on="0"/>
        <pt x="236" y="664" on="1"/>
        <pt x="225" y="664" on="0"/>
        <pt x="200" y="638" on="0"/>
        <pt x="183" y="604" on="1"/>
        <pt x="101" y="639" on="1"/>
        <pt x="124" y="705" on="0"/>
        <pt x="197" y="794" on="0"/>
        <pt x="244" y="794" on="1"/>
        <pt x="268" y="794" on="0"/>
        <pt x="310" y="773" on="0"/>
        <pt x="347" y="749" on="0"/>
        <pt x="379" y="728" on="0"/>
        <pt x="391" y="728" on="1"/>
        <pt x="401" y="728" on="0"/>
        <pt x="428" y="756" on="0"/>
        <pt x="446" y="792" on="1"/>
        <pt x="528" y="757" on="1"/>
        <pt x="504" y="689" on="0"/>
        <pt x="431" y="598" on="0"/>
      </contour>
      <contour>
        <pt x="374" y="0" on="1"/>
        <pt x="221" y="283" on="1"/>
        <pt x="216" y="283" on="1"/>
        <pt x="217" y="0" on="1"/>
        <pt x="62" y="0" on="1"/>
        <pt x="62" y="544" on="1"/>
        <pt x="232" y="544" on="1"/>
        <pt x="385" y="266" on="1"/>
        <pt x="390" y="266" on="1"/>
        <pt x="389" y="544" on="1"/>
        <pt x="545" y="544" on="1"/>
        <pt x="545" y="0" on="1"/>
      </contour>
    </TTGlyph>
    <TTGlyph name="O" xMin="37" yMin="-14" xMax="613" yMax="634">
      <contour>
        <pt x="305" y="-14" on="1"/>
        <pt x="247" y="-14" on="0"/>
        <pt x="148" y="28" on="0"/>
        <pt x="77" y="106" on="0"/>
        <pt x="37" y="218" on="0"/>
        <pt x="37" y="288" on="1"/>
        <pt x="37" y="369" on="0"/>
        <pt x="86" y="498" on="0"/>
        <pt x="169" y="587" on="0"/>
        <pt x="282" y="634" on="0"/>
        <pt x="345" y="634" on="1"/>
        <pt x="403" y="634" on="0"/>
        <pt x="502" y="592" on="0"/>
        <pt x="573" y="514" on="0"/>
        <pt x="613" y="402" on="0"/>
        <pt x="613" y="332" on="1"/>
        <pt x="613" y="251" on="0"/>
        <pt x="564" y="122" on="0"/>
        <pt x="481" y="33" on="0"/>
        <pt x="368" y="-14" on="0"/>
      </contour>
      <contour>
        <pt x="319" y="488" on="1"/>
        <pt x="270" y="488" on="0"/>
        <pt x="219" y="403" on="0"/>
        <pt x="219" y="319" on="1"/>
        <pt x="219" y="230" on="0"/>
        <pt x="281" y="132" on="0"/>
        <pt x="332" y="132" on="1"/>
        <pt x="381" y="132" on="0"/>
        <pt x="431" y="217" on="0"/>
        <pt x="431" y="301" on="1"/>
        <pt x="431" y="390" on="0"/>
        <pt x="369" y="488" on="0"/>
      </contour>
    </TTGlyph>
    <TTGlyph name="O.sc" xMin="34" yMin="-13" xMax="572" yMax="557">
      <contour>
        <pt x="284" y="-13" on="1"/>
        <pt x="230" y="-13" on="0"/>
        <pt x="137" y="24" on="0"/>
        <pt x="71" y="92" on="0"/>
        <pt x="34" y="191" on="0"/>
        <pt x="34" y="252" on="1"/>
        <pt x="34" y="324" on="0"/>
        <pt x="79" y="438" on="0"/>
        <pt x="157" y="515" on="0"/>
        <pt x="263" y="557" on="0"/>
        <pt x="322" y="557" on="1"/>
        <pt x="376" y="557" on="0"/>
        <pt x="468" y="520" on="0"/>
        <pt x="534" y="452" on="0"/>
        <pt x="572" y="353" on="0"/>
        <pt x="572" y="292" on="1"/>
        <pt x="572" y="220" on="0"/>
        <pt x="527" y="106" on="0"/>
        <pt x="449" y="29" on="0"/>
        <pt x="343" y="-13" on="0"/>
      </contour>
      <contour>
        <pt x="298" y="423" on="1"/>
        <pt x="255" y="423" on="0"/>
        <pt x="212" y="350" on="0"/>
        <pt x="212" y="280" on="1"/>
        <pt x="212" y="205" on="0"/>
        <pt x="265" y="122" on="0"/>
        <pt x="308" y="122" on="1"/>
        <pt x="350" y="122" on="0"/>
        <pt x="395" y="194" on="0"/>
        <pt x="395" y="265" on="1"/>
        <pt x="395" y="340" on="0"/>
        <pt x="341" y="423" on="0"/>
      </contour>
    </TTGlyph>
    <TTGlyph name="OE" xMin="37" yMin="0" xMax="798" yMax="620">
      <contour>
        <pt x="211" y="315" on="1"/>
        <pt x="211" y="220" on="0"/>
        <pt x="297" y="144" on="0"/>
        <pt x="389" y="141" on="1"/>
        <pt x="389" y="478" on="1"/>
        <pt x="293" y="477" on="0"/>
        <pt x="211" y="411" on="0"/>
      </contour>
      <contour>
        <pt x="798" y="142" on="1"/>
        <pt x="787" y="0" on="1"/>
        <pt x="449" y="0" on="1"/>
        <pt x="245" y="0" on="0"/>
        <pt x="37" y="131" on="0"/>
        <pt x="37" y="297" on="1"/>
        <pt x="37" y="455" on="0"/>
        <pt x="257" y="620" on="0"/>
        <pt x="452" y="620" on="1"/>
        <pt x="790" y="620" on="1"/>
        <pt x="790" y="478" on="1"/>
        <pt x="558" y="478" on="1"/>
        <pt x="558" y="367" on="1"/>
        <pt x="748" y="367" on="1"/>
        <pt x="748" y="255" on="1"/>
        <pt x="558" y="255" on="1"/>
        <pt x="558" y="142" on="1"/>
      </contour>
    </TTGlyph>
    <TTGlyph name="OE.sc" xMin="34" yMin="0" xMax="738" yMax="544">
      <contour>
        <pt x="204" y="277" on="1"/>
        <pt x="204" y="201" on="0"/>
        <pt x="277" y="130" on="0"/>
        <pt x="358" y="130" on="1"/>
        <pt x="357" y="415" on="1"/>
        <pt x="275" y="415" on="0"/>
        <pt x="204" y="354" on="0"/>
      </contour>
      <contour>
        <pt x="738" y="131" on="1"/>
        <pt x="728" y="0" on="1"/>
        <pt x="421" y="0" on="1"/>
        <pt x="226" y="0" on="0"/>
        <pt x="34" y="115" on="0"/>
        <pt x="34" y="261" on="1"/>
        <pt x="34" y="399" on="0"/>
        <pt x="235" y="544" on="0"/>
        <pt x="422" y="544" on="1"/>
        <pt x="731" y="544" on="1"/>
        <pt x="731" y="414" on="1"/>
        <pt x="519" y="414" on="1"/>
        <pt x="519" y="324" on="1"/>
        <pt x="691" y="324" on="1"/>
        <pt x="691" y="222" on="1"/>
        <pt x="519" y="222" on="1"/>
        <pt x="519" y="131" on="1"/>
      </contour>
    </TTGlyph>
    <TTGlyph name="Oacute" xMin="37" yMin="-14" xMax="613" yMax="924">
      <contour>
        <pt x="195" y="748" on="1"/>
        <pt x="246" y="779" on="0"/>
        <pt x="369" y="877" on="0"/>
        <pt x="417" y="924" on="1"/>
        <pt x="520" y="799" on="1"/>
        <pt x="489" y="778" on="0"/>
        <pt x="414" y="739" on="0"/>
        <pt x="337" y="707" on="0"/>
        <pt x="260" y="683" on="0"/>
        <pt x="226" y="676" on="1"/>
      </contour>
      <contour>
        <pt x="305" y="-14" on="1"/>
        <pt x="247" y="-14" on="0"/>
        <pt x="148" y="28" on="0"/>
        <pt x="77" y="106" on="0"/>
        <pt x="37" y="218" on="0"/>
        <pt x="37" y="288" on="1"/>
        <pt x="37" y="369" on="0"/>
        <pt x="86" y="498" on="0"/>
        <pt x="169" y="587" on="0"/>
        <pt x="282" y="634" on="0"/>
        <pt x="345" y="634" on="1"/>
        <pt x="403" y="634" on="0"/>
        <pt x="502" y="592" on="0"/>
        <pt x="573" y="514" on="0"/>
        <pt x="613" y="402" on="0"/>
        <pt x="613" y="332" on="1"/>
        <pt x="613" y="251" on="0"/>
        <pt x="564" y="122" on="0"/>
        <pt x="481" y="33" on="0"/>
        <pt x="368" y="-14" on="0"/>
      </contour>
      <contour>
        <pt x="319" y="488" on="1"/>
        <pt x="270" y="488" on="0"/>
        <pt x="219" y="403" on="0"/>
        <pt x="219" y="319" on="1"/>
        <pt x="219" y="230" on="0"/>
        <pt x="281" y="132" on="0"/>
        <pt x="332" y="132" on="1"/>
        <pt x="381" y="132" on="0"/>
        <pt x="431" y="217" on="0"/>
        <pt x="431" y="301" on="1"/>
        <pt x="431" y="390" on="0"/>
        <pt x="369" y="488" on="0"/>
      </contour>
    </TTGlyph>
    <TTGlyph name="Oacute.sc" xMin="34" yMin="-13" xMax="572" yMax="847">
      <contour>
        <pt x="172" y="671" on="1"/>
        <pt x="223" y="702" on="0"/>
        <pt x="346" y="800" on="0"/>
        <pt x="394" y="847" on="1"/>
        <pt x="497" y="722" on="1"/>
        <pt x="466" y="701" on="0"/>
        <pt x="391" y="662" on="0"/>
        <pt x="314" y="630" on="0"/>
        <pt x="237" y="606" on="0"/>
        <pt x="203" y="599" on="1"/>
      </contour>
      <contour>
        <pt x="284" y="-13" on="1"/>
        <pt x="230" y="-13" on="0"/>
        <pt x="137" y="24" on="0"/>
        <pt x="71" y="92" on="0"/>
        <pt x="34" y="191" on="0"/>
        <pt x="34" y="252" on="1"/>
        <pt x="34" y="324" on="0"/>
        <pt x="79" y="438" on="0"/>
        <pt x="157" y="515" on="0"/>
        <pt x="263" y="557" on="0"/>
        <pt x="322" y="557" on="1"/>
        <pt x="376" y="557" on="0"/>
        <pt x="468" y="520" on="0"/>
        <pt x="534" y="452" on="0"/>
        <pt x="572" y="353" on="0"/>
        <pt x="572" y="292" on="1"/>
        <pt x="572" y="220" on="0"/>
        <pt x="527" y="106" on="0"/>
        <pt x="449" y="29" on="0"/>
        <pt x="343" y="-13" on="0"/>
      </contour>
      <contour>
        <pt x="298" y="423" on="1"/>
        <pt x="255" y="423" on="0"/>
        <pt x="212" y="350" on="0"/>
        <pt x="212" y="280" on="1"/>
        <pt x="212" y="205" on="0"/>
        <pt x="265" y="122" on="0"/>
        <pt x="308" y="122" on="1"/>
        <pt x="350" y="122" on="0"/>
        <pt x="395" y="194" on="0"/>
        <pt x="395" y="265" on="1"/>
        <pt x="395" y="340" on="0"/>
        <pt x="341" y="423" on="0"/>
      </contour>
    </TTGlyph>
    <TTGlyph name="Obreve" xMin="37" yMin="-14" xMax="613" yMax="895">
      <contour>
        <pt x="332" y="681" on="1"/>
        <pt x="269" y="681" on="0"/>
        <pt x="168" y="763" on="0"/>
        <pt x="133" y="835" on="1"/>
        <pt x="237" y="895" on="1"/>
        <pt x="264" y="853" on="0"/>
        <pt x="316" y="813" on="0"/>
        <pt x="344" y="813" on="1"/>
        <pt x="374" y="813" on="0"/>
        <pt x="424" y="854" on="0"/>
        <pt x="449" y="892" on="1"/>
        <pt x="536" y="849" on="1"/>
        <pt x="499" y="774" on="0"/>
        <pt x="396" y="681" on="0"/>
      </contour>
      <contour>
        <pt x="305" y="-14" on="1"/>
        <pt x="247" y="-14" on="0"/>
        <pt x="148" y="28" on="0"/>
        <pt x="77" y="106" on="0"/>
        <pt x="37" y="218" on="0"/>
        <pt x="37" y="288" on="1"/>
        <pt x="37" y="369" on="0"/>
        <pt x="86" y="498" on="0"/>
        <pt x="169" y="587" on="0"/>
        <pt x="282" y="634" on="0"/>
        <pt x="345" y="634" on="1"/>
        <pt x="403" y="634" on="0"/>
        <pt x="502" y="592" on="0"/>
        <pt x="573" y="514" on="0"/>
        <pt x="613" y="402" on="0"/>
        <pt x="613" y="332" on="1"/>
        <pt x="613" y="251" on="0"/>
        <pt x="564" y="122" on="0"/>
        <pt x="481" y="33" on="0"/>
        <pt x="368" y="-14" on="0"/>
      </contour>
      <contour>
        <pt x="319" y="488" on="1"/>
        <pt x="270" y="488" on="0"/>
        <pt x="219" y="403" on="0"/>
        <pt x="219" y="319" on="1"/>
        <pt x="219" y="230" on="0"/>
        <pt x="281" y="132" on="0"/>
        <pt x="332" y="132" on="1"/>
        <pt x="381" y="132" on="0"/>
        <pt x="431" y="217" on="0"/>
        <pt x="431" y="301" on="1"/>
        <pt x="431" y="390" on="0"/>
        <pt x="369" y="488" on="0"/>
      </contour>
    </TTGlyph>
    <TTGlyph name="Obreve.sc" xMin="34" yMin="-13" xMax="572" yMax="818">
      <contour>
        <pt x="310" y="604" on="1"/>
        <pt x="247" y="604" on="0"/>
        <pt x="146" y="686" on="0"/>
        <pt x="111" y="758" on="1"/>
        <pt x="215" y="818" on="1"/>
        <pt x="242" y="776" on="0"/>
        <pt x="294" y="736" on="0"/>
        <pt x="322" y="736" on="1"/>
        <pt x="352" y="736" on="0"/>
        <pt x="402" y="777" on="0"/>
        <pt x="427" y="815" on="1"/>
        <pt x="514" y="772" on="1"/>
        <pt x="477" y="697" on="0"/>
        <pt x="374" y="604" on="0"/>
      </contour>
      <contour>
        <pt x="284" y="-13" on="1"/>
        <pt x="230" y="-13" on="0"/>
        <pt x="137" y="24" on="0"/>
        <pt x="71" y="92" on="0"/>
        <pt x="34" y="191" on="0"/>
        <pt x="34" y="252" on="1"/>
        <pt x="34" y="324" on="0"/>
        <pt x="79" y="438" on="0"/>
        <pt x="157" y="515" on="0"/>
        <pt x="263" y="557" on="0"/>
        <pt x="322" y="557" on="1"/>
        <pt x="376" y="557" on="0"/>
        <pt x="468" y="520" on="0"/>
        <pt x="534" y="452" on="0"/>
        <pt x="572" y="353" on="0"/>
        <pt x="572" y="292" on="1"/>
        <pt x="572" y="220" on="0"/>
        <pt x="527" y="106" on="0"/>
        <pt x="449" y="29" on="0"/>
        <pt x="343" y="-13" on="0"/>
      </contour>
      <contour>
        <pt x="298" y="423" on="1"/>
        <pt x="255" y="423" on="0"/>
        <pt x="212" y="350" on="0"/>
        <pt x="212" y="280" on="1"/>
        <pt x="212" y="205" on="0"/>
        <pt x="265" y="122" on="0"/>
        <pt x="308" y="122" on="1"/>
        <pt x="350" y="122" on="0"/>
        <pt x="395" y="194" on="0"/>
        <pt x="395" y="265" on="1"/>
        <pt x="395" y="340" on="0"/>
        <pt x="341" y="423" on="0"/>
      </contour>
    </TTGlyph>
    <TTGlyph name="Ocircumflex" xMin="37" yMin="-14" xMax="613" yMax="905">
      <contour>
        <pt x="437" y="676" on="1"/>
        <pt x="324" y="765" on="1"/>
        <pt x="215" y="677" on="1"/>
        <pt x="145" y="755" on="1"/>
        <pt x="322" y="905" on="1"/>
        <pt x="348" y="905" on="1"/>
        <pt x="527" y="769" on="1"/>
      </contour>
      <contour>
        <pt x="305" y="-14" on="1"/>
        <pt x="247" y="-14" on="0"/>
        <pt x="148" y="28" on="0"/>
        <pt x="77" y="106" on="0"/>
        <pt x="37" y="218" on="0"/>
        <pt x="37" y="288" on="1"/>
        <pt x="37" y="369" on="0"/>
        <pt x="86" y="498" on="0"/>
        <pt x="169" y="587" on="0"/>
        <pt x="282" y="634" on="0"/>
        <pt x="345" y="634" on="1"/>
        <pt x="403" y="634" on="0"/>
        <pt x="502" y="592" on="0"/>
        <pt x="573" y="514" on="0"/>
        <pt x="613" y="402" on="0"/>
        <pt x="613" y="332" on="1"/>
        <pt x="613" y="251" on="0"/>
        <pt x="564" y="122" on="0"/>
        <pt x="481" y="33" on="0"/>
        <pt x="368" y="-14" on="0"/>
      </contour>
      <contour>
        <pt x="319" y="488" on="1"/>
        <pt x="270" y="488" on="0"/>
        <pt x="219" y="403" on="0"/>
        <pt x="219" y="319" on="1"/>
        <pt x="219" y="230" on="0"/>
        <pt x="281" y="132" on="0"/>
        <pt x="332" y="132" on="1"/>
        <pt x="381" y="132" on="0"/>
        <pt x="431" y="217" on="0"/>
        <pt x="431" y="301" on="1"/>
        <pt x="431" y="390" on="0"/>
        <pt x="369" y="488" on="0"/>
      </contour>
    </TTGlyph>
    <TTGlyph name="Ocircumflex.sc" xMin="34" yMin="-13" xMax="572" yMax="828">
      <contour>
        <pt x="415" y="599" on="1"/>
        <pt x="302" y="688" on="1"/>
        <pt x="193" y="600" on="1"/>
        <pt x="123" y="678" on="1"/>
        <pt x="300" y="828" on="1"/>
        <pt x="326" y="828" on="1"/>
        <pt x="505" y="692" on="1"/>
      </contour>
      <contour>
        <pt x="284" y="-13" on="1"/>
        <pt x="230" y="-13" on="0"/>
        <pt x="137" y="24" on="0"/>
        <pt x="71" y="92" on="0"/>
        <pt x="34" y="191" on="0"/>
        <pt x="34" y="252" on="1"/>
        <pt x="34" y="324" on="0"/>
        <pt x="79" y="438" on="0"/>
        <pt x="157" y="515" on="0"/>
        <pt x="263" y="557" on="0"/>
        <pt x="322" y="557" on="1"/>
        <pt x="376" y="557" on="0"/>
        <pt x="468" y="520" on="0"/>
        <pt x="534" y="452" on="0"/>
        <pt x="572" y="353" on="0"/>
        <pt x="572" y="292" on="1"/>
        <pt x="572" y="220" on="0"/>
        <pt x="527" y="106" on="0"/>
        <pt x="449" y="29" on="0"/>
        <pt x="343" y="-13" on="0"/>
      </contour>
      <contour>
        <pt x="298" y="423" on="1"/>
        <pt x="255" y="423" on="0"/>
        <pt x="212" y="350" on="0"/>
        <pt x="212" y="280" on="1"/>
        <pt x="212" y="205" on="0"/>
        <pt x="265" y="122" on="0"/>
        <pt x="308" y="122" on="1"/>
        <pt x="350" y="122" on="0"/>
        <pt x="395" y="194" on="0"/>
        <pt x="395" y="265" on="1"/>
        <pt x="395" y="340" on="0"/>
        <pt x="341" y="423" on="0"/>
      </contour>
    </TTGlyph>
    <TTGlyph name="Odieresis" xMin="37" yMin="-14" xMax="613" yMax="851">
      <contour>
        <pt x="524" y="693" on="1"/>
        <pt x="362" y="693" on="1"/>
        <pt x="365" y="851" on="1"/>
        <pt x="527" y="851" on="1"/>
      </contour>
      <contour>
        <pt x="299" y="693" on="1"/>
        <pt x="138" y="693" on="1"/>
        <pt x="141" y="851" on="1"/>
        <pt x="302" y="851" on="1"/>
      </contour>
      <contour>
        <pt x="305" y="-14" on="1"/>
        <pt x="247" y="-14" on="0"/>
        <pt x="148" y="28" on="0"/>
        <pt x="77" y="106" on="0"/>
        <pt x="37" y="218" on="0"/>
        <pt x="37" y="288" on="1"/>
        <pt x="37" y="369" on="0"/>
        <pt x="86" y="498" on="0"/>
        <pt x="169" y="587" on="0"/>
        <pt x="282" y="634" on="0"/>
        <pt x="345" y="634" on="1"/>
        <pt x="403" y="634" on="0"/>
        <pt x="502" y="592" on="0"/>
        <pt x="573" y="514" on="0"/>
        <pt x="613" y="402" on="0"/>
        <pt x="613" y="332" on="1"/>
        <pt x="613" y="251" on="0"/>
        <pt x="564" y="122" on="0"/>
        <pt x="481" y="33" on="0"/>
        <pt x="368" y="-14" on="0"/>
      </contour>
      <contour>
        <pt x="319" y="488" on="1"/>
        <pt x="270" y="488" on="0"/>
        <pt x="219" y="403" on="0"/>
        <pt x="219" y="319" on="1"/>
        <pt x="219" y="230" on="0"/>
        <pt x="281" y="132" on="0"/>
        <pt x="332" y="132" on="1"/>
        <pt x="381" y="132" on="0"/>
        <pt x="431" y="217" on="0"/>
        <pt x="431" y="301" on="1"/>
        <pt x="431" y="390" on="0"/>
        <pt x="369" y="488" on="0"/>
      </contour>
    </TTGlyph>
    <TTGlyph name="Odieresis.sc" xMin="34" yMin="-13" xMax="572" yMax="774">
      <contour>
        <pt x="501" y="616" on="1"/>
        <pt x="339" y="616" on="1"/>
        <pt x="342" y="774" on="1"/>
        <pt x="504" y="774" on="1"/>
      </contour>
      <contour>
        <pt x="276" y="616" on="1"/>
        <pt x="115" y="616" on="1"/>
        <pt x="118" y="774" on="1"/>
        <pt x="279" y="774" on="1"/>
      </contour>
      <contour>
        <pt x="284" y="-13" on="1"/>
        <pt x="230" y="-13" on="0"/>
        <pt x="137" y="24" on="0"/>
        <pt x="71" y="92" on="0"/>
        <pt x="34" y="191" on="0"/>
        <pt x="34" y="252" on="1"/>
        <pt x="34" y="324" on="0"/>
        <pt x="79" y="438" on="0"/>
        <pt x="157" y="515" on="0"/>
        <pt x="263" y="557" on="0"/>
        <pt x="322" y="557" on="1"/>
        <pt x="376" y="557" on="0"/>
        <pt x="468" y="520" on="0"/>
        <pt x="534" y="452" on="0"/>
        <pt x="572" y="353" on="0"/>
        <pt x="572" y="292" on="1"/>
        <pt x="572" y="220" on="0"/>
        <pt x="527" y="106" on="0"/>
        <pt x="449" y="29" on="0"/>
        <pt x="343" y="-13" on="0"/>
      </contour>
      <contour>
        <pt x="298" y="423" on="1"/>
        <pt x="255" y="423" on="0"/>
        <pt x="212" y="350" on="0"/>
        <pt x="212" y="280" on="1"/>
        <pt x="212" y="205" on="0"/>
        <pt x="265" y="122" on="0"/>
        <pt x="308" y="122" on="1"/>
        <pt x="350" y="122" on="0"/>
        <pt x="395" y="194" on="0"/>
        <pt x="395" y="265" on="1"/>
        <pt x="395" y="340" on="0"/>
        <pt x="341" y="423" on="0"/>
      </contour>
    </TTGlyph>
    <TTGlyph name="Ograve" xMin="37" yMin="-14" xMax="613" yMax="925">
      <contour>
        <pt x="463" y="747" on="1"/>
        <pt x="428" y="676" on="1"/>
        <pt x="395" y="684" on="0"/>
        <pt x="320" y="709" on="0"/>
        <pt x="245" y="740" on="0"/>
        <pt x="171" y="777" on="0"/>
        <pt x="140" y="796" on="1"/>
        <pt x="235" y="925" on="1"/>
        <pt x="259" y="904" on="0"/>
        <pt x="318" y="855" on="0"/>
        <pt x="379" y="807" on="0"/>
        <pt x="438" y="763" on="0"/>
      </contour>
      <contour>
        <pt x="305" y="-14" on="1"/>
        <pt x="247" y="-14" on="0"/>
        <pt x="148" y="28" on="0"/>
        <pt x="77" y="106" on="0"/>
        <pt x="37" y="218" on="0"/>
        <pt x="37" y="288" on="1"/>
        <pt x="37" y="369" on="0"/>
        <pt x="86" y="498" on="0"/>
        <pt x="169" y="587" on="0"/>
        <pt x="282" y="634" on="0"/>
        <pt x="345" y="634" on="1"/>
        <pt x="403" y="634" on="0"/>
        <pt x="502" y="592" on="0"/>
        <pt x="573" y="514" on="0"/>
        <pt x="613" y="402" on="0"/>
        <pt x="613" y="332" on="1"/>
        <pt x="613" y="251" on="0"/>
        <pt x="564" y="122" on="0"/>
        <pt x="481" y="33" on="0"/>
        <pt x="368" y="-14" on="0"/>
      </contour>
      <contour>
        <pt x="319" y="488" on="1"/>
        <pt x="270" y="488" on="0"/>
        <pt x="219" y="403" on="0"/>
        <pt x="219" y="319" on="1"/>
        <pt x="219" y="230" on="0"/>
        <pt x="281" y="132" on="0"/>
        <pt x="332" y="132" on="1"/>
        <pt x="381" y="132" on="0"/>
        <pt x="431" y="217" on="0"/>
        <pt x="431" y="301" on="1"/>
        <pt x="431" y="390" on="0"/>
        <pt x="369" y="488" on="0"/>
      </contour>
    </TTGlyph>
    <TTGlyph name="Ograve.sc" xMin="34" yMin="-13" xMax="572" yMax="848">
      <contour>
        <pt x="441" y="670" on="1"/>
        <pt x="406" y="599" on="1"/>
        <pt x="373" y="607" on="0"/>
        <pt x="298" y="632" on="0"/>
        <pt x="223" y="663" on="0"/>
        <pt x="149" y="700" on="0"/>
        <pt x="118" y="719" on="1"/>
        <pt x="213" y="848" on="1"/>
        <pt x="237" y="827" on="0"/>
        <pt x="296" y="778" on="0"/>
        <pt x="357" y="730" on="0"/>
        <pt x="416" y="686" on="0"/>
      </contour>
      <contour>
        <pt x="284" y="-13" on="1"/>
        <pt x="230" y="-13" on="0"/>
        <pt x="137" y="24" on="0"/>
        <pt x="71" y="92" on="0"/>
        <pt x="34" y="191" on="0"/>
        <pt x="34" y="252" on="1"/>
        <pt x="34" y="324" on="0"/>
        <pt x="79" y="438" on="0"/>
        <pt x="157" y="515" on="0"/>
        <pt x="263" y="557" on="0"/>
        <pt x="322" y="557" on="1"/>
        <pt x="376" y="557" on="0"/>
        <pt x="468" y="520" on="0"/>
        <pt x="534" y="452" on="0"/>
        <pt x="572" y="353" on="0"/>
        <pt x="572" y="292" on="1"/>
        <pt x="572" y="220" on="0"/>
        <pt x="527" y="106" on="0"/>
        <pt x="449" y="29" on="0"/>
        <pt x="343" y="-13" on="0"/>
      </contour>
      <contour>
        <pt x="298" y="423" on="1"/>
        <pt x="255" y="423" on="0"/>
        <pt x="212" y="350" on="0"/>
        <pt x="212" y="280" on="1"/>
        <pt x="212" y="205" on="0"/>
        <pt x="265" y="122" on="0"/>
        <pt x="308" y="122" on="1"/>
        <pt x="350" y="122" on="0"/>
        <pt x="395" y="194" on="0"/>
        <pt x="395" y="265" on="1"/>
        <pt x="395" y="340" on="0"/>
        <pt x="341" y="423" on="0"/>
      </contour>
    </TTGlyph>
    <TTGlyph name="Ohungarumlaut" xMin="37" yMin="-14" xMax="613" yMax="939">
      <contour>
        <pt x="152" y="724" on="1"/>
        <pt x="180" y="770" on="0"/>
        <pt x="237" y="890" on="0"/>
        <pt x="255" y="939" on="1"/>
        <pt x="393" y="867" on="1"/>
        <pt x="359" y="818" on="0"/>
        <pt x="269" y="719" on="0"/>
        <pt x="221" y="681" on="1"/>
      </contour>
      <contour>
        <pt x="359" y="720" on="1"/>
        <pt x="389" y="768" on="0"/>
        <pt x="443" y="878" on="0"/>
        <pt x="462" y="929" on="1"/>
        <pt x="608" y="864" on="1"/>
        <pt x="572" y="815" on="0"/>
        <pt x="479" y="718" on="0"/>
        <pt x="431" y="680" on="1"/>
      </contour>
      <contour>
        <pt x="305" y="-14" on="1"/>
        <pt x="247" y="-14" on="0"/>
        <pt x="148" y="28" on="0"/>
        <pt x="77" y="106" on="0"/>
        <pt x="37" y="218" on="0"/>
        <pt x="37" y="288" on="1"/>
        <pt x="37" y="369" on="0"/>
        <pt x="86" y="498" on="0"/>
        <pt x="169" y="587" on="0"/>
        <pt x="282" y="634" on="0"/>
        <pt x="345" y="634" on="1"/>
        <pt x="403" y="634" on="0"/>
        <pt x="502" y="592" on="0"/>
        <pt x="573" y="514" on="0"/>
        <pt x="613" y="402" on="0"/>
        <pt x="613" y="332" on="1"/>
        <pt x="613" y="251" on="0"/>
        <pt x="564" y="122" on="0"/>
        <pt x="481" y="33" on="0"/>
        <pt x="368" y="-14" on="0"/>
      </contour>
      <contour>
        <pt x="319" y="488" on="1"/>
        <pt x="270" y="488" on="0"/>
        <pt x="219" y="403" on="0"/>
        <pt x="219" y="319" on="1"/>
        <pt x="219" y="230" on="0"/>
        <pt x="281" y="132" on="0"/>
        <pt x="332" y="132" on="1"/>
        <pt x="381" y="132" on="0"/>
        <pt x="431" y="217" on="0"/>
        <pt x="431" y="301" on="1"/>
        <pt x="431" y="390" on="0"/>
        <pt x="369" y="488" on="0"/>
      </contour>
    </TTGlyph>
    <TTGlyph name="Ohungarumlaut.sc" xMin="34" yMin="-13" xMax="585" yMax="862">
      <contour>
        <pt x="129" y="647" on="1"/>
        <pt x="157" y="693" on="0"/>
        <pt x="214" y="813" on="0"/>
        <pt x="232" y="862" on="1"/>
        <pt x="370" y="790" on="1"/>
        <pt x="336" y="741" on="0"/>
        <pt x="246" y="642" on="0"/>
        <pt x="198" y="604" on="1"/>
      </contour>
      <contour>
        <pt x="336" y="643" on="1"/>
        <pt x="366" y="691" on="0"/>
        <pt x="420" y="801" on="0"/>
        <pt x="439" y="852" on="1"/>
        <pt x="585" y="787" on="1"/>
        <pt x="549" y="738" on="0"/>
        <pt x="456" y="641" on="0"/>
        <pt x="408" y="603" on="1"/>
      </contour>
      <contour>
        <pt x="284" y="-13" on="1"/>
        <pt x="230" y="-13" on="0"/>
        <pt x="137" y="24" on="0"/>
        <pt x="71" y="92" on="0"/>
        <pt x="34" y="191" on="0"/>
        <pt x="34" y="252" on="1"/>
        <pt x="34" y="324" on="0"/>
        <pt x="79" y="438" on="0"/>
        <pt x="157" y="515" on="0"/>
        <pt x="263" y="557" on="0"/>
        <pt x="322" y="557" on="1"/>
        <pt x="376" y="557" on="0"/>
        <pt x="468" y="520" on="0"/>
        <pt x="534" y="452" on="0"/>
        <pt x="572" y="353" on="0"/>
        <pt x="572" y="292" on="1"/>
        <pt x="572" y="220" on="0"/>
        <pt x="527" y="106" on="0"/>
        <pt x="449" y="29" on="0"/>
        <pt x="343" y="-13" on="0"/>
      </contour>
      <contour>
        <pt x="298" y="423" on="1"/>
        <pt x="255" y="423" on="0"/>
        <pt x="212" y="350" on="0"/>
        <pt x="212" y="280" on="1"/>
        <pt x="212" y="205" on="0"/>
        <pt x="265" y="122" on="0"/>
        <pt x="308" y="122" on="1"/>
        <pt x="350" y="122" on="0"/>
        <pt x="395" y="194" on="0"/>
        <pt x="395" y="265" on="1"/>
        <pt x="395" y="340" on="0"/>
        <pt x="341" y="423" on="0"/>
      </contour>
    </TTGlyph>
    <TTGlyph name="Omacron" xMin="37" yMin="-14" xMax="613" yMax="843">
      <contour>
        <pt x="510" y="843" on="1"/>
        <pt x="510" y="702" on="1"/>
        <pt x="152" y="702" on="1"/>
        <pt x="152" y="843" on="1"/>
      </contour>
      <contour>
        <pt x="305" y="-14" on="1"/>
        <pt x="247" y="-14" on="0"/>
        <pt x="148" y="28" on="0"/>
        <pt x="77" y="106" on="0"/>
        <pt x="37" y="218" on="0"/>
        <pt x="37" y="288" on="1"/>
        <pt x="37" y="369" on="0"/>
        <pt x="86" y="498" on="0"/>
        <pt x="169" y="587" on="0"/>
        <pt x="282" y="634" on="0"/>
        <pt x="345" y="634" on="1"/>
        <pt x="403" y="634" on="0"/>
        <pt x="502" y="592" on="0"/>
        <pt x="573" y="514" on="0"/>
        <pt x="613" y="402" on="0"/>
        <pt x="613" y="332" on="1"/>
        <pt x="613" y="251" on="0"/>
        <pt x="564" y="122" on="0"/>
        <pt x="481" y="33" on="0"/>
        <pt x="368" y="-14" on="0"/>
      </contour>
      <contour>
        <pt x="319" y="488" on="1"/>
        <pt x="270" y="488" on="0"/>
        <pt x="219" y="403" on="0"/>
        <pt x="219" y="319" on="1"/>
        <pt x="219" y="230" on="0"/>
        <pt x="281" y="132" on="0"/>
        <pt x="332" y="132" on="1"/>
        <pt x="381" y="132" on="0"/>
        <pt x="431" y="217" on="0"/>
        <pt x="431" y="301" on="1"/>
        <pt x="431" y="390" on="0"/>
        <pt x="369" y="488" on="0"/>
      </contour>
    </TTGlyph>
    <TTGlyph name="Omacron.sc" xMin="34" yMin="-13" xMax="572" yMax="766">
      <contour>
        <pt x="487" y="766" on="1"/>
        <pt x="487" y="625" on="1"/>
        <pt x="129" y="625" on="1"/>
        <pt x="129" y="766" on="1"/>
      </contour>
      <contour>
        <pt x="284" y="-13" on="1"/>
        <pt x="230" y="-13" on="0"/>
        <pt x="137" y="24" on="0"/>
        <pt x="71" y="92" on="0"/>
        <pt x="34" y="191" on="0"/>
        <pt x="34" y="252" on="1"/>
        <pt x="34" y="324" on="0"/>
        <pt x="79" y="438" on="0"/>
        <pt x="157" y="515" on="0"/>
        <pt x="263" y="557" on="0"/>
        <pt x="322" y="557" on="1"/>
        <pt x="376" y="557" on="0"/>
        <pt x="468" y="520" on="0"/>
        <pt x="534" y="452" on="0"/>
        <pt x="572" y="353" on="0"/>
        <pt x="572" y="292" on="1"/>
        <pt x="572" y="220" on="0"/>
        <pt x="527" y="106" on="0"/>
        <pt x="449" y="29" on="0"/>
        <pt x="343" y="-13" on="0"/>
      </contour>
      <contour>
        <pt x="298" y="423" on="1"/>
        <pt x="255" y="423" on="0"/>
        <pt x="212" y="350" on="0"/>
        <pt x="212" y="280" on="1"/>
        <pt x="212" y="205" on="0"/>
        <pt x="265" y="122" on="0"/>
        <pt x="308" y="122" on="1"/>
        <pt x="350" y="122" on="0"/>
        <pt x="395" y="194" on="0"/>
        <pt x="395" y="265" on="1"/>
        <pt x="395" y="340" on="0"/>
        <pt x="341" y="423" on="0"/>
      </contour>
    </TTGlyph>
    <TTGlyph name="Omega" xMin="36" yMin="0" xMax="601" yMax="635">
      <contour>
        <pt x="285" y="6" on="1"/>
        <pt x="282" y="0" on="1"/>
        <pt x="36" y="0" on="1"/>
        <pt x="36" y="145" on="1"/>
        <pt x="133" y="145" on="1"/>
        <pt x="101" y="207" on="0"/>
        <pt x="67" y="331" on="0"/>
        <pt x="67" y="382" on="1"/>
        <pt x="67" y="439" on="0"/>
        <pt x="107" y="533" on="0"/>
        <pt x="176" y="599" on="0"/>
        <pt x="272" y="635" on="0"/>
        <pt x="328" y="635" on="1"/>
        <pt x="438" y="635" on="0"/>
        <pt x="571" y="497" on="0"/>
        <pt x="571" y="387" on="1"/>
        <pt x="571" y="333" on="0"/>
        <pt x="535" y="207" on="0"/>
        <pt x="502" y="145" on="1"/>
        <pt x="601" y="145" on="1"/>
        <pt x="601" y="0" on="1"/>
        <pt x="356" y="0" on="1"/>
        <pt x="352" y="6" on="1"/>
        <pt x="381" y="107" on="0"/>
        <pt x="410" y="272" on="0"/>
        <pt x="410" y="329" on="1"/>
        <pt x="410" y="405" on="0"/>
        <pt x="360" y="480" on="0"/>
        <pt x="319" y="480" on="1"/>
        <pt x="277" y="480" on="0"/>
        <pt x="227" y="405" on="0"/>
        <pt x="227" y="329" on="1"/>
        <pt x="227" y="272" on="0"/>
        <pt x="256" y="107" on="0"/>
      </contour>
    </TTGlyph>
    <TTGlyph name="Oslash" xMin="37" yMin="-49" xMax="613" yMax="669">
      <contour>
        <pt x="213" y="320" on="1"/>
        <pt x="213" y="295" on="0"/>
        <pt x="219" y="250" on="0"/>
        <pt x="223" y="231" on="1"/>
        <pt x="385" y="467" on="1"/>
        <pt x="372" y="480" on="0"/>
        <pt x="338" y="494" on="0"/>
        <pt x="319" y="494" on="1"/>
        <pt x="267" y="494" on="0"/>
        <pt x="213" y="405" on="0"/>
      </contour>
      <contour>
        <pt x="332" y="126" on="1"/>
        <pt x="383" y="126" on="0"/>
        <pt x="437" y="214" on="0"/>
        <pt x="437" y="300" on="1"/>
        <pt x="437" y="325" on="0"/>
        <pt x="431" y="371" on="0"/>
        <pt x="426" y="390" on="1"/>
        <pt x="264" y="154" on="1"/>
        <pt x="278" y="141" on="0"/>
        <pt x="313" y="126" on="0"/>
      </contour>
      <contour>
        <pt x="305" y="-14" on="1"/>
        <pt x="272" y="-14" on="0"/>
        <pt x="212" y="-1" on="0"/>
        <pt x="186" y="12" on="1"/>
        <pt x="144" y="-49" on="1"/>
        <pt x="53" y="10" on="1"/>
        <pt x="101" y="80" on="1"/>
        <pt x="71" y="118" on="0"/>
        <pt x="37" y="224" on="0"/>
        <pt x="37" y="288" on="1"/>
        <pt x="37" y="369" on="0"/>
        <pt x="86" y="498" on="0"/>
        <pt x="169" y="587" on="0"/>
        <pt x="282" y="634" on="0"/>
        <pt x="345" y="634" on="1"/>
        <pt x="378" y="634" on="0"/>
        <pt x="438" y="621" on="0"/>
        <pt x="464" y="608" on="1"/>
        <pt x="506" y="669" on="1"/>
        <pt x="597" y="610" on="1"/>
        <pt x="549" y="539" on="1"/>
        <pt x="579" y="501" on="0"/>
        <pt x="613" y="396" on="0"/>
        <pt x="613" y="332" on="1"/>
        <pt x="613" y="251" on="0"/>
        <pt x="564" y="122" on="0"/>
        <pt x="481" y="33" on="0"/>
        <pt x="368" y="-14" on="0"/>
      </contour>
    </TTGlyph>
    <TTGlyph name="Oslash.sc" xMin="34" yMin="-46" xMax="572" yMax="592">
      <contour>
        <pt x="207" y="280" on="1"/>
        <pt x="207" y="261" on="0"/>
        <pt x="210" y="227" on="0"/>
        <pt x="214" y="212" on="1"/>
        <pt x="352" y="408" on="1"/>
        <pt x="341" y="418" on="0"/>
        <pt x="313" y="428" on="0"/>
        <pt x="298" y="428" on="1"/>
        <pt x="253" y="428" on="0"/>
        <pt x="207" y="353" on="0"/>
      </contour>
      <contour>
        <pt x="308" y="117" on="1"/>
        <pt x="353" y="117" on="0"/>
        <pt x="400" y="191" on="0"/>
        <pt x="400" y="264" on="1"/>
        <pt x="400" y="285" on="0"/>
        <pt x="396" y="322" on="0"/>
        <pt x="392" y="338" on="1"/>
        <pt x="251" y="139" on="1"/>
        <pt x="263" y="129" on="0"/>
        <pt x="292" y="117" on="0"/>
      </contour>
      <contour>
        <pt x="284" y="-13" on="1"/>
        <pt x="254" y="-13" on="0"/>
        <pt x="198" y="-1" on="0"/>
        <pt x="174" y="9" on="1"/>
        <pt x="134" y="-46" on="1"/>
        <pt x="48" y="8" on="1"/>
        <pt x="93" y="71" on="1"/>
        <pt x="65" y="105" on="0"/>
        <pt x="34" y="196" on="0"/>
        <pt x="34" y="252" on="1"/>
        <pt x="34" y="324" on="0"/>
        <pt x="79" y="438" on="0"/>
        <pt x="157" y="515" on="0"/>
        <pt x="263" y="557" on="0"/>
        <pt x="322" y="557" on="1"/>
        <pt x="352" y="557" on="0"/>
        <pt x="406" y="545" on="0"/>
        <pt x="431" y="535" on="1"/>
        <pt x="471" y="592" on="1"/>
        <pt x="558" y="538" on="1"/>
        <pt x="512" y="474" on="1"/>
        <pt x="540" y="440" on="0"/>
        <pt x="572" y="348" on="0"/>
        <pt x="572" y="292" on="1"/>
        <pt x="572" y="220" on="0"/>
        <pt x="527" y="106" on="0"/>
        <pt x="449" y="29" on="0"/>
        <pt x="343" y="-13" on="0"/>
      </contour>
    </TTGlyph>
    <TTGlyph name="Oslashacute" xMin="37" yMin="-49" xMax="613" yMax="927">
      <contour>
        <pt x="192" y="751" on="1"/>
        <pt x="243" y="782" on="0"/>
        <pt x="366" y="880" on="0"/>
        <pt x="414" y="927" on="1"/>
        <pt x="517" y="802" on="1"/>
        <pt x="486" y="781" on="0"/>
        <pt x="411" y="742" on="0"/>
        <pt x="334" y="710" on="0"/>
        <pt x="257" y="686" on="0"/>
        <pt x="223" y="679" on="1"/>
      </contour>
      <contour>
        <pt x="213" y="320" on="1"/>
        <pt x="213" y="295" on="0"/>
        <pt x="219" y="250" on="0"/>
        <pt x="223" y="231" on="1"/>
        <pt x="385" y="467" on="1"/>
        <pt x="372" y="480" on="0"/>
        <pt x="338" y="494" on="0"/>
        <pt x="319" y="494" on="1"/>
        <pt x="267" y="494" on="0"/>
        <pt x="213" y="405" on="0"/>
      </contour>
      <contour>
        <pt x="332" y="126" on="1"/>
        <pt x="383" y="126" on="0"/>
        <pt x="437" y="214" on="0"/>
        <pt x="437" y="300" on="1"/>
        <pt x="437" y="325" on="0"/>
        <pt x="431" y="371" on="0"/>
        <pt x="426" y="390" on="1"/>
        <pt x="264" y="154" on="1"/>
        <pt x="278" y="141" on="0"/>
        <pt x="313" y="126" on="0"/>
      </contour>
      <contour>
        <pt x="305" y="-14" on="1"/>
        <pt x="272" y="-14" on="0"/>
        <pt x="212" y="-1" on="0"/>
        <pt x="186" y="12" on="1"/>
        <pt x="144" y="-49" on="1"/>
        <pt x="53" y="10" on="1"/>
        <pt x="101" y="80" on="1"/>
        <pt x="71" y="118" on="0"/>
        <pt x="37" y="224" on="0"/>
        <pt x="37" y="288" on="1"/>
        <pt x="37" y="369" on="0"/>
        <pt x="86" y="498" on="0"/>
        <pt x="169" y="587" on="0"/>
        <pt x="282" y="634" on="0"/>
        <pt x="345" y="634" on="1"/>
        <pt x="378" y="634" on="0"/>
        <pt x="438" y="621" on="0"/>
        <pt x="464" y="608" on="1"/>
        <pt x="506" y="669" on="1"/>
        <pt x="597" y="610" on="1"/>
        <pt x="549" y="539" on="1"/>
        <pt x="579" y="501" on="0"/>
        <pt x="613" y="396" on="0"/>
        <pt x="613" y="332" on="1"/>
        <pt x="613" y="251" on="0"/>
        <pt x="564" y="122" on="0"/>
        <pt x="481" y="33" on="0"/>
        <pt x="368" y="-14" on="0"/>
      </contour>
    </TTGlyph>
    <TTGlyph name="Oslashacute.sc" xMin="34" yMin="-46" xMax="572" yMax="850">
      <contour>
        <pt x="169" y="674" on="1"/>
        <pt x="220" y="705" on="0"/>
        <pt x="343" y="803" on="0"/>
        <pt x="391" y="850" on="1"/>
        <pt x="494" y="725" on="1"/>
        <pt x="463" y="704" on="0"/>
        <pt x="388" y="665" on="0"/>
        <pt x="311" y="633" on="0"/>
        <pt x="234" y="609" on="0"/>
        <pt x="200" y="602" on="1"/>
      </contour>
      <contour>
        <pt x="207" y="280" on="1"/>
        <pt x="207" y="261" on="0"/>
        <pt x="210" y="227" on="0"/>
        <pt x="214" y="212" on="1"/>
        <pt x="352" y="408" on="1"/>
        <pt x="341" y="418" on="0"/>
        <pt x="313" y="428" on="0"/>
        <pt x="298" y="428" on="1"/>
        <pt x="253" y="428" on="0"/>
        <pt x="207" y="353" on="0"/>
      </contour>
      <contour>
        <pt x="308" y="117" on="1"/>
        <pt x="353" y="117" on="0"/>
        <pt x="400" y="191" on="0"/>
        <pt x="400" y="264" on="1"/>
        <pt x="400" y="285" on="0"/>
        <pt x="396" y="322" on="0"/>
        <pt x="392" y="338" on="1"/>
        <pt x="251" y="139" on="1"/>
        <pt x="263" y="129" on="0"/>
        <pt x="292" y="117" on="0"/>
      </contour>
      <contour>
        <pt x="284" y="-13" on="1"/>
        <pt x="254" y="-13" on="0"/>
        <pt x="198" y="-1" on="0"/>
        <pt x="174" y="9" on="1"/>
        <pt x="134" y="-46" on="1"/>
        <pt x="48" y="8" on="1"/>
        <pt x="93" y="71" on="1"/>
        <pt x="65" y="105" on="0"/>
        <pt x="34" y="196" on="0"/>
        <pt x="34" y="252" on="1"/>
        <pt x="34" y="324" on="0"/>
        <pt x="79" y="438" on="0"/>
        <pt x="157" y="515" on="0"/>
        <pt x="263" y="557" on="0"/>
        <pt x="322" y="557" on="1"/>
        <pt x="352" y="557" on="0"/>
        <pt x="406" y="545" on="0"/>
        <pt x="431" y="535" on="1"/>
        <pt x="471" y="592" on="1"/>
        <pt x="558" y="538" on="1"/>
        <pt x="512" y="474" on="1"/>
        <pt x="540" y="440" on="0"/>
        <pt x="572" y="348" on="0"/>
        <pt x="572" y="292" on="1"/>
        <pt x="572" y="220" on="0"/>
        <pt x="527" y="106" on="0"/>
        <pt x="449" y="29" on="0"/>
        <pt x="343" y="-13" on="0"/>
      </contour>
    </TTGlyph>
    <TTGlyph name="Otilde" xMin="37" yMin="-14" xMax="613" yMax="881">
      <contour>
        <pt x="410" y="685" on="1"/>
        <pt x="386" y="685" on="0"/>
        <pt x="343" y="706" on="0"/>
        <pt x="306" y="730" on="0"/>
        <pt x="274" y="751" on="0"/>
        <pt x="262" y="751" on="1"/>
        <pt x="251" y="751" on="0"/>
        <pt x="226" y="725" on="0"/>
        <pt x="209" y="691" on="1"/>
        <pt x="127" y="726" on="1"/>
        <pt x="150" y="792" on="0"/>
        <pt x="223" y="881" on="0"/>
        <pt x="270" y="881" on="1"/>
        <pt x="294" y="881" on="0"/>
        <pt x="336" y="860" on="0"/>
        <pt x="373" y="836" on="0"/>
        <pt x="405" y="815" on="0"/>
        <pt x="417" y="815" on="1"/>
        <pt x="427" y="815" on="0"/>
        <pt x="454" y="843" on="0"/>
        <pt x="472" y="879" on="1"/>
        <pt x="554" y="844" on="1"/>
        <pt x="530" y="776" on="0"/>
        <pt x="457" y="685" on="0"/>
      </contour>
      <contour>
        <pt x="305" y="-14" on="1"/>
        <pt x="247" y="-14" on="0"/>
        <pt x="148" y="28" on="0"/>
        <pt x="77" y="106" on="0"/>
        <pt x="37" y="218" on="0"/>
        <pt x="37" y="288" on="1"/>
        <pt x="37" y="369" on="0"/>
        <pt x="86" y="498" on="0"/>
        <pt x="169" y="587" on="0"/>
        <pt x="282" y="634" on="0"/>
        <pt x="345" y="634" on="1"/>
        <pt x="403" y="634" on="0"/>
        <pt x="502" y="592" on="0"/>
        <pt x="573" y="514" on="0"/>
        <pt x="613" y="402" on="0"/>
        <pt x="613" y="332" on="1"/>
        <pt x="613" y="251" on="0"/>
        <pt x="564" y="122" on="0"/>
        <pt x="481" y="33" on="0"/>
        <pt x="368" y="-14" on="0"/>
      </contour>
      <contour>
        <pt x="319" y="488" on="1"/>
        <pt x="270" y="488" on="0"/>
        <pt x="219" y="403" on="0"/>
        <pt x="219" y="319" on="1"/>
        <pt x="219" y="230" on="0"/>
        <pt x="281" y="132" on="0"/>
        <pt x="332" y="132" on="1"/>
        <pt x="381" y="132" on="0"/>
        <pt x="431" y="217" on="0"/>
        <pt x="431" y="301" on="1"/>
        <pt x="431" y="390" on="0"/>
        <pt x="369" y="488" on="0"/>
      </contour>
    </TTGlyph>
    <TTGlyph name="Otilde.sc" xMin="34" yMin="-13" xMax="572" yMax="804">
      <contour>
        <pt x="387" y="608" on="1"/>
        <pt x="363" y="608" on="0"/>
        <pt x="320" y="629" on="0"/>
        <pt x="283" y="653" on="0"/>
        <pt x="251" y="674" on="0"/>
        <pt x="239" y="674" on="1"/>
        <pt x="228" y="674" on="0"/>
        <pt x="203" y="648" on="0"/>
        <pt x="186" y="614" on="1"/>
        <pt x="104" y="649" on="1"/>
        <pt x="127" y="715" on="0"/>
        <pt x="200" y="804" on="0"/>
        <pt x="247" y="804" on="1"/>
        <pt x="271" y="804" on="0"/>
        <pt x="313" y="783" on="0"/>
        <pt x="350" y="759" on="0"/>
        <pt x="382" y="738" on="0"/>
        <pt x="394" y="738" on="1"/>
        <pt x="404" y="738" on="0"/>
        <pt x="431" y="766" on="0"/>
        <pt x="449" y="802" on="1"/>
        <pt x="531" y="767" on="1"/>
        <pt x="507" y="699" on="0"/>
        <pt x="434" y="608" on="0"/>
      </contour>
      <contour>
        <pt x="284" y="-13" on="1"/>
        <pt x="230" y="-13" on="0"/>
        <pt x="137" y="24" on="0"/>
        <pt x="71" y="92" on="0"/>
        <pt x="34" y="191" on="0"/>
        <pt x="34" y="252" on="1"/>
        <pt x="34" y="324" on="0"/>
        <pt x="79" y="438" on="0"/>
        <pt x="157" y="515" on="0"/>
        <pt x="263" y="557" on="0"/>
        <pt x="322" y="557" on="1"/>
        <pt x="376" y="557" on="0"/>
        <pt x="468" y="520" on="0"/>
        <pt x="534" y="452" on="0"/>
        <pt x="572" y="353" on="0"/>
        <pt x="572" y="292" on="1"/>
        <pt x="572" y="220" on="0"/>
        <pt x="527" y="106" on="0"/>
        <pt x="449" y="29" on="0"/>
        <pt x="343" y="-13" on="0"/>
      </contour>
      <contour>
        <pt x="298" y="423" on="1"/>
        <pt x="255" y="423" on="0"/>
        <pt x="212" y="350" on="0"/>
        <pt x="212" y="280" on="1"/>
        <pt x="212" y="205" on="0"/>
        <pt x="265" y="122" on="0"/>
        <pt x="308" y="122" on="1"/>
        <pt x="350" y="122" on="0"/>
        <pt x="395" y="194" on="0"/>
        <pt x="395" y="265" on="1"/>
        <pt x="395" y="340" on="0"/>
        <pt x="341" y="423" on="0"/>
      </contour>
    </TTGlyph>
    <TTGlyph name="P" xMin="68" yMin="0" xMax="552" yMax="629">
      <contour>
        <pt x="242" y="0" on="1"/>
        <pt x="68" y="0" on="1"/>
        <pt x="68" y="619" on="1"/>
        <pt x="113" y="624" on="0"/>
        <pt x="193" y="629" on="0"/>
        <pt x="229" y="629" on="1"/>
        <pt x="395" y="629" on="0"/>
        <pt x="552" y="521" on="0"/>
        <pt x="552" y="417" on="1"/>
        <pt x="552" y="360" on="0"/>
        <pt x="506" y="271" on="0"/>
        <pt x="424" y="207" on="0"/>
        <pt x="310" y="166" on="0"/>
        <pt x="242" y="156" on="1"/>
      </contour>
      <contour>
        <pt x="286" y="290" on="1"/>
        <pt x="334" y="290" on="0"/>
        <pt x="383" y="334" on="0"/>
        <pt x="383" y="383" on="1"/>
        <pt x="383" y="434" on="0"/>
        <pt x="322" y="485" on="0"/>
        <pt x="265" y="485" on="1"/>
        <pt x="260" y="485" on="0"/>
        <pt x="248" y="485" on="0"/>
        <pt x="242" y="484" on="1"/>
        <pt x="242" y="293" on="1"/>
        <pt x="254" y="292" on="0"/>
        <pt x="276" y="290" on="0"/>
      </contour>
    </TTGlyph>
    <TTGlyph name="P.sc" xMin="62" yMin="0" xMax="519" yMax="553">
      <contour>
        <pt x="232" y="0" on="1"/>
        <pt x="62" y="0" on="1"/>
        <pt x="62" y="544" on="1"/>
        <pt x="105" y="548" on="0"/>
        <pt x="181" y="553" on="0"/>
        <pt x="215" y="553" on="1"/>
        <pt x="373" y="553" on="0"/>
        <pt x="519" y="458" on="0"/>
        <pt x="519" y="365" on="1"/>
        <pt x="519" y="315" on="0"/>
        <pt x="476" y="236" on="0"/>
        <pt x="400" y="180" on="0"/>
        <pt x="294" y="143" on="0"/>
        <pt x="232" y="133" on="1"/>
      </contour>
      <contour>
        <pt x="271" y="256" on="1"/>
        <pt x="311" y="256" on="0"/>
        <pt x="352" y="294" on="0"/>
        <pt x="352" y="335" on="1"/>
        <pt x="352" y="378" on="0"/>
        <pt x="299" y="421" on="0"/>
        <pt x="250" y="421" on="1"/>
        <pt x="246" y="421" on="0"/>
        <pt x="236" y="421" on="0"/>
        <pt x="232" y="420" on="1"/>
        <pt x="232" y="259" on="1"/>
        <pt x="242" y="258" on="0"/>
        <pt x="262" y="256" on="0"/>
      </contour>
    </TTGlyph>
    <TTGlyph name="Q" xMin="37" yMin="-156" xMax="613" yMax="634">
      <contour>
        <pt x="548" y="-156" on="1"/>
        <pt x="243" y="-100" on="1"/>
        <pt x="264" y="-11" on="1"/>
        <pt x="164" y="2" on="0"/>
        <pt x="37" y="161" on="0"/>
        <pt x="37" y="288" on="1"/>
        <pt x="37" y="369" on="0"/>
        <pt x="86" y="498" on="0"/>
        <pt x="169" y="587" on="0"/>
        <pt x="282" y="634" on="0"/>
        <pt x="345" y="634" on="1"/>
        <pt x="403" y="634" on="0"/>
        <pt x="502" y="592" on="0"/>
        <pt x="573" y="514" on="0"/>
        <pt x="613" y="402" on="0"/>
        <pt x="613" y="332" on="1"/>
        <pt x="613" y="221" on="0"/>
        <pt x="524" y="63" on="0"/>
        <pt x="453" y="23" on="1"/>
        <pt x="453" y="22" on="1"/>
        <pt x="575" y="-1" on="1"/>
      </contour>
      <contour>
        <pt x="319" y="488" on="1"/>
        <pt x="270" y="488" on="0"/>
        <pt x="219" y="403" on="0"/>
        <pt x="219" y="319" on="1"/>
        <pt x="219" y="230" on="0"/>
        <pt x="281" y="132" on="0"/>
        <pt x="332" y="132" on="1"/>
        <pt x="381" y="132" on="0"/>
        <pt x="431" y="217" on="0"/>
        <pt x="431" y="301" on="1"/>
        <pt x="431" y="390" on="0"/>
        <pt x="369" y="488" on="0"/>
      </contour>
    </TTGlyph>
    <TTGlyph name="Q.sc" xMin="34" yMin="-144" xMax="572" yMax="557">
      <contour>
        <pt x="514" y="-144" on="1"/>
        <pt x="225" y="-95" on="1"/>
        <pt x="245" y="-9" on="1"/>
        <pt x="152" y="4" on="0"/>
        <pt x="34" y="143" on="0"/>
        <pt x="34" y="254" on="1"/>
        <pt x="34" y="325" on="0"/>
        <pt x="79" y="438" on="0"/>
        <pt x="157" y="516" on="0"/>
        <pt x="263" y="557" on="0"/>
        <pt x="322" y="557" on="1"/>
        <pt x="376" y="557" on="0"/>
        <pt x="468" y="520" on="0"/>
        <pt x="534" y="452" on="0"/>
        <pt x="572" y="354" on="0"/>
        <pt x="572" y="293" on="1"/>
        <pt x="572" y="196" on="0"/>
        <pt x="490" y="57" on="0"/>
        <pt x="424" y="22" on="1"/>
        <pt x="424" y="22" on="1"/>
        <pt x="539" y="1" on="1"/>
      </contour>
      <contour>
        <pt x="298" y="423" on="1"/>
        <pt x="255" y="423" on="0"/>
        <pt x="212" y="351" on="0"/>
        <pt x="212" y="281" on="1"/>
        <pt x="212" y="206" on="0"/>
        <pt x="265" y="124" on="0"/>
        <pt x="308" y="124" on="1"/>
        <pt x="350" y="124" on="0"/>
        <pt x="395" y="196" on="0"/>
        <pt x="395" y="266" on="1"/>
        <pt x="395" y="341" on="0"/>
        <pt x="341" y="423" on="0"/>
      </contour>
    </TTGlyph>
    <TTGlyph name="R" xMin="68" yMin="-7" xMax="597" yMax="628">
      <contour>
        <pt x="410" y="-7" on="1"/>
        <pt x="308" y="190" on="1"/>
        <pt x="240" y="188" on="1"/>
        <pt x="240" y="0" on="1"/>
        <pt x="68" y="0" on="1"/>
        <pt x="68" y="619" on="1"/>
        <pt x="114" y="623" on="0"/>
        <pt x="195" y="628" on="0"/>
        <pt x="230" y="628" on="1"/>
        <pt x="320" y="628" on="0"/>
        <pt x="442" y="601" on="0"/>
        <pt x="515" y="553" on="0"/>
        <pt x="547" y="486" on="0"/>
        <pt x="547" y="445" on="1"/>
        <pt x="547" y="389" on="0"/>
        <pt x="490" y="307" on="0"/>
        <pt x="445" y="276" on="1"/>
        <pt x="597" y="7" on="1"/>
      </contour>
      <contour>
        <pt x="240" y="487" on="1"/>
        <pt x="240" y="306" on="1"/>
        <pt x="322" y="308" on="1"/>
        <pt x="347" y="324" on="0"/>
        <pt x="376" y="373" on="0"/>
        <pt x="376" y="404" on="1"/>
        <pt x="376" y="445" on="0"/>
        <pt x="321" y="488" on="0"/>
        <pt x="268" y="488" on="1"/>
        <pt x="261" y="488" on="0"/>
        <pt x="247" y="488" on="0"/>
      </contour>
    </TTGlyph>
    <TTGlyph name="R.sc" xMin="62" yMin="-6" xMax="560" yMax="552">
      <contour>
        <pt x="376" y="-6" on="1"/>
        <pt x="287" y="164" on="1"/>
        <pt x="230" y="163" on="1"/>
        <pt x="230" y="0" on="1"/>
        <pt x="62" y="0" on="1"/>
        <pt x="62" y="544" on="1"/>
        <pt x="105" y="548" on="0"/>
        <pt x="182" y="552" on="0"/>
        <pt x="216" y="552" on="1"/>
        <pt x="301" y="552" on="0"/>
        <pt x="416" y="528" on="0"/>
        <pt x="485" y="486" on="0"/>
        <pt x="514" y="426" on="0"/>
        <pt x="514" y="390" on="1"/>
        <pt x="514" y="341" on="0"/>
        <pt x="462" y="270" on="0"/>
        <pt x="420" y="243" on="1"/>
        <pt x="560" y="6" on="1"/>
      </contour>
      <contour>
        <pt x="230" y="423" on="1"/>
        <pt x="230" y="270" on="1"/>
        <pt x="299" y="272" on="1"/>
        <pt x="321" y="285" on="0"/>
        <pt x="346" y="326" on="0"/>
        <pt x="346" y="353" on="1"/>
        <pt x="346" y="389" on="0"/>
        <pt x="299" y="424" on="0"/>
        <pt x="253" y="424" on="1"/>
        <pt x="247" y="424" on="0"/>
        <pt x="236" y="424" on="0"/>
      </contour>
    </TTGlyph>
    <TTGlyph name="R_p" xMin="59" yMin="-176" xMax="914" yMax="629">
      <contour>
        <pt x="331" y="-9" on="1"/>
        <pt x="259" y="194" on="1"/>
        <pt x="209" y="192" on="1"/>
        <pt x="209" y="0" on="1"/>
        <pt x="59" y="0" on="1"/>
        <pt x="59" y="619" on="1"/>
        <pt x="99" y="624" on="0"/>
        <pt x="170" y="629" on="0"/>
        <pt x="201" y="629" on="1"/>
        <pt x="348" y="629" on="0"/>
        <pt x="461" y="529" on="0"/>
        <pt x="461" y="448" on="1"/>
        <pt x="461" y="391" on="0"/>
        <pt x="416" y="310" on="0"/>
        <pt x="379" y="279" on="1"/>
        <pt x="485" y="9" on="1"/>
      </contour>
      <contour>
        <pt x="514" y="-176" on="1"/>
        <pt x="514" y="-11" on="1"/>
        <pt x="514" y="193" on="0"/>
        <pt x="510" y="438" on="0"/>
        <pt x="506" y="510" on="1"/>
        <pt x="643" y="518" on="1"/>
        <pt x="649" y="470" on="1"/>
        <pt x="670" y="494" on="0"/>
        <pt x="726" y="527" on="0"/>
        <pt x="763" y="527" on="1"/>
        <pt x="833" y="527" on="0"/>
        <pt x="914" y="395" on="0"/>
        <pt x="914" y="285" on="1"/>
        <pt x="914" y="142" on="0"/>
        <pt x="775" y="-12" on="0"/>
        <pt x="662" y="-12" on="1"/>
        <pt x="662" y="-164" on="1"/>
      </contour>
      <contour>
        <pt x="209" y="496" on="1"/>
        <pt x="209" y="305" on="1"/>
        <pt x="271" y="307" on="1"/>
        <pt x="290" y="325" on="0"/>
        <pt x="311" y="378" on="0"/>
        <pt x="311" y="410" on="1"/>
        <pt x="311" y="454" on="0"/>
        <pt x="272" y="497" on="0"/>
        <pt x="231" y="497" on="1"/>
        <pt x="226" y="497" on="0"/>
        <pt x="215" y="497" on="0"/>
      </contour>
      <contour>
        <pt x="699" y="121" on="1"/>
        <pt x="731" y="121" on="0"/>
        <pt x="768" y="181" on="0"/>
        <pt x="768" y="250" on="1"/>
        <pt x="768" y="322" on="0"/>
        <pt x="729" y="390" on="0"/>
        <pt x="697" y="390" on="1"/>
        <pt x="688" y="390" on="0"/>
        <pt x="668" y="384" on="0"/>
        <pt x="658" y="378" on="1"/>
        <pt x="659" y="332" on="0"/>
        <pt x="661" y="201" on="0"/>
        <pt x="661" y="127" on="1"/>
        <pt x="671" y="124" on="0"/>
        <pt x="689" y="121" on="0"/>
      </contour>
    </TTGlyph>
    <TTGlyph name="Racute" xMin="68" yMin="-7" xMax="597" yMax="921">
      <contour>
        <pt x="145" y="745" on="1"/>
        <pt x="196" y="776" on="0"/>
        <pt x="319" y="874" on="0"/>
        <pt x="367" y="921" on="1"/>
        <pt x="470" y="796" on="1"/>
        <pt x="439" y="775" on="0"/>
        <pt x="364" y="736" on="0"/>
        <pt x="287" y="704" on="0"/>
        <pt x="210" y="680" on="0"/>
        <pt x="176" y="673" on="1"/>
      </contour>
      <contour>
        <pt x="410" y="-7" on="1"/>
        <pt x="308" y="190" on="1"/>
        <pt x="240" y="188" on="1"/>
        <pt x="240" y="0" on="1"/>
        <pt x="68" y="0" on="1"/>
        <pt x="68" y="619" on="1"/>
        <pt x="114" y="623" on="0"/>
        <pt x="195" y="628" on="0"/>
        <pt x="230" y="628" on="1"/>
        <pt x="320" y="628" on="0"/>
        <pt x="442" y="601" on="0"/>
        <pt x="515" y="553" on="0"/>
        <pt x="547" y="486" on="0"/>
        <pt x="547" y="445" on="1"/>
        <pt x="547" y="389" on="0"/>
        <pt x="490" y="307" on="0"/>
        <pt x="445" y="276" on="1"/>
        <pt x="597" y="7" on="1"/>
      </contour>
      <contour>
        <pt x="240" y="487" on="1"/>
        <pt x="240" y="306" on="1"/>
        <pt x="322" y="308" on="1"/>
        <pt x="347" y="324" on="0"/>
        <pt x="376" y="373" on="0"/>
        <pt x="376" y="404" on="1"/>
        <pt x="376" y="445" on="0"/>
        <pt x="321" y="488" on="0"/>
        <pt x="268" y="488" on="1"/>
        <pt x="261" y="488" on="0"/>
        <pt x="247" y="488" on="0"/>
      </contour>
    </TTGlyph>
    <TTGlyph name="Racute.sc" xMin="62" yMin="-6" xMax="560" yMax="845">
      <contour>
        <pt x="131" y="669" on="1"/>
        <pt x="182" y="700" on="0"/>
        <pt x="305" y="798" on="0"/>
        <pt x="353" y="845" on="1"/>
        <pt x="456" y="720" on="1"/>
        <pt x="425" y="699" on="0"/>
        <pt x="350" y="660" on="0"/>
        <pt x="273" y="628" on="0"/>
        <pt x="196" y="604" on="0"/>
        <pt x="162" y="597" on="1"/>
      </contour>
      <contour>
        <pt x="376" y="-6" on="1"/>
        <pt x="287" y="164" on="1"/>
        <pt x="230" y="163" on="1"/>
        <pt x="230" y="0" on="1"/>
        <pt x="62" y="0" on="1"/>
        <pt x="62" y="544" on="1"/>
        <pt x="105" y="548" on="0"/>
        <pt x="182" y="552" on="0"/>
        <pt x="216" y="552" on="1"/>
        <pt x="301" y="552" on="0"/>
        <pt x="416" y="528" on="0"/>
        <pt x="485" y="486" on="0"/>
        <pt x="514" y="426" on="0"/>
        <pt x="514" y="390" on="1"/>
        <pt x="514" y="341" on="0"/>
        <pt x="462" y="270" on="0"/>
        <pt x="420" y="243" on="1"/>
        <pt x="560" y="6" on="1"/>
      </contour>
      <contour>
        <pt x="230" y="423" on="1"/>
        <pt x="230" y="270" on="1"/>
        <pt x="299" y="272" on="1"/>
        <pt x="321" y="285" on="0"/>
        <pt x="346" y="326" on="0"/>
        <pt x="346" y="353" on="1"/>
        <pt x="346" y="389" on="0"/>
        <pt x="299" y="424" on="0"/>
        <pt x="253" y="424" on="1"/>
        <pt x="247" y="424" on="0"/>
        <pt x="236" y="424" on="0"/>
      </contour>
    </TTGlyph>
</ttFont>
